<svg xmlns="http://www.w3.org/2000/svg" viewBox="0 0 116.27 22.18"><defs><style>.cls-1{fill:#fff;}</style></defs><g id="Vrstva_2" data-name="Vrstva 2"><g id="Vrstva_1-2" data-name="Vrstva 1"><path class="cls-1" d="M30.94,10.89h0A7.77,7.77,0,0,0,19.6,4a11.08,11.08,0,0,1,.23,13.93,7.76,7.76,0,0,0,11.11-7M19.6,4a11.09,11.09,0,1,0,.23,13.93A7.76,7.76,0,0,1,19.6,4Z"/><path class="cls-1" d="M116.27,3.23h0l-.08-.16c-2.69.08-3.25.08-5.75.08l-.14.15c-.89,4.33-1.13,5.44-2,9L107,18.06l-.87,3.64.11.16,5.7-.11.18-.13.72-3.64.92-4.23c1.13-5,1.42-6.22,2.56-10.52m-9.63,3.61h0l1-3.61-.16-.16-4.7.08h-7l-.18.18c-.74,3.75-.93,4.64-1.85,8.76l-1,4.33-1.3,5.28.11.16,4.88-.08h7.31l.18-.19,1.17-3.88-.16-.16-4,.14H98.06l.55-2.33.32-1.29h5.52l.18-.16,1-3.43-.1-.21-5.81.11L100.51,7h5.94ZM91.25,9.14h0l1-5.91-.13-.16c-3.32.08-4.09.08-7.18.08l-.18.15c-.19.37-1.48,3.17-1.9,4l-3.33,7.13-.26-5.15-.1-1.93L79,3.23l-.16-.16c-3.16.08-3.93.08-7.23.08l-.15.15L70,9.16l-1.82,6.73L66.52,21.7l.14.16c1.82-.08,2.37-.11,4.35-.11l.19-.13,1.71-7.13L74,10.17l.71-2.83.51,10.85.15,3.48.19.16,4.17-.08.21-.13,2.22-4.78,4.59-9.5-1.32,6.41L84.81,17l-.92,4.73.13.16,5.07-.11.21-.13.79-5.36Zm-24.17,5h0a15.42,15.42,0,0,0,.55-3.9,7.68,7.68,0,0,0-1.95-5.49c-1.45-1.5-3.88-2-5.81-2a10.06,10.06,0,0,0-6.36,1.87C49.77,7.5,49.27,13,49.29,14.7c0,2.43.53,5.15,3.49,6.6a8.15,8.15,0,0,0,2.16.66,10.72,10.72,0,0,0,2.27.21A9.28,9.28,0,0,0,64,19.8,12.11,12.11,0,0,0,67.08,14.12ZM61.8,9.64h0a11.34,11.34,0,0,1-.24,2.16c-.39,2.27-1.32,6.36-4.09,6.36a2.32,2.32,0,0,1-2.27-1.69,4.66,4.66,0,0,1-.18-1.4,16.51,16.51,0,0,1,1.69-6.62A3.27,3.27,0,0,1,59.4,6.63C61.64,6.63,61.8,8.77,61.8,9.64ZM49.93,6.83l1-3.61-.13-.16L46,3.14H42l-2.74,0-.16.15c-1,4.91-1.24,5.94-2.19,10l-1.21,5.07-.79,3.27.1.16,5.46-.1.16-.16.82-3.86.69-3.22,5.43,0,.19-.13c.39-1.45.53-1.93,1-3.59l-.1-.18L43,10.71,43.86,7h5.86Z"/></g></g></svg>