<svg xmlns="http://www.w3.org/2000/svg" viewBox="0 0 939.82 134.15">
    <defs>
        <style>.cls-1{fill:#fff;}</style>
    </defs>
    <g id="BW">
        <path class="cls-1" d="M198.93,59.46a4.62,4.62,0,0,0,.65.08l22,0a21.32,21.32,0,0,0,5.09-.64c4.54-1.14,8.41-3.18,9.75-8.15A19.82,19.82,0,0,0,237,43.1a11.47,11.47,0,0,0-5.89-9.44A17.36,17.36,0,0,0,223,31.75c-7.65-.08-15.31-.06-23-.07a1.39,1.39,0,0,0-1.07.21V59.46ZM226.27,22.4a21.62,21.62,0,0,1,17.86,8.84,22.43,22.43,0,0,1,4,13.65c.07,7.82-2.49,14.52-8.68,19.53A20.93,20.93,0,0,1,227,68.64c-8.3.39-16.61.08-24.92.16-1,0-2,0-3.15,0v33.94H188V22.35l38.25,0Z"/>
        <path class="cls-1" d="M391.19,74.83A35,35,0,0,0,390,63.48c-2.09-7.15-7.55-11.67-14.13-11.8A15.49,15.49,0,0,0,360.35,63a35.78,35.78,0,0,0-.88,18.48,19.53,19.53,0,0,0,5.81,11.49c7.66,6.7,19.45,3.59,23.64-6.16a31.28,31.28,0,0,0,2.27-11.93Zm9,27.92H391.5v-7.9c-1.06,1.29-1.82,2.25-2.6,3.19-6.72,8.1-21.46,9.46-30.29,1.76A29.65,29.65,0,0,1,348.5,79.24,41.31,41.31,0,0,1,353,55.43c6.42-12,18.54-14.43,29.14-10.88a14.34,14.34,0,0,1,6.06,4.11l2.66,2.91V22.11h9.42c.21,1.41.2,79.25,0,80.64Z"/>
        <path class="cls-1" d="M518.38,71.93a29.28,29.28,0,0,0-2.29-11.35,14.25,14.25,0,0,0-7.37-8,16.25,16.25,0,0,0-21.14,9,17.27,17.27,0,0,0-.72,2.21,42.3,42.3,0,0,0-.43,16.92,22,22,0,0,0,4.16,10.21c5,6.55,20,8.07,25-3.31a39.33,39.33,0,0,0,2.82-15.68ZM485.83,95.78v7h-8.94V22.11h9.45v29c.88-.92,1.46-1.58,2.09-2.19,11.69-11.31,31.8-7.11,37.43,8.17a42,42,0,0,1-2.22,35.47c-6.21,11.66-18.79,14.38-28.81,10.58a15.88,15.88,0,0,1-6.49-4.79l-2.19-2.64-.32.1Z"/>
        <path class="cls-1" d="M288.8,73c-4.88,2.65-10.24,2.9-15.49,3.64a27,27,0,0,0-8.14,2,8.65,8.65,0,0,0-5.1,8.37,8.23,8.23,0,0,0,5.33,8.17c5.69,2.42,11,.88,16.19-1.78A12.58,12.58,0,0,0,288.75,83C289,79.75,288.8,76.48,288.8,73Zm16.49,22.85v7c-6.13,2.2-14.85,2.21-15.9-7.8-.62.69-1.1,1.31-1.67,1.83a27,27,0,0,1-24.59,7.27,17.1,17.1,0,0,1-13.44-17.47c.35-9.83,6.58-14.9,15.35-16.91,5.73-1.31,11.64-1.66,17.47-2.41,4.21-.54,5.85-1.61,6.48-4.66.82-4-.61-8.05-3.73-9.59a20.87,20.87,0,0,0-17.38-.72c-3.41,1.31-4.94,4.26-5.61,7.7-.08.44-.16.89-.25,1.33a3.12,3.12,0,0,1-.15.43h-9.1c.25-7.09,2.33-13,9.22-16.2a30.23,30.23,0,0,1,12.35-3,36.43,36.43,0,0,1,15.35,2.5,13.9,13.9,0,0,1,9.13,13.9v21.6c0,3.82,0,7.65,0,11.48,0,3.24.81,4,4.07,3.87.75,0,1.49-.13,2.4-.22Z"/>
        <path class="cls-1" d="M903.78,73.09c-1.08.46-2,.89-2.92,1.23a52.09,52.09,0,0,1-11.07,2.14,30.73,30.73,0,0,0-9.63,2.24A8.62,8.62,0,0,0,875,87.06a8.22,8.22,0,0,0,5.31,8.18c5.8,2.47,11.24.88,16.45-1.91a12.54,12.54,0,0,0,6.93-10.47C904,79.67,903.78,76.44,903.78,73.09Zm16.47,22.79v7.18a16.74,16.74,0,0,1-10.26.42c-3.91-1.26-5-4.61-5.61-8.41a25.3,25.3,0,0,1-11,7.81c-7.45,2.69-14.87,3.21-21.77-1.61-9.55-6.66-8.29-20.68-2.3-26.07a22.83,22.83,0,0,1,12.26-5.67c5.27-.78,10.56-1.47,15.85-2.1,4.26-.51,5.87-1.58,6.52-4.61.84-3.94-.57-8.08-3.68-9.62a20.85,20.85,0,0,0-17.52-.69c-3.34,1.32-4.82,4.23-5.5,7.6-.12.59-.23,1.18-.35,1.83h-9c-.07-8.19,2.85-13.79,10.27-16.77a34.24,34.24,0,0,1,27.69.66c5.61,2.52,7.95,7.26,7.95,13.27V84.93c0,2.51,0,5,0,7.55,0,2.89.85,3.68,3.73,3.62.85,0,1.69-.13,2.73-.22Z"/>
        <path class="cls-1" d="M655.82,44.18h12.63L646,66.09l23.69,36.64H657.1c-6-9.72-12.08-19.5-18.28-29.5l-8.3,7.58v21.93h-9.4V22.37h9.4V69.05l25.3-24.87Z"/>
        <path class="cls-1" d="M773.64,22.36h9.3V69.13l25.4-25H821L798.53,66.09l23.68,36.62H809.58L791.33,73.24c-2.82,2.57-5.56,5.05-8.36,7.61v21.89h-9.33Z"/>
        <path class="cls-1" d="M671.41,44.14H682.6l15.57,47.24h.34q7.83-23.6,15.67-47.22h10.91c-1,2.76-1.92,5.4-2.87,8-6.28,17.27-12.29,34.65-19.05,51.74-2.13,5.37-4.43,10.66-7,15.82-2.45,4.83-6.52,6.75-11.59,7.1a20.19,20.19,0,0,1-7.73-.75v-8.9c1.18.26,2.3.52,3.42.74,4.79,1,7.37-.35,9.29-4.77,1.06-2.44,2-4.92,3.1-7.36a3.19,3.19,0,0,0,.06-2.57q-10.41-28.84-20.76-57.7c-.15-.41-.29-.84-.5-1.41Z"/>
        <path class="cls-1" d="M414.76,44.17h10.1v1.68q0,18.27,0,36.55a23,23,0,0,0,.42,5c1.21,5.64,5.27,8.65,11.18,8.34,8.19-.42,13-4.63,14.76-12.68a53,53,0,0,0,1-11.1q0-13,0-26V44.2H462v58.55h-9.15V94.92c-.63,0-.68.45-.9.74a20,20,0,0,1-15.67,8.63,26.63,26.63,0,0,1-10.42-1.15c-6.33-2.18-9.5-6.91-10.61-13.28a37.07,37.07,0,0,1-.45-6.31q0-19.18,0-38.37Z"/>
        <path class="cls-1" d="M601.76,82.14a8.7,8.7,0,0,1,.94-.09h8.61a30.64,30.64,0,0,1-3,10.55c-3.63,7.12-9.77,10.58-17.43,11.64a25.49,25.49,0,0,1-16-2.38,24.49,24.49,0,0,1-12-15.22,41,41,0,0,1,1.94-29.72,25,25,0,0,1,25.6-14.43,24.36,24.36,0,0,1,14,5.19,20.39,20.39,0,0,1,6.28,11.75c.3,1.37.48,2.77.73,4.28h-9.63A27.29,27.29,0,0,0,600,58.21a11,11,0,0,0-8.7-6.66c-5.51-.79-10.54,0-14.38,4.5a18.74,18.74,0,0,0-3.78,7.48,37.39,37.39,0,0,0,.42,22.85c1.8,4.91,4.87,8.56,10.38,9.41,8.6,1.33,14.69-2.62,17.11-11,.25-.87.49-1.74.73-2.62Z"/>
        <path class="cls-1" d="M920.7,126.19v-8.47c1.73-.15,3.42-.28,5.11-.44,2.92-.29,3.75-1.11,4-4.06.12-1.4.14-2.81.14-4.22q0-31.34,0-62.66V44.47h9.79a5.62,5.62,0,0,1,.09.57q0,33.9,0,67.79a19.64,19.64,0,0,1-.47,4.19c-1.17,5.41-4.73,8.48-10.69,9.25a24.88,24.88,0,0,1-7.94-.08Z"/>
        <path class="cls-1" d="M343.79,43.08V53.46a18.36,18.36,0,0,0-8.43.49,15.22,15.22,0,0,0-10,12.51,45.81,45.81,0,0,0-.24,5q0,14.8,0,29.62v1.69h-9.81V44.2h9.36v9.56C329.44,46.87,334.7,41.62,343.79,43.08Z"/>
        <path class="cls-1" d="M830.33,44.15h9.33v9.63c4.75-6.89,10-12.15,19.06-10.71V53.45a18.15,18.15,0,0,0-8.38.5,15.38,15.38,0,0,0-10,12.65c-.26,2.76-.22,5.53-.22,8.29q0,13.06,0,26.13v1.71h-9.78V44.15Z"/>
        <polygon class="cls-1" points="550 102.73 540.1 102.73 540.1 44.47 550 44.47 550 102.73 550 102.73"/>
        <path class="cls-1" d="M697.59,36.51H690l10-15.78h12.17C707.19,26.13,702.39,31.32,697.59,36.51Z"/>
        <polygon class="cls-1" points="550.01 33.41 540.11 33.41 540.11 22.39 550.01 22.39 550.01 33.41 550.01 33.41"/>
        <polygon class="cls-1" points="930.05 22.33 939.74 22.33 939.74 33.58 930.05 33.58 930.05 22.33 930.05 22.33"/>
        <g id="pardubicky_kraj" data-name="pardubicky kraj">
            <path class="cls-1" d="M69.5,134a14.8,14.8,0,0,1-1.63-.06l-2.53-.11V68.9H.06L0,66.32A62.39,62.39,0,0,1,2,49.91l.11-.34a8,8,0,0,1,.62-1.12l.84-1.07,2,.06c.34,0,.73.06,1.07.06H50A6.4,6.4,0,0,0,51,47.44h.61l31.24.06.73-.73,1.35.61.67.06.12.11H133.1l.56,1.8a40.41,40.41,0,0,1,1.68,8.15,48.4,48.4,0,0,1,.51,9L135.74,69H86.92v7.87A41.76,41.76,0,0,0,87,82.27l0,.68,0,.33c0,.12-.06.28-.06.4v47.47l-1.85.56a51,51,0,0,1-10.51,2A39.75,39.75,0,0,1,69.5,134ZM5.28,63.68H70.57v65a32.84,32.84,0,0,0,3.42-.28h.12a43.53,43.53,0,0,0,7.58-1.23V83.73c0-.33.06-.67.06-1v-.34a46.14,46.14,0,0,1-.11-5.61c0-1,0-1.91,0-2.81V63.73h48.93a45.32,45.32,0,0,0-.51-5.5v-.17a32.46,32.46,0,0,0-.95-5.28H85.23a4.74,4.74,0,0,1-1.18-.06,4.84,4.84,0,0,1-.84.06l-31.63-.06h-.45c-.45,0-.9.06-1.29.06H6.58A69.82,69.82,0,0,0,5.28,63.68Z"/>
            <path class="cls-1" d="M28.26,52.78H6.58a10.17,10.17,0,0,1-1.35-.06l-3.82-.17.84-3.14A67.92,67.92,0,0,1,51,.87L53.77.14l.45,2.8c.05.29.05.57.11.9V52.55l-3.09.11c-.45,0-.9.06-1.29.06C42.7,52.78,35.51,52.78,28.26,52.78ZM8.32,47.5H49.11V6.88A62.5,62.5,0,0,0,8.32,47.5Z"/>
            <path class="cls-1" d="M85,52.78a3.3,3.3,0,0,1-2.58-1.13l-.68-.73V.25l3.15.67a48.32,48.32,0,0,1,9.21,3,67.45,67.45,0,0,1,36.58,36.35,41.65,41.65,0,0,1,3,9.32l.67,3.15h-49C85.23,52.78,85.12,52.78,85,52.78ZM87,6.82V47.44h40.79a40.6,40.6,0,0,0-1.91-5.11A61.77,61.77,0,0,0,92.08,8.73,47.25,47.25,0,0,0,87,6.82Z"/>
            <path class="cls-1" d="M54.33,132.61l-3.26-.79a62.86,62.86,0,0,1-20.73-9.15A67.56,67.56,0,0,1,2.53,84.58a5.54,5.54,0,0,1-.22-1l-.06-.39a5.16,5.16,0,0,1,.06-1L2.59,80H53.77l.39,2.19a7.85,7.85,0,0,1,.11,1.18v46ZM8.26,85.25a61.87,61.87,0,0,0,25,33,57.18,57.18,0,0,0,15.79,7.53V85.25Z"/>
            <path class="cls-1" d="M81.75,132.11V83.68c0-.34,0-.68,0-1L82,80h6.74C92.37,80,96,80,99.56,80H134.5l-.73,3.2a43.7,43.7,0,0,1-2.7,8.32,67.07,67.07,0,0,1-42.3,39.27,14.89,14.89,0,0,1-4.16,1.06ZM87,85.31v40.5l.11,0a62,62,0,0,0,39.16-36.3,42.37,42.37,0,0,0,1.58-4.21H99.61c-3.59,0-7.19,0-10.78.06Z"/>
        </g>
    </g>
</svg>