<svg id="Layer_1" data-name="Layer 1"
    xmlns="http://www.w3.org/2000/svg" viewBox="0 0 189.19 155.94">
    <defs>
        <style>.cls-1,.cls-2{fill:#e30613;}.cls-2,.cls-3{fill-rule:evenodd;}.cls-3{fill:#fff;}</style>
    </defs>
    <path class="cls-1" d="M57.23,185.07c6.7,0,11.14,3.78,11.14,10.66,0,6.36-4.4,10.71-11.38,10.71H54.37c-1,0-1.44.43-1.44,1.43v10.47a1.09,1.09,0,0,1-1.24,1.25h-3.3a1.09,1.09,0,0,1-1.24-1.25v-32c0-.91.43-1.25,1.24-1.25Zm-2.86,5.45c-1,0-1.44.38-1.44,1.44v7.6c0,1.05.48,1.43,1.44,1.43H57c3.4,0,5.55-2.2,5.55-5.21,0-3.44-2-5.26-5.4-5.26Z" transform="translate(-47.15 -64.13)"/>
    <path class="cls-1" d="M84.62,219.59a1.11,1.11,0,0,1-1.19-.77l-.15-.48a.62.62,0,0,0-1-.28,11.12,11.12,0,0,1-6.21,2c-3.87,0-6.79-3-6.79-7.26,0-5.64,3.59-7.89,11-7.89h2a.64.64,0,0,0,.72-.72v-.71c0-2.39-1-3.92-3.59-3.92a14.09,14.09,0,0,0-6.26,1.76,1.09,1.09,0,0,1-1.62-.66l-1-2.06A1.18,1.18,0,0,1,71,197a19.68,19.68,0,0,1,9-2.43c6.45,0,8.41,3.91,8.41,9.79v14c0,.87-.38,1.25-1.24,1.25Zm-5.88-10.14c-2.43,0-4,1.06-4,3.06,0,1.72,1,3,3.25,3a6.11,6.11,0,0,0,4.11-1.72,2.61,2.61,0,0,0,.81-2v-1.57c0-.58-.24-.82-.81-.82Z" transform="translate(-47.15 -64.13)"/>
    <path class="cls-1" d="M94,196.36c0-.87.43-1.3,1.24-1.3h2.87c.86,0,1.24.48,1.39,1.3l.14,1.38a.49.49,0,0,0,.91.19,7.06,7.06,0,0,1,5.92-3.34.89.89,0,0,1,.91.95V199a1,1,0,0,1-1.1,1.1h-.76a6.31,6.31,0,0,0-6,6.45v11.76a1.09,1.09,0,0,1-1.24,1.25H95.28A1.09,1.09,0,0,1,94,218.34Z" transform="translate(-47.15 -64.13)"/>
    <path class="cls-1" d="M110.43,201.61a6.69,6.69,0,0,1,6.89-7,11.24,11.24,0,0,1,5.78,1.86c.29.19,1,.29,1-.48v-9.65a1.1,1.1,0,0,1,1.25-1.25h3.06a1.09,1.09,0,0,1,1.24,1.25v32a1.09,1.09,0,0,1-1.24,1.25h-2.63a1.12,1.12,0,0,1-1.2-.77l-.14-.48a.62.62,0,0,0-1-.28,11.65,11.65,0,0,1-6.07,2,6.69,6.69,0,0,1-6.89-7Zm5.55,9.8c0,2.53,1.19,3.83,3.34,3.83a6.7,6.7,0,0,0,4-1.53,2.42,2.42,0,0,0,.81-1.92v-8.94a2.25,2.25,0,0,0-.81-1.86,6.7,6.7,0,0,0-4-1.53c-2.15,0-3.34,1.25-3.34,3.78Z" transform="translate(-47.15 -64.13)"/>
    <path class="cls-1" d="M154.41,218.34a1.09,1.09,0,0,1-1.24,1.25h-2.63a1.12,1.12,0,0,1-1.2-.77l-.14-.48a.62.62,0,0,0-1-.28,11.65,11.65,0,0,1-6.08,2,6.69,6.69,0,0,1-6.88-7V196.36c0-.82.34-1.3,1.24-1.3h3.06c.91,0,1.25.48,1.25,1.3v15c0,2.53,1.19,3.83,3.34,3.83a6.72,6.72,0,0,0,4-1.53,2.47,2.47,0,0,0,.82-1.92V196.36c0-.82.33-1.3,1.24-1.3h3.06c.91,0,1.24.48,1.24,1.3Z" transform="translate(-47.15 -64.13)"/>
    <path class="cls-1" d="M161.19,219.59a1.12,1.12,0,0,1-1.24-1.25v-32a1.12,1.12,0,0,1,1.24-1.25h3.06a1.09,1.09,0,0,1,1.24,1.25V196c0,.77.72.67,1,.48a11.44,11.44,0,0,1,5.78-1.86,6.69,6.69,0,0,1,6.89,7V213a6.69,6.69,0,0,1-6.89,7,11.84,11.84,0,0,1-6.07-2,.62.62,0,0,0-1.05.28l-.14.48a1.12,1.12,0,0,1-1.19.77Zm12.43-16.35c0-2.53-1.19-3.78-3.34-3.78a6.72,6.72,0,0,0-4,1.53,2.26,2.26,0,0,0-.82,1.86v8.94a2.43,2.43,0,0,0,.82,1.92,6.72,6.72,0,0,0,4,1.53c2.15,0,3.34-1.3,3.34-3.83Z" transform="translate(-47.15 -64.13)"/>
    <path class="cls-1" d="M187,185.12a3.49,3.49,0,1,1-3.49,3.49A3.24,3.24,0,0,1,187,185.12Zm2.78,33.22a1.1,1.1,0,0,1-1.24,1.25h-3.06a1.1,1.1,0,0,1-1.25-1.25v-22c0-.82.34-1.3,1.25-1.3h3.06c.9,0,1.24.48,1.24,1.3Z" transform="translate(-47.15 -64.13)"/>
    <path class="cls-1" d="M204.55,194.59c5.49,0,8.65,3.24,9,8.21a1.07,1.07,0,0,1-1.19,1.3h-2.92c-.91,0-1.24-.29-1.34-.86-.43-2.49-1.72-3.83-3.58-3.83-3.2,0-4.64,2.58-4.64,7.94s1.44,7.89,4.64,7.89c1.86,0,3.15-1.3,3.58-3.83.1-.57.43-.86,1.34-.86h2.92a1.09,1.09,0,0,1,1.19,1.29c-.38,5-3.54,8.22-9,8.22-7.32,0-10.18-4.73-10.18-12.71S197.23,194.59,204.55,194.59Z" transform="translate(-47.15 -64.13)"/>
    <path class="cls-1" d="M223.67,209.74c-.57,0-.91.33-.82,1.1a4.86,4.86,0,0,0,4.79,4.26,12.21,12.21,0,0,0,5.4-1.78,1.13,1.13,0,0,1,1.62.67l.91,2.06a1.2,1.2,0,0,1-.72,1.67,15.52,15.52,0,0,1-7.6,2.34c-5.78,0-10.28-3.63-10.28-12.52,0-9.27,4.16-12.95,10.24-12.95,6.25,0,9.12,4.39,9.12,12.19v1.81a1.11,1.11,0,0,1-1.19,1.15Zm0-4.54h5.89c.71,0,1-.34,1-1,0-3-1.53-4.78-3.82-4.78-2.49,0-4,2.06-4,4.78C222.76,204.86,223.05,205.2,223.71,205.2Z" transform="translate(-47.15 -64.13)"/>
    <path class="cls-2" d="M192,101c.32,3.46.47,6.15.47,8.74a47.43,47.43,0,0,1-3.07,17.52,51.54,51.54,0,0,1-12.94,18.6C162.08,159.62,142.23,168,142,168.1l-.27.1-.27-.1c-.19-.09-20.05-8.48-34.43-22.26a51.54,51.54,0,0,1-12.94-18.6,47.43,47.43,0,0,1-3.07-17.52c0-2.58.14-5.28.47-8.74,1.51-16,6.65-33.1,7.66-36.37l.15-.48h84.86l.15.48c1,3.27,6.15,20.36,7.66,36.37" transform="translate(-47.15 -64.13)"/>
    <path class="cls-3" d="M125.42,96.92s0,0,0,.1a3.47,3.47,0,0,1-.77,1.62c-.47.53-.77.64-1.23.54a1.11,1.11,0,0,1-.69-.48,4.61,4.61,0,0,0,.54-.41,1.62,1.62,0,0,0,.56-1,1.57,1.57,0,0,1-1.37.75,2.26,2.26,0,0,1-1.75-1.17,1.86,1.86,0,0,1-.19-1.76c.07-.19.1-.31,0-.36a.19.19,0,0,0-.19.06,1.33,1.33,0,0,1-.17-.76,2.34,2.34,0,0,1,.36-1.38,1,1,0,0,1,.57-.49,1.58,1.58,0,0,1,.38,0h.06a3.78,3.78,0,0,1,1.41.69,4.91,4.91,0,0,1,1,1,2.73,2.73,0,0,0-.06,1.56,2.65,2.65,0,0,0,.64,1A2.47,2.47,0,0,0,125.42,96.92Z" transform="translate(-47.15 -64.13)"/>
    <path class="cls-3" d="M125.05,96.35a1.91,1.91,0,0,1-.78-1,1.81,1.81,0,0,1,0-1.35c.08-.2.1-.22,0-.31s-.15-.21-.23-.32A4.52,4.52,0,0,0,122,92a1.89,1.89,0,0,0-.94,0l-.25.07a1.84,1.84,0,0,1,.89-.92,6,6,0,0,0,.48-.79A12,12,0,0,0,123,88a16.18,16.18,0,0,1,1-2.6,9.08,9.08,0,0,1,1-1.61,1.56,1.56,0,0,0,.4-1.19v-.06a3,3,0,0,1,0-1.14,2.6,2.6,0,0,1,1-1.46,7.59,7.59,0,0,0,1.46-1.65,5.77,5.77,0,0,0,.45-.93,2.72,2.72,0,0,1-2.23-.6,2.33,2.33,0,0,1-.5-1.36,3.82,3.82,0,0,1,.12-1.25,2.7,2.7,0,0,1,.46-.93s-.54,1.73.62,2.24a2,2,0,0,0,2.16-.61c.18-.2.39-.46.62-.74,0,0,0,0,0,0h0a3,3,0,0,1-1.1-1.56c-.14-.85-.13-1.63-.2-2a5.21,5.21,0,0,0-.37-1,.34.34,0,0,1,.12-.47.67.67,0,0,1,.83,0,6.34,6.34,0,0,1,1.09,1,7.84,7.84,0,0,0,1.18.91,11.91,11.91,0,0,0,1.41.84c-.06-.36-.1-.79-.13-1.1-.05-.61-.15-1.46-.17-1.58a1.66,1.66,0,0,0-.16-.5c-.12-.24-.2-.49-.29-.71s-.16-.53.12-.71a1,1,0,0,1,1.1.1c.43.28.72.74,1.15,1a7.13,7.13,0,0,1,2.31,1.93,5.15,5.15,0,0,1,1.08,2.34l.38-.06h0a6.65,6.65,0,0,0,1.4-.6,6.3,6.3,0,0,0,1.58-1.68,5.82,5.82,0,0,1,3.73-2.58c1.8-.27,2.08,0,2.77-.26l.76-.28a3.48,3.48,0,0,1-1,1.22,6.7,6.7,0,0,0-2.41,1.7,8.61,8.61,0,0,0-.61,1,8.07,8.07,0,0,1,3.16-1.87,11.23,11.23,0,0,1,4.75,0,6.46,6.46,0,0,0,3.41,0,5.33,5.33,0,0,1,1-.34,9.91,9.91,0,0,0-.9,1.38,3.55,3.55,0,0,1-1.93,1.93,7.75,7.75,0,0,1-1.38.51,17.77,17.77,0,0,0,2.19.16,22.38,22.38,0,0,0,3-.36,9.63,9.63,0,0,1,4.37,0,7,7,0,0,1,1.92,1,3.76,3.76,0,0,0-2.61,1.07,14.76,14.76,0,0,1-2,1.87c-.55.29-1.1.51-1.1.51a13,13,0,0,1,2.81,1.24,11.53,11.53,0,0,0,3,1.27,5,5,0,0,0,3.09-.37,2.17,2.17,0,0,1,.68-.25,5,5,0,0,0-1.4,2.12,4.88,4.88,0,0,1-2.13,2.39,3.9,3.9,0,0,1-1.9.3,6.55,6.55,0,0,1,2.92,2c1.66,1.78,2.26,1.89,3.26,2.12a3.67,3.67,0,0,0,2-.06s-1.12,1.38-1.84,2.11a4.28,4.28,0,0,1-4,1.52,9.17,9.17,0,0,1-2.13-.68,4.3,4.3,0,0,0-1.68-.28,7.82,7.82,0,0,1,2.23,1.9,5.18,5.18,0,0,0,3,2,7.54,7.54,0,0,0,2.85-.17,5,5,0,0,1,1.21,0s-.6.07-1.39,1.11-1.95,2.91-4.11,3.28a9.08,9.08,0,0,1-4.45-.79,8.79,8.79,0,0,0,2.05,1.93,5.79,5.79,0,0,0,3.14.47,6.14,6.14,0,0,1,.83-.1A2.58,2.58,0,0,0,165,101a4.47,4.47,0,0,1-2.73,1.55,4.72,4.72,0,0,1-2.93-.41A3,3,0,0,1,158,100.4a9.07,9.07,0,0,1-.19-1.3c-.14-1-.09-3-.11-3.69a22.63,22.63,0,0,0-2-9.64,21.44,21.44,0,0,0-6.87-8.27,17.72,17.72,0,0,0-5.08-2.73,25.21,25.21,0,0,0-3.11-.88s1.28.5,3.07,1.34a24.4,24.4,0,0,1,6.86,5,18.83,18.83,0,0,1,4.17,5.92,21.77,21.77,0,0,1,1.61,7.19c.07,1.07.11,4.77.23,6.35a5.63,5.63,0,0,0,1.59,3.4,8.62,8.62,0,0,0,2.2,1.67,25.69,25.69,0,0,1-7.12,2.75,22.48,22.48,0,0,1-14.41-1.67,18.51,18.51,0,0,1-3.52-2.17c1-1.4,2-2.53,3.07-4.23a7.2,7.2,0,0,0,1.22-5.73,3.87,3.87,0,0,0-1.74-2.31,6,6,0,0,0,2.07-7.56c-.48-1-.95-1.23-.95-1.23a5.9,5.9,0,0,1,.74,3.49c-.22,2.22-1.42,4.56-3.7,5.1a5.38,5.38,0,0,1-2.79,0,13.17,13.17,0,0,1-2.09-.76,6.4,6.4,0,0,0,.87.7,4.94,4.94,0,0,0,1.74.82,7.15,7.15,0,0,1-1.86,1.4,7.82,7.82,0,0,1-2.16,1c-.54.14-.36.88-.35,1.36a3.25,3.25,0,0,1-.08,1.35c-.16.43-.2.39-.2.39-.29-.33-1.06-1.38-1.06-1.38a1.75,1.75,0,0,0,.3-.67,2,2,0,0,0-.15-1.23,1,1,0,0,0-.54-.51,1.9,1.9,0,0,1,.38,1.5,1.75,1.75,0,0,1-.53,1s1.82,2.52,2.9,3.83a27.56,27.56,0,0,0,4.31,4.22A22.82,22.82,0,0,0,150,109a23.58,23.58,0,0,0,8.25-2.07,88.12,88.12,0,0,0,8.08-4.71c2-1.25,8.63-5.21,12-2.39a3.62,3.62,0,0,1,1.33,2.62,4.93,4.93,0,0,1-1.64,3.67c-1.1,1.16-4.32,2.64-7.2,2.91a23.84,23.84,0,0,1-4.81.09c-.48-.53-1-1.18-1-1.18.37,0,1.08.07,1.08.07a27.26,27.26,0,0,0,2.95-.11,18.43,18.43,0,0,0,5.8-1.48,5.66,5.66,0,0,0,3.09-3.2,2.37,2.37,0,0,0-.28-2c-.64-1-2.76-1.45-5.92-.19a23.89,23.89,0,0,0-3.71,1.84c-.71.41-6.42,3.89-9.08,5.11-5.17,2.36-9.92,3.37-14.48,2.47a21,21,0,0,1-10.11-4.65,31.31,31.31,0,0,1-5.54-5.94c-1.15-1.53-1.86-2.78-2.08-3.1-.08-.13-.4,0-.77,0A2.14,2.14,0,0,1,125.05,96.35Z" transform="translate(-47.15 -64.13)"/>
    <path class="cls-3" d="M130,97.87a19.38,19.38,0,0,0,5.82,3.84c-.14.23-1.1,1.57-1.1,1.57a28.53,28.53,0,0,1-2.78-2.43,31,31,0,0,1-2.26-2.58A2.18,2.18,0,0,0,130,97.87Z" transform="translate(-47.15 -64.13)"/>
    <path class="cls-3" d="M181.43,124.92c-.41,4.78-1.9,8.35-5.53,11.6-3.13,2.8-7.7,4.76-13.56,5.21a29.35,29.35,0,0,1-9.74-1,16,16,0,0,0-3.11-.65,3.5,3.5,0,0,0-1.26.22h-.62a3.11,3.11,0,0,1-.27.46,4.21,4.21,0,0,1-3.9,2,21.11,21.11,0,0,1-3.46-.21,1.84,1.84,0,0,0-.37.12,8.43,8.43,0,0,1-4.35.62,35.58,35.58,0,0,1-6.52-1.24c-1.69-.49-2.2-.61-2.73-.33a.49.49,0,0,0-.22.63,23.7,23.7,0,0,0,1.46,3.71,8.22,8.22,0,0,0,2.19,2.83c.89.69,1.66,1.2,1.84,2.47a1.82,1.82,0,0,1-.5,1.45,1.78,1.78,0,0,0,1,.39,12.57,12.57,0,0,0,2.05-.67c.5-.14,1.39-.34,2,1.1a10.41,10.41,0,0,1,1.24.72,2.46,2.46,0,0,1,.76,2.29,32.25,32.25,0,0,1-.77,5.53c0,.19-.22.07-.31,0L133,159.51l-.38-.27a1.63,1.63,0,0,1-1.76-.66,11,11,0,0,0-2.17-2.35,21.23,21.23,0,0,1-3.07-1.6,6.83,6.83,0,0,1-1.61-2.74c-.52-1.34-1.56-4.13-2-5.06a23,23,0,0,0-2-3.34,3.31,3.31,0,0,1-.83-2.48,4.77,4.77,0,0,1,1.15-2.81,3,3,0,0,1,.88-1.88c.81-.73,1.91-1.12,4.56-1.4a14.63,14.63,0,0,0,5.93-1.64,2.85,2.85,0,0,0,.59-.42c.09-.12-.09-.13-.79.29a7.06,7.06,0,0,1-3.53.3,9.91,9.91,0,0,1-5.34-2.7,23.31,23.31,0,0,1-4.24-5.45,53,53,0,0,1-2-5.47,7.89,7.89,0,0,0-1.61-3c-.78-.71-1.86.33-2.18.58a18.08,18.08,0,0,0-2.7,2.65c-.26.32-.65.77-.66,1a14.54,14.54,0,0,1-.41,2.17,1.63,1.63,0,0,1-1.34,1.18,2.55,2.55,0,0,1-1-.16,2.59,2.59,0,0,0,.92,1.27c.83.75,1.44,1.57,1.29,2.31a1.55,1.55,0,0,1-.85,1.09s-.07.6-.09.9a1.87,1.87,0,0,1-1.16,1.59,26.63,26.63,0,0,1-5.16,1.29,3.66,3.66,0,0,1-1.21.09s-.08-.05,0-.21,1-3.57,1-3.93a1.46,1.46,0,0,1,.23-.54,1.47,1.47,0,0,1-.4-1.73,11.76,11.76,0,0,0,1.09-2.73,10.58,10.58,0,0,1,.61-3.18,7.32,7.32,0,0,1,2.27-2.54c.89-.78,2.06-1.79,2.89-2.67s1.89-2.9,3-3.85a4.25,4.25,0,0,1,3.44-1,.62.62,0,0,0,.42,0,2,2,0,0,1,2.11-.27c1.22.54,2,1.76,2.71,2.55s1.11,1.36,4.14,2.91a13.68,13.68,0,0,1,3.84,2.7A5.71,5.71,0,0,1,129,116.7a4,4,0,0,1,1.42-.6c.12,0,.12.15.12.15a14.82,14.82,0,0,0,.49,2.76,2,2,0,0,0,.3.32,17.22,17.22,0,0,1-.25-5.63,16,16,0,0,1,.77-3.82,13.49,13.49,0,0,1,1.75-3.62,21.44,21.44,0,0,0,6.87,4.49,20.27,20.27,0,0,0,13,.16,37.47,37.47,0,0,0,9.15-4l.19.21s.86,1,1.9,2.21c1.36,1.6,2.86,1.92,5.32,2.22,3.73.46,6.61.71,8.64,2.93C180.57,116.47,181.75,121.13,181.43,124.92Z" transform="translate(-47.15 -64.13)"/>
    <path class="cls-3" d="M126.42,97.11c.06.11.64,1.36.92,1.79,0,0,0,.14-.37.15a1.17,1.17,0,0,1-.92-.38,1.41,1.41,0,0,1-.15-.73A4.18,4.18,0,0,1,126,97a1.17,1.17,0,0,0,.26,0S126.37,97,126.42,97.11Z" transform="translate(-47.15 -64.13)"/>
    <path class="cls-2" d="M135.91,79.29s-.11.07-.14,0c-.19-.14-.49-.35-.66-.49-.57-.47-1.17-.91-1.77-1.34-2.15-1.52-3.07-1.18-4.31-.91h-.1c1.18-.77,2.46-.85,4.86.87.32.23,1.75,1.32,1.94,1.46s.07,0,.12,0a1.73,1.73,0,0,1,.84-.22,2.06,2.06,0,0,1,.72.11,12.76,12.76,0,0,0,1.08-1.91,3.53,3.53,0,0,0,.22-2.76,2.31,2.31,0,0,1,.25,2.22,10,10,0,0,1-1.42,2.85s0,0-.06,0a1.61,1.61,0,0,0-.73-.15A1.77,1.77,0,0,0,135.91,79.29Z" transform="translate(-47.15 -64.13)"/>
    <path class="cls-2" d="M152.18,70.94a7.28,7.28,0,0,0-2-.07A6.74,6.74,0,0,0,146.76,72c-.93.57-1.38,1.22-1.93,1.58a9.58,9.58,0,0,1-1.15.63A4.31,4.31,0,0,0,145.94,73a8,8,0,0,1,3.26-1.75,24.14,24.14,0,0,1,3-.33" transform="translate(-47.15 -64.13)"/>
    <path class="cls-2" d="M155.2,75.34a4.73,4.73,0,0,0,2.48-.68,9.47,9.47,0,0,1-3,.41,6.94,6.94,0,0,0-3,.45,5.8,5.8,0,0,0-1.81,1.22,1.91,1.91,0,0,0-.34.44s.32-.23.88-.6a7.24,7.24,0,0,1,1.21-.68,7.92,7.92,0,0,1,3.58-.56" transform="translate(-47.15 -64.13)"/>
    <path class="cls-2" d="M160.82,81.13a3.9,3.9,0,0,0,1.52,0,7.61,7.61,0,0,1-1.4-.15,11.82,11.82,0,0,0-3.16-.81,5.21,5.21,0,0,0-2.82.88A2.81,2.81,0,0,0,154,82a6.45,6.45,0,0,1,1-.71,6.17,6.17,0,0,1,2.76-.73,11.43,11.43,0,0,1,3,.56" transform="translate(-47.15 -64.13)"/>
    <path class="cls-2" d="M161,87.17c1.18.13,2.59,1.12,3.37,1.42a3.91,3.91,0,0,0,1.39.28,5.68,5.68,0,0,1-1.51-.53A13,13,0,0,0,161.56,87a5.15,5.15,0,0,0-3.05,0,4.13,4.13,0,0,0-1.31.62,7.63,7.63,0,0,0,.93-.26,6.07,6.07,0,0,1,2.9-.22" transform="translate(-47.15 -64.13)"/>
    <path class="cls-2" d="M162.72,96a3.5,3.5,0,0,0,1.2.28,2.49,2.49,0,0,0,1-.2h-.54a4.42,4.42,0,0,1-1.54-.3,4.88,4.88,0,0,1-1.6-1,3.31,3.31,0,0,0-1.63-1,3.6,3.6,0,0,0-1.48,0,4.46,4.46,0,0,1,1.63.3,3.68,3.68,0,0,1,1.08.67A5.58,5.58,0,0,0,162.72,96Z" transform="translate(-47.15 -64.13)"/>
    <path class="cls-2" d="M121.51,95.92c-.06.59.58,1,1,1s.79-.4.49-1.19a2.22,2.22,0,0,0-1.19-1.17c-.1,0-.24.13-.24.13s-.07.09.06.11.12,0,.34.14a.86.86,0,0,1,.31.37.63.63,0,0,0-.78.62" transform="translate(-47.15 -64.13)"/>
    <path class="cls-2" d="M127.63,83.48a.83.83,0,0,0,.06.4,1.54,1.54,0,0,0,1.29,1,1.58,1.58,0,0,0,1.32-.53,1.55,1.55,0,0,0,.3-1.08,1.09,1.09,0,0,0,1.16-.78,1.09,1.09,0,0,0,.05-.53,1.47,1.47,0,0,1-.22.36,1.11,1.11,0,0,1-.67.44,1.14,1.14,0,0,1-.77-.17s-.06,0-.12,0-.08,0-.08,0a2.05,2.05,0,0,1,.05.51.9.9,0,0,1-.43.72.94.94,0,0,1-.47.18,2.28,2.28,0,0,0,.25-1.15.44.44,0,0,0-.16-.37.87.87,0,0,0-.54-.1,1.18,1.18,0,0,0-.82.49.68.68,0,0,1-.54.14,3,3,0,0,1-.65-.12,1.41,1.41,0,0,0,.29.29,1.66,1.66,0,0,0,.7.23" transform="translate(-47.15 -64.13)"/>
    <path class="cls-2" d="M128.61,81.4a1.11,1.11,0,0,0-.92.61,5.61,5.61,0,0,0-.18.65s.09,0,.09,0a2.26,2.26,0,0,1,.31-.48,1.35,1.35,0,0,1,1.35-.42,4.8,4.8,0,0,1,.68.19s.08.07.1,0,0-.07,0-.07l-.27-.18a1.72,1.72,0,0,0-1.12-.33" transform="translate(-47.15 -64.13)"/>
    <path class="cls-2" d="M131.77,89c1.16-1.5,2.24-3.13,3.28-4.71.3-.47.63-1,.92-1.43l.16-.24c.06-.07.34,0,.5,0a2,2,0,0,0,1.84-.81,1.81,1.81,0,0,0,0-2.28s0,0,0,0l0-.07a9,9,0,0,0,.87-1.63,5.67,5.67,0,0,0,.57-2.25,2.39,2.39,0,0,0-1.07-2,2.89,2.89,0,0,1,.74,2.27A8.79,8.79,0,0,1,138,79.57l.1.12h0a1.69,1.69,0,0,1,0,2,1.66,1.66,0,0,1-1.78.61,1.54,1.54,0,0,1-.33-.12l-.41.62c-.3.48-.6,1-.91,1.45-.67,1-1.38,2.06-2.09,3.07s-1.25,1.73-1.92,2.57S129,92,128.12,93c-.41.46-.58.68-.58.68s.23,0,.6-.37C128.14,93.32,130.23,91,131.77,89Z" transform="translate(-47.15 -64.13)"/>
    <path class="cls-2" d="M157.93,138.7a23.17,23.17,0,0,0,11.52-1.44,19.31,19.31,0,0,0,6.78-4.47,24.88,24.88,0,0,1-9.13,4.74,31.2,31.2,0,0,1-11.25.33c-3.79-.42-4.58.22-4.58.22,1.81-.39,4.33.26,6.66.62" transform="translate(-47.15 -64.13)"/>
    <path class="cls-2" d="M155.17,128.45a9.07,9.07,0,0,0,2-5.2s-.28.69-.81,2.15a9.89,9.89,0,0,1-2.31,3.54,16.85,16.85,0,0,1-3.51,2.49s2.25-.27,4.62-3" transform="translate(-47.15 -64.13)"/>
    <path class="cls-2" d="M140.1,137.37c-.73.68-1.58,1.16-4,1.5a30.36,30.36,0,0,1-5.69.08.91.91,0,0,0-.54.14,38.27,38.27,0,0,0,6.65.24c3.51-.26,4.36-1.23,4.83-1.92a1.45,1.45,0,0,0-.52-2.27,6.72,6.72,0,0,0-3.11-.63.44.44,0,0,0,.41.2,4.06,4.06,0,0,1,2.16.86c.61.51.54,1.12-.19,1.8" transform="translate(-47.15 -64.13)"/>
    <path class="cls-2" d="M123.82,140.83c-.06.09-.16.35-.24.51a2.13,2.13,0,0,1-.9.93,1.38,1.38,0,0,1-.68.07s0,.1,0,.1a4.3,4.3,0,0,1,1.33,1.72c.62,1.45,1,2.34,1.37,3a3.86,3.86,0,0,0,.47.73.42.42,0,0,0,.21.15,14.12,14.12,0,0,1-1.67-5.36,3.62,3.62,0,0,1,.24-1.82h-.09" transform="translate(-47.15 -64.13)"/>
    <path class="cls-2" d="M126.33,127c-.88.08-1.51-.49-2.75-2a34.12,34.12,0,0,1-3-4.58c-.59-1-1.17-1.93-1.17-1.93s.44,1.07,1.09,2.46a40.92,40.92,0,0,0,2.06,3.94c.79,1.31,2.13,3.2,3.46,3.22s2.08-1.09,2-2.59a6.92,6.92,0,0,0-1.21-3,7.22,7.22,0,0,1,.73,2.84c0,.83-.38,1.52-1.17,1.6" transform="translate(-47.15 -64.13)"/>
    <path class="cls-2" d="M111.3,114h-.14a2.79,2.79,0,0,1-.73,1.43c-.36.45-.92,1-1.41,1.53l-1.91,2s1.76-1.5,2.2-1.91a8.53,8.53,0,0,1,2.55-1.82,2.76,2.76,0,0,1,1.12-.17l.06-.17a2,2,0,0,1-1.14-.15,1.42,1.42,0,0,1-.6-.76" transform="translate(-47.15 -64.13)"/>
    <path class="cls-2" d="M127.84,117.58a2.21,2.21,0,0,0-.38.49,11.65,11.65,0,0,1,2,2.62,11.1,11.1,0,0,1,1.07,2.56,8.76,8.76,0,0,0-.71-2.63A9.26,9.26,0,0,0,127.84,117.58Z" transform="translate(-47.15 -64.13)"/>
    <path class="cls-2" d="M156.53,114.09a8.88,8.88,0,0,1,1.87,3.09c0,.29.16.29.16.29a5,5,0,0,0-.41-1.64,6.4,6.4,0,0,0-4.63-3.79.69.69,0,0,0,.33.23,7,7,0,0,1,2.68,1.82" transform="translate(-47.15 -64.13)"/>
    <path class="cls-2" d="M135.32,73.15a2,2,0,0,1-1.2-1,8,8,0,0,1-.71-2,1.16,1.16,0,0,0-.29-.6,4,4,0,0,1,.11.41c.07.34.12.84.21,1.44a2.78,2.78,0,0,0,.6,1.48,1.51,1.51,0,0,0,1.57.66A.55.55,0,0,0,136,73a.61.61,0,0,1-.63.18" transform="translate(-47.15 -64.13)"/>
    <path class="cls-2" d="M127.56,92.49l1-1.16c.91-1,1.77-2.13,2.62-3.21,1.5-1.92,3-4.3,4.3-6.34,0,0-.11-.16-.25-.41a1.87,1.87,0,0,1-.09-1.06,2.22,2.22,0,0,1,.12-.31c.07-.17-.18-.37-.29-.48l-.61-.51a7.75,7.75,0,0,0-4.91-2.37A10.45,10.45,0,0,1,133.91,79l.88.8.11.11s0,.09,0,.18a1.94,1.94,0,0,0-.13.73,1.36,1.36,0,0,0,.31.93.2.2,0,0,1,0,.16c0,.08-3,4.67-4.57,6.73-.81,1-1.65,2.07-2.51,3.06-.3.37-.63.71-.94,1.07,0,0-.07.07-.12,0a1.88,1.88,0,0,0-.89-.25,1.82,1.82,0,0,0-.89.13s-.07,0-.07,0A9.36,9.36,0,0,0,124,91.56a3.23,3.23,0,0,0-1.44-.71.2.2,0,0,0-.2.07c-.16.13-.09.16,0,.18a1.83,1.83,0,0,1,.63.2,3.91,3.91,0,0,1,1.2.83c.51.47.79.77.85.84s.2.11.26.08a1.48,1.48,0,0,1,.51-.13,1.94,1.94,0,0,1,.74.06,1.64,1.64,0,0,1,.36.14s.07,0,.11,0a5.44,5.44,0,0,0,.59-.64" transform="translate(-47.15 -64.13)"/>
    <path class="cls-2" d="M133.1,73.76a1.6,1.6,0,0,0,1.08.4,1.15,1.15,0,0,0,.7-.18,2.11,2.11,0,0,1-2-1.08,2.64,2.64,0,0,1-.36-1l-.43-.22s.16.72.17.76A3,3,0,0,0,133.1,73.76Z" transform="translate(-47.15 -64.13)"/>
    <path class="cls-2" d="M138.44,103.54c-.07.07-.08.11,0,.14a.16.16,0,0,0,.09,0,32.65,32.65,0,0,0,2.82-3.43c2.66-3.82,4.61-7.51,3.52-12a16.2,16.2,0,0,0-4.78-7.59c0,.07.22.33.22.33A28.31,28.31,0,0,1,143,85.17a11.39,11.39,0,0,1,.91,9.22c-.88,3.27-4.53,8-5.51,9.15" transform="translate(-47.15 -64.13)"/>
    <path class="cls-2" d="M148.1,141.1a13.09,13.09,0,0,0,1.07-4,6.55,6.55,0,0,1,.9-2.33,4.46,4.46,0,0,0,.49-2.35A7.44,7.44,0,0,1,149.4,135a6.6,6.6,0,0,0-1,2.1,18.89,18.89,0,0,1-.84,3.15Z" transform="translate(-47.15 -64.13)"/>
    <path class="cls-2" d="M133.33,158.58a.6.6,0,0,0,.19-.08,8.22,8.22,0,0,0,1.52-1.91,13.14,13.14,0,0,0,.94-1.86,3.34,3.34,0,0,0,.3-.94c0-.2-.45-.42-.43-.23a3.22,3.22,0,0,1-.21.88c-.07.18-.45,1.1-.92,2.08a7.38,7.38,0,0,1-1.42,2.06Z" transform="translate(-47.15 -64.13)"/>
    <path class="cls-2" d="M102.12,128.19l.57,0a17,17,0,0,1,3.37.44,6.83,6.83,0,0,1,1.81.71v-.42a10.62,10.62,0,0,0-5.26-.89l-.53,0C101.92,128.11,102,128.19,102.12,128.19Z" transform="translate(-47.15 -64.13)"/>
    <path class="cls-2" d="M137.51,126a10.14,10.14,0,0,0-4.57,3.29,11.33,11.33,0,0,1-.25-6.32,13.66,13.66,0,0,1,4.13-7.15,17.59,17.59,0,0,1,4.51-2.84,14.52,14.52,0,0,0-9.77,10.19,10.15,10.15,0,0,0-.1,5.25,7.43,7.43,0,0,0,.42,1.33s0,0,0,.08a4.87,4.87,0,0,1-.42,3.42l.33-.06a1.74,1.74,0,0,0,.62-.44,5.61,5.61,0,0,0,.5-1.31h0a8.36,8.36,0,0,1,3.46-4,8.58,8.58,0,0,1,6.74-1.31,10.34,10.34,0,0,1,3.45,1.37A8.79,8.79,0,0,0,137.51,126Z" transform="translate(-47.15 -64.13)"/>
    <path class="cls-2" d="M138.32,72.45a2.25,2.25,0,0,1-.79.2,2.61,2.61,0,0,1-.32,1.7,1.63,1.63,0,0,1-1.26.85c-.45,0-.83-.1-.72,0a1,1,0,0,0,.59.24,1.87,1.87,0,0,0,1.68-.59,3.55,3.55,0,0,0,.72-1.41A3.27,3.27,0,0,0,138.32,72.45Z" transform="translate(-47.15 -64.13)"/>
</svg>