<svg id="Vrstva_1" data-name="Vrstva 1"
    xmlns="http://www.w3.org/2000/svg" viewBox="0 0 760.61 108.69">
    <defs>
        <style>.cls-1{fill:#3c3c3b;}.cls-1,.cls-2,.cls-3,.cls-4{fill-rule:evenodd;}.cls-2{fill:#0062ae;}.cls-3{fill:#ffdf00;}.cls-4{fill:#e40520;}</style>
    </defs>
    <path class="cls-1" d="M189.55,269h29.37q8.72,0,14,4.91t5.33,13.79A20.05,20.05,0,0,1,233.54,301q-4.75,5.67-14.62,5.66H198.39v27.6h-8.84V269ZM224,278a19.2,19.2,0,0,0-8-1.37h-17.6v22.61H216a16.78,16.78,0,0,0,9.66-2.53q3.72-2.54,3.71-8.93Q229.36,280.56,224,278Z" transform="translate(-37.39 -250.97)"/>
    <path class="cls-1" d="M250.41,327.08a9.42,9.42,0,0,0,6,2,18.17,18.17,0,0,0,8.18-2,11,11,0,0,0,6.66-10.62v-6.44a13.84,13.84,0,0,1-3.78,1.56,32.92,32.92,0,0,1-4.53.89l-4.84.62a18.41,18.41,0,0,0-6.53,1.82,7.09,7.09,0,0,0-3.69,6.66,6.61,6.61,0,0,0,2.53,5.47Zm16.84-21.64a4.35,4.35,0,0,0,3.69-2.31,7,7,0,0,0,.53-3.06q0-4.1-2.91-5.94c-1.94-1.23-4.71-1.84-8.33-1.84-4.17,0-7.14,1.12-8.88,3.38a11,11,0,0,0-1.91,5.55H242c.15-5.87,2.05-9.94,5.71-12.24a23.4,23.4,0,0,1,12.73-3.44q8.4,0,13.64,3.2t5.2,9.95V326.1a3.51,3.51,0,0,0,.51,2,2.47,2.47,0,0,0,2.15.76c.36,0,.76,0,1.2-.07s.92-.11,1.43-.2v5.91a21.76,21.76,0,0,1-2.85.66,20.31,20.31,0,0,1-2.66.14q-4.14,0-6-2.93a11.46,11.46,0,0,1-1.38-4.4,20.39,20.39,0,0,1-7,5.55,21.7,21.7,0,0,1-10.08,2.36,15,15,0,0,1-10.82-4,13.34,13.34,0,0,1-4.2-10.06q0-6.62,4.13-10.26A19.65,19.65,0,0,1,254.5,307Z" transform="translate(-37.39 -250.97)"/>
    <path class="cls-1" d="M292.58,286.69h7.6v8.22q.93-2.4,4.57-5.84a11.85,11.85,0,0,1,8.4-3.44c.15,0,.4,0,.75,0l1.83.18v8.44a12,12,0,0,0-1.31-.18c-.4,0-.84,0-1.32,0q-6,0-9.28,3.88a13.61,13.61,0,0,0-3.24,9v27.37h-8Z" transform="translate(-37.39 -250.97)"/>
    <path class="cls-1" d="M331,323.84q3.24,5.15,10.39,5.15a10.94,10.94,0,0,0,9.13-4.78q3.58-4.77,3.58-13.7t-3.69-13.35a11.5,11.5,0,0,0-9.11-4.34,12,12,0,0,0-9.79,4.62q-3.76,4.62-3.76,13.6a23.56,23.56,0,0,0,3.25,12.8Zm17.95-35.68a21.62,21.62,0,0,1,4.84,4.66v-24h7.69v65.49h-7.2v-6.62a17.29,17.29,0,0,1-6.62,6.35,19,19,0,0,1-8.76,1.95q-8,0-13.77-6.68t-5.82-17.8a30.7,30.7,0,0,1,5.31-18q5.31-7.62,15.17-7.62A17,17,0,0,1,348.92,288.16Z" transform="translate(-37.39 -250.97)"/>
    <path class="cls-1" d="M381.26,286.69v31.59a13.37,13.37,0,0,0,1.16,6q2.13,4.26,7.95,4.26,8.36,0,11.37-7.46,1.65-4,1.65-11V286.69h8v47.59h-7.56l.09-7a16.18,16.18,0,0,1-3.86,4.57A17,17,0,0,1,389,335.56q-10.18,0-13.86-6.79c-1.34-2.43-2-5.67-2-9.73V286.69Z" transform="translate(-37.39 -250.97)"/>
    <path class="cls-1" d="M423.25,268.79H431v23.68a17.45,17.45,0,0,1,14.18-7,18.49,18.49,0,0,1,14.41,6.11q5.53,6.1,5.54,18,0,11.3-5.47,18.75t-15.15,7.47a15.58,15.58,0,0,1-9.15-2.62,22.29,22.29,0,0,1-4.76-5v6.09h-7.37V268.79Zm30.5,54.78Q457,318.41,457,310q0-7.5-3.22-12.44a10.63,10.63,0,0,0-9.49-4.93,13.25,13.25,0,0,0-9.57,4q-4.11,4-4.11,13.33a29.38,29.38,0,0,0,1.69,10.89q3.15,7.86,11.77,7.86A10.69,10.69,0,0,0,453.75,323.57Z" transform="translate(-37.39 -250.97)"/>
    <path class="cls-1" d="M474.48,286.91h8.13v47.37h-8.13V286.91Zm0-17.9h8.13v9.06h-8.13Z" transform="translate(-37.39 -250.97)"/>
    <path class="cls-1" d="M526.13,289.22q5,3.91,6.06,13.47h-7.77a14.37,14.37,0,0,0-3.25-7.31q-2.53-2.91-8.13-2.91-7.63,0-10.93,7.46A29.68,29.68,0,0,0,500,311.88a22.5,22.5,0,0,0,3,12q3,4.89,9.51,4.89a10.4,10.4,0,0,0,7.89-3,16.75,16.75,0,0,0,4-8.33h7.77q-1.34,9.46-6.66,13.84t-13.64,4.37q-9.33,0-14.89-6.82t-5.55-17q0-12.53,6.09-19.5a19.65,19.65,0,0,1,15.5-7Q521.08,285.31,526.13,289.22Z" transform="translate(-37.39 -250.97)"/>
    <polygon class="cls-1" points="502.62 18.03 510.31 18.03 510.31 55.93 530.83 35.72 541.05 35.72 522.84 53.53 542.07 83.3 531.85 83.3 517.01 59.31 510.31 65.44 510.31 83.3 502.62 83.3 502.62 18.03"/>
    <path class="cls-1" d="M615.41,286.69h8.84q-1.68,4.57-7.51,20.88-4.35,12.27-7.28,20-6.93,18.21-9.78,22.21t-9.77,4a19,19,0,0,1-2.6-.13,20.14,20.14,0,0,1-2.25-.49v-7.29a26.68,26.68,0,0,0,3,.71,11.58,11.58,0,0,0,1.64.14A5.71,5.71,0,0,0,593,346a6.7,6.7,0,0,0,1.76-1.8c.15-.23.68-1.45,1.6-3.64s1.59-3.82,2-4.89l-17.6-49h9.07l12.75,38.74,12.84-38.74Zm-1.6-19L602,280.56h-6.13L604,267.72Z" transform="translate(-37.39 -250.97)"/>
    <polygon class="cls-1" points="626.03 18.03 633.71 18.03 633.71 55.93 654.24 35.72 664.46 35.72 646.24 53.53 665.48 83.3 655.26 83.3 640.42 59.31 633.71 65.44 633.71 83.3 626.03 83.3 626.03 18.03"/>
    <path class="cls-1" d="M709.32,286.69h7.59v8.22c.63-1.6,2.15-3.55,4.58-5.84a11.85,11.85,0,0,1,8.4-3.44c.15,0,.4,0,.75,0l1.82.18v8.44a11.66,11.66,0,0,0-1.31-.18c-.4,0-.83,0-1.31,0q-6,0-9.28,3.88a13.62,13.62,0,0,0-3.25,9v27.37h-8Z" transform="translate(-37.39 -250.97)"/>
    <path class="cls-1" d="M748.06,327.08a9.42,9.42,0,0,0,6,2,18.13,18.13,0,0,0,8.17-2,11,11,0,0,0,6.67-10.62v-6.44a14,14,0,0,1-3.78,1.56,33.21,33.21,0,0,1-4.53.89l-4.84.62a18.47,18.47,0,0,0-6.54,1.82,7.1,7.1,0,0,0-3.68,6.66,6.59,6.59,0,0,0,2.53,5.47Zm16.84-21.64a4.38,4.38,0,0,0,3.69-2.31,7.09,7.09,0,0,0,.53-3.06q0-4.1-2.91-5.94t-8.33-1.84q-6.27,0-8.89,3.38a11.09,11.09,0,0,0-1.91,5.55h-7.46c.14-5.87,2-9.94,5.71-12.24a23.4,23.4,0,0,1,12.73-3.44q8.38,0,13.64,3.2t5.2,9.95V326.1a3.51,3.51,0,0,0,.51,2,2.46,2.46,0,0,0,2.15.76c.36,0,.76,0,1.2-.07s.92-.11,1.42-.2v5.91a21.33,21.33,0,0,1-2.84.66,20.37,20.37,0,0,1-2.67.14q-4.12,0-6-2.93a11.3,11.3,0,0,1-1.37-4.4,20.39,20.39,0,0,1-7,5.55,21.74,21.74,0,0,1-10.09,2.36,15,15,0,0,1-10.82-4,13.34,13.34,0,0,1-4.2-10.06q0-6.62,4.14-10.26A19.59,19.59,0,0,1,752.15,307Z" transform="translate(-37.39 -250.97)"/>
    <path class="cls-1" d="M798,278.25h-8V269h8v9.24Zm-15.55,68.07c3.58-.12,5.74-.44,6.46-1s1.09-2.14,1.09-4.86V286.91h8v54.43q0,5.21-1.69,7.78c-1.86,2.9-5.41,4.35-10.62,4.35-.38,0-.79,0-1.22,0l-2-.18Z" transform="translate(-37.39 -250.97)"/>
    <path class="cls-2" d="M78.15,358A54.45,54.45,0,0,1,39.1,318.9H78.15V358ZM39.1,291.73a54.44,54.44,0,0,1,39.05-39v39Zm66.22-39a54.44,54.44,0,0,1,39.05,39H105.32v-39Zm39.05,66.21A54.45,54.45,0,0,1,105.32,358V318.9Z" transform="translate(-37.39 -250.97)"/>
    <path class="cls-3" d="M105.32,252.69v39H78.15v-39a54.51,54.51,0,0,1,27.17,0ZM37.39,305.32H91.74v54.34A54.36,54.36,0,0,1,78.15,358V318.9H39.1a54.74,54.74,0,0,1-1.71-13.58Zm67.93,0h40.76a54.28,54.28,0,0,1-1.71,13.58H105.32Z" transform="translate(-37.39 -250.97)"/>
    <path class="cls-4" d="M37.39,305.32H91.74v54.34A54.28,54.28,0,0,0,105.32,358V305.32h40.76a54.82,54.82,0,0,0-1.71-13.59H39.1a54.82,54.82,0,0,0-1.71,13.59Z" transform="translate(-37.39 -250.97)"/>
</svg>