<svg width="191.705" height="52.747" viewBox="0 0 50.722 13.956"
    xmlns="http://www.w3.org/2000/svg">
    <defs>
        <clipPath id="a">
            <path transform="matrix(1 0 0 -1 0 595.276)" d="M219.449 337.446h143.779v39.561H219.449Z"/>
        </clipPath>
    </defs>
    <g clip-path="url(#a)" transform="matrix(.35278 0 0 .35278 -77.417 -77)">
        <path d="M272.243 228.686c-.503 0-.718.189-.718.716v3.8c0 .527.239.717.718.717h1.338c1.697 0 2.772-1.1 2.772-2.605 0-1.721-1.003-2.628-2.7-2.628Zm1.433-2.726c3.347 0 5.57 1.889 5.57 5.329 0 3.179-2.2 5.355-5.689 5.355h-1.314c-.503 0-.718.215-.718.716v5.236c0 .43-.215.622-.621.622h-1.65c-.382 0-.621-.168-.621-.622v-16.014c0-.453.216-.622.621-.622zM284.431 238.15c-1.219 0-1.983.527-1.983 1.53 0 .859.501 1.506 1.625 1.506.788 0 1.578-.381 2.055-.862.287-.238.406-.643.406-.98v-.787c0-.288-.119-.407-.406-.407Zm2.941 5.068c-.31 0-.502-.12-.597-.383l-.074-.238c-.094-.24-.309-.312-.525-.145-.836.55-1.84 1.004-3.108 1.004-1.936 0-3.394-1.505-3.394-3.632 0-2.821 1.793-3.945 5.521-3.945h.981c.24 0 .358-.118.358-.358v-.358c0-1.195-.478-1.96-1.793-1.96-1.05 0-2.175.38-3.132.884-.31.168-.644.073-.812-.334l-.478-1.03c-.12-.261-.07-.62.263-.788 1.267-.67 2.845-1.218 4.518-1.218 3.227 0 4.207 1.959 4.207 4.899v6.98c0 .43-.19.622-.62.622zM292.079 231.602c0-.43.214-.647.62-.647h1.435c.43 0 .622.239.694.647l.07.693c.048.262.336.285.456.095.668-.957 1.625-1.673 2.963-1.673.263 0 .455.192.455.477v1.746c0 .335-.145.55-.551.55h-.382c-1.601 0-2.99 1.457-2.99 3.226v5.88c0 .43-.213.622-.62.622h-1.53c-.454 0-.62-.24-.62-.622zM303.049 239.13c0 1.266.598 1.912 1.673 1.912.622 0 1.53-.334 1.984-.766.287-.261.407-.573.407-.955v-4.47c0-.383-.12-.691-.407-.932-.454-.43-1.362-.763-1.984-.763-1.075 0-1.673.62-1.673 1.887Zm-2.772-4.9c0-2.055 1.433-3.513 3.44-3.513 1.197 0 2.367.572 2.893.931.145.098.503.145.503-.238v-4.827c0-.383.166-.622.62-.622h1.53c.478 0 .622.262.622.622v16.013c0 .358-.144.622-.621.622h-1.315c-.31 0-.502-.119-.598-.383l-.072-.239c-.095-.238-.31-.31-.524-.143-.671.453-1.841 1.003-3.037 1.003-2.008 0-3.441-1.458-3.441-3.513zM322.265 242.596c0 .358-.143.622-.62.622h-1.315c-.311 0-.503-.12-.598-.382l-.074-.24c-.095-.238-.31-.31-.525-.143-.668.454-1.839 1.004-3.036 1.004-2.008 0-3.44-1.46-3.44-3.515v-8.34c0-.408.166-.648.619-.648h1.532c.454 0 .62.24.62.648v7.528c0 1.266.6 1.913 1.673 1.913.621 0 1.53-.334 1.986-.766.284-.262.406-.573.406-.956v-7.72c0-.407.165-.647.62-.647h1.531c.454 0 .621.24.621.648ZM331.872 235.042c0-1.266-.598-1.887-1.674-1.887-.62 0-1.53.335-1.983.764-.288.24-.407.55-.407.932v4.47c0 .382.119.694.407.955.454.432 1.363.766 1.983.766 1.076 0 1.674-.646 1.674-1.913Zm-6.215 8.176c-.453 0-.621-.264-.621-.623v-16.013c0-.36.168-.622.62-.622h1.53c.455 0 .622.24.622.622v4.827c0 .383.36.336.5.238.552-.358 1.7-.93 2.894-.93 2.009 0 3.442 1.458 3.442 3.512v5.713c0 2.056-1.433 3.514-3.442 3.514-1.193 0-2.342-.55-3.034-1.004-.216-.167-.431-.095-.527.143l-.071.24c-.095.264-.288.383-.596.383ZM339.95 242.596c0 .382-.169.622-.622.622h-1.529c-.454 0-.622-.24-.622-.622v-10.994c0-.408.168-.648.622-.648h1.529c.453 0 .622.24.622.648Zm-1.388-16.612c1.075 0 1.745.67 1.745 1.746 0 1.075-.67 1.744-1.745 1.744-1.074 0-1.745-.67-1.745-1.744 0-1.076.671-1.746 1.745-1.746M347.334 230.717c2.748 0 4.326 1.624 4.518 4.11.024.407-.166.647-.597.647h-1.46c-.453 0-.62-.145-.67-.432-.214-1.243-.86-1.91-1.791-1.91-1.6 0-2.318 1.29-2.318 3.967 0 2.652.718 3.943 2.318 3.943.93 0 1.577-.647 1.792-1.912.049-.285.216-.43.67-.43h1.459c.43 0 .62.262.597.645-.192 2.486-1.77 4.111-4.518 4.111-3.656 0-5.09-2.365-5.09-6.357 0-4.017 1.434-6.382 5.09-6.382M356.917 236.023h2.942c.358 0 .5-.167.5-.501 0-1.507-.763-2.391-1.911-2.391-1.244 0-2.008 1.029-2.008 2.39 0 .335.144.502.477.502m-.023 2.27c-.285 0-.454.169-.407.552.215 1.337 1.268 2.127 2.392 2.127 1.003 0 1.888-.48 2.7-.885.358-.17.645-.025.814.332l.454 1.03c.144.358.023.646-.36.836-.98.526-2.198 1.172-3.8 1.172-2.891 0-5.14-1.82-5.14-6.263 0-4.637 2.08-6.477 5.118-6.477 3.128 0 4.563 2.199 4.563 6.095v.908c0 .357-.262.573-.598.573z" fill="#ed1c24"/>
        <path d="M257.823 232.276c.123 1.316.178 2.34.178 3.321 0 2.464-.38 4.643-1.166 6.661-.985 2.531-2.594 4.843-4.918 7.07-5.465 5.238-13.015 8.43-13.09 8.461l-.102.04-.1-.04c-.076-.032-7.625-3.223-13.09-8.46-2.325-2.228-3.933-4.54-4.918-7.07-.786-2.019-1.168-4.198-1.168-6.662 0-.98.055-2.005.178-3.32.575-6.08 2.528-12.583 2.914-13.825l.056-.184h32.257l.056.184c.386 1.241 2.34 7.737 2.913 13.824" fill="#ed1c24" fill-rule="evenodd"/>
        <path d="M232.513 230.734c-.004.018-.005.008-.012.035-.05.186-.085.387-.29.618-.178.201-.294.243-.469.206-.175-.036-.262-.185-.262-.185s.026-.01.206-.154c.18-.145.211-.361.211-.361-.138.208-.356.299-.52.283-.235-.023-.454-.119-.665-.443-.21-.326-.098-.597-.073-.67.028-.071.037-.119-.01-.134a.063.063 0 0 0-.07.021s-.062-.078-.069-.289a.905.905 0 0 1 .14-.526c.06-.104.133-.162.216-.184a.525.525 0 0 1 .165 0c.154.03.3.097.536.262.236.166.387.366.387.366s-.113.292-.024.593a.97.97 0 0 0 .243.366.954.954 0 0 0 .36.196" fill="#fff" fill-rule="evenodd"/>
        <path d="M232.374 230.517c-.09-.052-.203-.148-.296-.365a.687.687 0 0 1-.005-.516c.031-.074.04-.083.02-.117s-.057-.08-.088-.12c-.224-.272-.565-.498-.808-.556a.746.746 0 0 0-.358-.013s-.053.013-.098.03c.035-.073.141-.267.34-.35.063-.087.147-.23.184-.3a4.69 4.69 0 0 0 .345-.872 6.4 6.4 0 0 1 .381-.987c.114-.231.306-.53.382-.612a.592.592 0 0 0 .152-.455l-.002-.023c-.014-.148-.025-.254.017-.433.04-.174.111-.32.36-.553.277-.262.468-.458.56-.626.07-.132.104-.19.17-.353 0 0-.559.093-.848-.232-.1-.113-.173-.281-.19-.514a1.4 1.4 0 0 1 .045-.478c.04-.138.103-.263.174-.352 0 0-.207.656.235.852.324.143.665-.062.823-.234.068-.073.146-.174.234-.28l-.01-.01v.002c-.03-.03-.364-.265-.419-.592-.056-.325-.05-.621-.075-.745-.026-.123-.11-.3-.14-.37-.032-.068-.03-.125.042-.176.072-.052.158-.086.318.01.157.097.293.27.412.396.118.126.298.24.45.343.27.183.463.289.534.32a8.144 8.144 0 0 1-.047-.418 23.994 23.994 0 0 0-.065-.6.617.617 0 0 0-.06-.19c-.045-.091-.078-.187-.11-.268-.03-.083-.06-.203.045-.271.11-.067.256-.072.42.037.162.107.27.284.434.365.164.08.521.294.88.734.214.265.356.583.407.89l.148-.024h-.002s.326-.095.533-.227c.244-.154.442-.415.6-.64.16-.222.618-.856 1.42-.98.682-.101.79 0 1.05-.097.261-.1.292-.107.292-.107s-.15.313-.376.464c-.229.15-.61.234-.918.646-.114.15-.232.378-.232.378s.52-.523 1.2-.708c.68-.186 1.38-.068 1.807 0 .425.068.854.182 1.295.017.335-.127.38-.127.38-.127s-.185.23-.34.523c-.154.292-.306.55-.735.733-.407.176-.523.195-.523.195s.461.064.832.06c.372-.003.708-.075 1.127-.137.418-.063 1.163-.178 1.661.013.5.193.73.396.73.396s-.51-.041-.99.404c-.313.292-.554.602-.762.712a5.42 5.42 0 0 1-.417.195s.358.08 1.07.47c.518.285.925.449 1.14.482.436.067.8.038 1.173-.141.202-.096.26-.096.26-.096s-.382.319-.533.807c-.068.215-.392.708-.81.91-.33.159-.723.114-.723.114s.477.1 1.11.776c.631.676.86.718 1.24.806.381.09.645.018.78-.023 0 0-.427.525-.7.8-.275.274-.706.708-1.53.579-.47-.076-.547-.177-.807-.26-.26-.081-.405-.113-.642-.106 0 0 .351.16.85.72.496.56.771.643 1.134.744.365.1.86-.036 1.085-.062a1.82 1.82 0 0 1 .46.01s-.226.027-.528.423c-.3.394-.743 1.104-1.563 1.245-.748.132-1.689-.301-1.689-.301s.423.549.78.734c.357.187.89.229 1.191.18.232-.038.314-.038.314-.038s-.159.038-.41.312c-.25.275-.587.526-1.038.587-.373.052-.843.02-1.112-.156-.255-.168-.437-.371-.516-.666-.045-.172-.05-.334-.07-.492-.052-.391-.033-1.16-.04-1.401-.062-2.19-.575-3.227-.769-3.667-.629-1.423-1.773-2.541-2.613-3.144-.84-.602-1.315-.818-1.93-1.035a8.905 8.905 0 0 0-1.183-.334s.488.186 1.166.509c1.235.587 1.891 1.236 2.607 1.912a7.178 7.178 0 0 1 1.586 2.25c.5 1.124.587 2.329.613 2.737.026.407.042 1.813.087 2.41.046.598.316.943.607 1.294.29.35.836.636.836.636-.646.34-1.504.79-2.709 1.043-1.939.407-3.724.166-5.476-.633-.745-.341-1.338-.824-1.338-.824.371-.534.765-.964 1.165-1.61.6-.97.578-1.611.464-2.177-.112-.567-.66-.877-.66-.877.834-.57 1.32-1.708.785-2.874-.18-.393-.36-.468-.36-.468.19.422.34.724.281 1.326-.083.846-.537 1.732-1.405 1.939a2.032 2.032 0 0 1-1.062 0c-.4-.102-.793-.288-.793-.288s.072.077.33.263c.35.25.66.314.66.314-.16.18-.305.289-.706.53-.402.242-.615.335-.82.387-.205.05-.136.33-.134.517.003.19.04.317-.03.513-.062.163-.075.146-.075.146-.112-.125-.402-.523-.402-.523.037-.063.091-.14.111-.255a.732.732 0 0 0-.057-.47.374.374 0 0 0-.206-.193c.183.274.165.43.146.573a.672.672 0 0 1-.2.374s.692.959 1.1 1.456c.407.497.884.996 1.64 1.607.755.61 2.805 1.927 5.816 1.779 1.21-.06 2.301-.415 3.134-.786 1.001-.445 3.07-1.791 3.07-1.791.766-.473 3.285-1.98 4.564-.908.307.259.482.603.504.997.03.509-.205.95-.623 1.394-.417.442-1.642 1.005-2.737 1.107 0 0-.955.127-1.828.033-.183-.2-.37-.448-.37-.448.14.02.408.028.408.028.402.022 1.122-.043 1.122-.043.563-.07 1.415-.177 2.206-.562.598-.292 1.05-.758 1.175-1.216a.9.9 0 0 0-.109-.753c-.24-.37-1.048-.551-2.248-.071-.509.204-.799.34-1.412.698-.269.155-2.44 1.48-3.453 1.943-1.963.896-3.77 1.279-5.5.938-1.733-.34-2.87-.943-3.845-1.767-.974-.824-1.458-1.391-2.107-2.257-.436-.582-.707-1.057-.789-1.18-.033-.05-.153-.006-.292-.02a.808.808 0 0 1-.343-.123" fill="#fff" fill-rule="evenodd"/>
        <path d="M234.252 231.094c1.181 1.087 2.211 1.459 2.211 1.459a30.59 30.59 0 0 1-.418.599s-.564-.428-1.055-.925c-.467-.471-.858-.982-.858-.982a.896.896 0 0 0 .12-.151M253.803 241.376c-.154 1.816-.72 3.172-2.102 4.411-1.188 1.064-2.927 1.81-5.154 1.98-1.682.131-3.207-.26-3.7-.397-.496-.138-.869-.224-1.183-.244a1.273 1.273 0 0 0-.479.081c-.016 0-.03-.003-.045-.004h-.192a1.049 1.049 0 0 1-.103.175c-.247.331-.582.771-1.483.762-.959-.01-1.314-.082-1.314-.082s-.035.005-.139.046c-.103.043-.669.325-1.653.237a13.334 13.334 0 0 1-2.478-.473c-.646-.187-.84-.23-1.038-.123-.08.041-.12.124-.085.24a8.9 8.9 0 0 0 .555 1.407c.202.408.491.814.831 1.076.34.263.631.455.7.94.046.323-.19.55-.19.55s.18.148.37.148c.191 0 .587-.205.778-.256.191-.052.53-.128.78.422 0 0 .308.15.472.272.164.124.314.367.29.872a12.168 12.168 0 0 1-.295 2.101c-.015.071-.082.026-.118.006-.037-.022-1.346-.943-1.427-1l-.146-.103s-.354.13-.669-.248c-.314-.375-.52-.71-.825-.895-.302-.186-.91-.366-1.168-.609-.26-.244-.408-.53-.609-1.04-.2-.51-.597-1.57-.762-1.92a8.926 8.926 0 0 0-.752-1.273c-.289-.398-.325-.578-.315-.944.011-.365.181-.767.434-1.066 0 0 .025-.44.334-.716.31-.279.727-.427 1.737-.53 1.01-.104 1.66-.299 2.252-.625.058-.03.188-.116.223-.16.035-.045-.03-.049-.297.11-.084.055-.69.22-1.343.113a3.744 3.744 0 0 1-2.03-1.026c-.5-.498-1.253-1.328-1.613-2.07-.36-.742-.608-1.664-.763-2.08-.154-.418-.319-.888-.612-1.156-.294-.268-.706.124-.83.222a7.011 7.011 0 0 0-1.026 1.004c-.097.123-.247.294-.252.402a5.015 5.015 0 0 1-.155.825c-.076.236-.278.441-.509.447a.97.97 0 0 1-.388-.062s.037.202.351.486c.315.283.546.597.49.876-.056.276-.233.36-.32.417 0 0-.03.226-.036.34a.712.712 0 0 1-.44.605c-.238.103-.797.278-1.965.49-.332.06-.458.035-.458.035s-.03-.02-.016-.082c.016-.06.366-1.357.396-1.492.031-.134.088-.206.088-.206s-.327-.255-.155-.659c.175-.412.36-.654.418-1.036.057-.38.031-.763.231-1.21.201-.448.521-.664.861-.965.34-.297.784-.679 1.102-1.014.321-.335.717-1.102 1.14-1.462.421-.36.895-.459 1.307-.393 0 0 .092.022.16-.019.068-.042.361-.3.8-.104.464.208.74.67 1.03.97.288.298.421.52 1.576 1.106.728.37 1.174.726 1.46 1.027a2.09 2.09 0 0 1 .545-.58c.228-.16.506-.225.54-.23.044-.006.044.06.044.06.041.446.15.96.19 1.046a.626.626 0 0 0 .113.121c-.193-1.059-.152-1.628-.096-2.138.074-.673.142-.989.291-1.45a5.275 5.275 0 0 1 .665-1.379c.658.62 1.576 1.314 2.615 1.705 1.535.577 3.306.577 4.946.062 1.364-.429 2.407-.855 3.48-1.528l.071.082s.326.371.723.837c.516.608 1.09.73 2.021.846 1.42.175 2.513.271 3.286 1.112.705.766 1.154 2.535 1.032 3.977M232.897 230.807c.02.038.24.514.348.68 0 0 .017.052-.142.056-.157.002-.311-.08-.35-.144a.526.526 0 0 1-.057-.279c0-.15.056-.344.056-.344s.04.006.097.004c0 0 .027-.011.048.027" fill="#fff" fill-rule="evenodd"/>
        <path d="M236.503 224.033c-.02.014-.041.026-.056.014-.069-.051-.185-.134-.25-.188a11.404 11.404 0 0 0-.674-.507c-.816-.58-1.166-.451-1.637-.347l-.038-.005c.45-.29.935-.322 1.848.334.122.087.667.5.737.554.017.015.028-.001.048-.011a.651.651 0 0 1 .319-.083.722.722 0 0 1 .273.04c.015.005.286-.45.409-.727.138-.312.233-.705.084-1.047 0 0 .265.29.094.844-.112.365-.31.777-.54 1.083-.004.006-.01.012-.022.007 0 0-.112-.062-.275-.056a.642.642 0 0 0-.32.095M242.685 220.858s-.22-.057-.744-.028c-.62.035-.97.201-1.317.412-.353.215-.522.461-.733.601-.208.137-.435.238-.435.238.44-.054.71-.318.86-.433.562-.44.886-.578 1.236-.665.352-.085 1.133-.125 1.133-.125M243.834 222.531c.613-.019.943-.259.943-.259a3.715 3.715 0 0 1-1.122.155c-.277-.004-.663-.03-1.16.172a2.151 2.151 0 0 0-.686.463c-.1.101-.13.166-.13.166s.123-.087.333-.229c.142-.095.278-.179.46-.259.46-.206.747-.192 1.362-.209M245.97 224.732c.364.069.579.013.579.013s-.268 0-.532-.057c-.264-.06-.748-.313-1.203-.306a1.988 1.988 0 0 0-1.071.333c-.256.169-.35.35-.35.35s.203-.171.396-.268a2.293 2.293 0 0 1 1.05-.278c.433-.025.766.144 1.13.213M246.05 227.026c.447.051.987.428 1.28.54.298.112.528.106.528.106s-.298-.05-.573-.199c-.276-.148-.6-.385-1.034-.51a1.979 1.979 0 0 0-1.158.008c-.362.12-.498.236-.498.236s.14-.026.354-.098c.343-.117.65-.134 1.1-.083M246.692 230.385c.162.065.33.108.455.11a.95.95 0 0 0 .398-.077s-.094-.002-.206-.002a1.72 1.72 0 0 1-.587-.113 1.82 1.82 0 0 1-.609-.382c-.123-.124-.328-.306-.618-.367-.287-.062-.563.013-.563.013s.274-.017.623.114c.15.057.283.146.41.252.08.068.272.281.697.452M231.026 230.354c-.021.222.222.376.386.376.166 0 .299-.154.187-.454-.114-.298-.417-.432-.455-.443-.035-.01-.087.047-.087.047s-.03.034.02.042c.036.004.048.004.13.056.082.052.117.139.117.139-.086-.032-.277.015-.298.237M233.354 225.625s-.01.04.021.152a.587.587 0 0 0 .993.178c.146-.17.117-.41.117-.41.038-.002.166 0 .25-.054a.522.522 0 0 0 .19-.242c.036-.09.02-.202.02-.202s-.025.06-.083.135a.436.436 0 0 1-.256.17.472.472 0 0 1-.293-.064c-.007-.013-.022-.004-.047.005-.024.008-.03.02-.03.02a.8.8 0 0 0 .02.194.347.347 0 0 1-.162.273c-.104.07-.18.07-.18.07.096-.22.096-.346.096-.44-.004-.104-.063-.14-.063-.14s-.072-.05-.206-.04c-.189.015-.28.16-.312.19-.032.028-.08.056-.205.05-.127-.005-.248-.043-.248-.043s.026.038.11.108c.086.069.268.09.268.09" fill="#ed1c24" fill-rule="evenodd"/>
        <path d="M233.728 224.832a.422.422 0 0 0-.35.235c-.04.1-.07.244-.07.244-.004.016.034.014.034.014s.035-.082.12-.183c.13-.16.323-.194.51-.16.14.027.261.074.261.074s.031.025.04-.001c.001-.011-.02-.027-.02-.027s-.036-.03-.099-.068c-.107-.066-.242-.147-.426-.128M234.929 227.738c.439-.57.85-1.19 1.244-1.792.116-.177.24-.362.352-.541 0 0 .029-.052.062-.093.02-.027.129-.004.188.007.276.048.569-.115.699-.307.285-.422.073-.784-.015-.866-.001 0-.003-.014 0-.021.003-.007.018-.027.018-.027.136-.177.23-.394.333-.617.127-.28.213-.578.217-.858a.916.916 0 0 0-.407-.76s.339.327.28.866c-.048.456-.326 1.03-.598 1.409l.035.047c.099.11.24.467.012.765a.635.635 0 0 1-.802.186l-.153.236a36.827 36.827 0 0 1-1.142 1.721 20.42 20.42 0 0 1-.73.975c-.215.272-.66.806-.983 1.178-.155.176-.217.26-.217.26s.086.007.227-.143c0 0 .793-.865 1.38-1.625M244.874 246.613c.886.135 2.573.17 4.379-.545 1.64-.652 2.575-1.701 2.575-1.701-.722.69-2.45 1.569-3.472 1.802-1.558.358-2.78.288-4.274.125-1.442-.158-1.742.082-1.742.082.69-.144 1.647.103 2.534.237M243.823 242.718c.736-.842.761-1.978.761-1.978s-.104.263-.303.82c-.2.556-.558 1.02-.879 1.344-.515.515-1.335.948-1.335.948s.854-.102 1.756-1.134M238.094 246.108c-.279.258-.598.442-1.52.572-.922.13-1.989.036-2.164.031-.129-.005-.205.052-.205.052s1.36.18 2.528.092c1.335-.1 1.66-.467 1.835-.733.174-.26.231-.589-.196-.859-.427-.268-1.18-.242-1.18-.242.062.093.155.077.155.077.293.036.587.13.82.325.23.195.205.428-.073.685M231.908 247.423c-.026.034-.063.133-.094.194a.782.782 0 0 1-.342.352c-.078.04-.158.033-.26.028.005 0-.012.038-.012.038.244.171.413.448.503.655.237.55.396.89.522 1.124.07.131.127.216.179.277.043.051.08.06.08.06-.586-1.254-.605-1.746-.637-2.042-.044-.406.094-.69.094-.69s-.03.005-.033.004M232.86 242.161c-.336.031-.573-.185-1.046-.758-.474-.57-.928-1.344-1.154-1.74-.227-.398-.448-.736-.448-.736s.17.406.418.937c.246.53.483.995.782 1.495.299.5.81 1.22 1.314 1.224.504.006.79-.412.763-.983-.027-.52-.463-1.124-.463-1.124.189.445.287.784.278 1.077-.012.315-.142.582-.444.608M227.148 237.216l-.054.007c-.042.253-.144.37-.278.543-.135.17-.35.384-.534.579l-.727.764s.67-.567.836-.723c.452-.426.742-.6.971-.693.213-.085.421-.063.421-.063l.024-.066a.708.708 0 0 1-.432-.06c-.164-.081-.227-.288-.227-.288M233.434 238.587a.758.758 0 0 0-.144.184s.373.343.744.998c.3.532.407.973.407.973a3.286 3.286 0 0 0-.27-.999c-.146-.335-.316-.716-.737-1.156M244.34 237.26c.394.399.697 1.065.712 1.175.012.11.061.11.061.11 0-.024-.018-.293-.158-.624-.134-.32-.38-.696-.686-.928-.623-.471-1.073-.512-1.073-.512a.259.259 0 0 0 .125.086c.388.142.683.354 1.018.694M236.278 221.696c-.15-.029-.314-.148-.456-.393-.135-.224-.227-.58-.27-.779a.461.461 0 0 0-.11-.23s.032.107.042.155c.026.13.045.321.078.55.035.23.065.326.227.56.162.232.464.311.598.25.134-.062.13-.179.13-.179-.02.024-.092.092-.24.066" fill="#ed1c24" fill-rule="evenodd"/>
        <path d="M233.327 229.049c.081-.09.264-.292.393-.44.344-.397.672-.81.994-1.222.57-.73 1.13-1.635 1.637-2.408 0 0-.043-.06-.095-.155-.056-.102-.059-.274-.034-.403.01-.047.043-.12.043-.12.03-.065-.068-.14-.11-.181-.043-.04-.164-.137-.229-.195-.603-.547-1.23-.891-1.869-.902 0 0 .83.154 1.683.888 0 0 .313.28.336.305.015.015.017.01.043.039.01.01.015.035.004.07-.005.015-.045.094-.049.277a.51.51 0 0 0 .115.353s.011.035-.007.063c-.018.027-1.127 1.772-1.738 2.557a31.12 31.12 0 0 1-.95 1.164c-.118.137-.24.269-.36.404 0 0-.028.028-.046.015a.737.737 0 0 0-.337-.094.722.722 0 0 0-.339.049c-.01.005-.026-.012-.026-.012s-.225-.254-.425-.406c-.304-.227-.496-.263-.55-.271-.054-.007-.076.028-.076.028-.058.05-.034.062-.003.068.05.01.086.003.24.077.24.11.343.209.457.315.194.18.298.292.322.319.042.046.075.042.097.032.035-.016.065-.032.194-.052.127-.02.254.018.283.026a.75.75 0 0 1 .138.05c.006.003.025.014.04.005.06-.036.16-.17.224-.243M235.433 221.93c.18.137.302.15.41.15.184 0 .268-.067.268-.067-.198.04-.574-.088-.756-.41a1.087 1.087 0 0 1-.14-.372c-.025-.012-.16-.086-.16-.086-.002.013.058.275.062.289.05.187.21.406.316.496M237.462 233.25c-.025.028-.031.042-.014.051.016.01.033.004.033.004s.61-.634 1.075-1.303c1.01-1.452 1.75-2.854 1.337-4.553-.41-1.7-1.816-2.885-1.816-2.885-.013.027.082.124.082.124s.599.724 1.052 1.58c.7 1.316.662 2.336.347 3.502-.337 1.245-1.72 3.05-2.096 3.48M241.134 247.527c.216-.323.368-1.204.41-1.521.041-.32.126-.456.342-.884.237-.477.184-.894.184-.894-.148.533-.248.707-.442.995a2.512 2.512 0 0 0-.367.8c-.065.25-.105.65-.318 1.198ZM235.521 254.17a.205.205 0 0 0 .073-.03c.14-.116.395-.411.577-.724.21-.358.332-.634.36-.706.065-.17.104-.263.112-.36.008-.076-.17-.16-.164-.086.008.069-.054.256-.08.332-.028.07-.17.422-.35.793-.184.374-.423.69-.54.78ZM223.656 242.62c.057.005.081 0 .217.005.271.009.761.045 1.284.172.225.052.552.176.686.265l-.003-.111.005-.047c-.659-.365-1.597-.36-2.002-.337-.125.007-.138.01-.2.015-.062.007-.043.036.013.039M237.108 241.793c-.999.397-1.45.895-1.735 1.25-.37-1.009-.186-1.995-.096-2.402a5.22 5.22 0 0 1 1.572-2.718c.792-.708 1.714-1.079 1.714-1.079-1.107.284-1.86.903-2.55 1.665-.69.763-.964 1.478-1.165 2.21-.2.73-.186 1.237-.036 1.993.037.19.095.36.16.51.001.01 0 .015.002.028.186.712-.16 1.3-.16 1.3l.124-.023s.146-.056.235-.17c.065-.08.15-.349.192-.495l.004.004c.314-.884 1.092-1.37 1.314-1.519.698-.472 1.547-.699 2.565-.495.771.155 1.308.52 1.308.52-1.133-.95-2.448-.976-3.448-.579M237.418 221.431a.864.864 0 0 1-.3.075c.037.255-.023.473-.12.646a.627.627 0 0 1-.481.325c-.17.02-.314-.039-.272.005.039.043.132.078.225.09a.693.693 0 0 0 .635-.226 1.32 1.32 0 0 0 .314-.915" fill="#ed1c24" fill-rule="evenodd"/>
    </g>
</svg>