<svg width="191.703" height="52.747" viewBox="0 0 50.722 13.956"
    xmlns="http://www.w3.org/2000/svg">
    <defs>
        <clipPath id="a">
            <path transform="matrix(1 0 0 -1 0 595.276)" d="M220.474 136.186h143.778v39.561H220.474Z"/>
        </clipPath>
    </defs>
    <g clip-path="url(#a)" transform="matrix(.35278 0 0 .35278 -77.778 -148)">
        <path d="M273.268 429.946c-.503 0-.718.189-.718.716v3.8c0 .527.239.717.718.717h1.338c1.697 0 2.773-1.1 2.773-2.605 0-1.721-1.004-2.628-2.701-2.628Zm1.434-2.726c3.346 0 5.57 1.889 5.57 5.329 0 3.179-2.201 5.355-5.69 5.355h-1.314c-.503 0-.718.215-.718.716v5.236c0 .43-.215.622-.621.622h-1.65c-.382 0-.62-.168-.62-.622v-16.014c0-.454.215-.622.62-.622zM285.456 439.41c-1.22 0-1.984.526-1.984 1.53 0 .858.5 1.505 1.625 1.505.789 0 1.579-.382 2.056-.862.287-.238.406-.643.406-.979v-.788c0-.288-.12-.407-.406-.407Zm2.94 5.067c-.311 0-.501-.119-.597-.383l-.073-.238c-.095-.239-.31-.312-.526-.145-.835.55-1.84 1.004-3.108 1.004-1.935 0-3.393-1.505-3.393-3.632 0-2.822 1.793-3.945 5.52-3.945h.98c.24 0 .36-.119.36-.358v-.358c0-1.195-.478-1.96-1.793-1.96-1.051 0-2.175.381-3.132.884-.31.168-.644.073-.812-.334l-.48-1.029c-.118-.262-.07-.62.265-.789 1.267-.669 2.845-1.218 4.518-1.218 3.227 0 4.207 1.96 4.207 4.9v6.98c0 .43-.191.621-.621.621zM293.104 432.862c0-.43.214-.647.62-.647h1.434c.43 0 .623.239.695.647l.07.693c.048.262.335.285.455.095.669-.957 1.625-1.673 2.964-1.673.263 0 .454.192.454.477v1.746c0 .335-.144.55-.551.55h-.381c-1.601 0-2.99 1.457-2.99 3.226v5.88c0 .43-.213.622-.62.622h-1.53c-.454 0-.62-.24-.62-.622zM304.073 440.39c0 1.266.598 1.912 1.673 1.912.622 0 1.53-.334 1.984-.766.288-.261.407-.573.407-.955v-4.47c0-.383-.119-.691-.407-.932-.454-.43-1.362-.764-1.984-.764-1.075 0-1.673.62-1.673 1.888Zm-2.772-4.9c0-2.055 1.433-3.513 3.441-3.513 1.196 0 2.366.573 2.893.93.144.099.502.146.502-.237v-4.828c0-.382.166-.621.622-.621h1.53c.477 0 .62.262.62.62v16.015c0 .358-.143.622-.62.622h-1.315c-.31 0-.503-.12-.599-.383l-.072-.24c-.095-.237-.31-.31-.524-.142-.67.453-1.84 1.003-3.037 1.003-2.008 0-3.44-1.458-3.44-3.513zM323.29 443.856c0 .359-.142.622-.62.622h-1.316c-.31 0-.502-.12-.598-.382l-.073-.24c-.095-.238-.31-.31-.525-.143-.668.454-1.839 1.004-3.036 1.004-2.008 0-3.44-1.46-3.44-3.515v-8.34c0-.408.165-.647.618-.647h1.532c.454 0 .621.239.621.647v7.528c0 1.266.6 1.913 1.673 1.913.621 0 1.53-.334 1.986-.766.285-.262.406-.573.406-.955v-7.72c0-.408.165-.647.621-.647h1.53c.454 0 .621.239.621.647ZM332.897 436.302c0-1.266-.6-1.887-1.674-1.887-.62 0-1.53.335-1.983.764-.29.24-.408.55-.408.932v4.47c0 .382.119.694.408.955.454.432 1.363.766 1.983.766 1.075 0 1.673-.646 1.673-1.913Zm-6.215 8.176c-.453 0-.621-.264-.621-.623v-16.013c0-.36.168-.622.62-.622h1.53c.453 0 .62.24.62.622v4.827c0 .383.361.336.502.238.551-.358 1.7-.93 2.893-.93 2.01 0 3.442 1.458 3.442 3.512v5.713c0 2.056-1.433 3.514-3.442 3.514-1.193 0-2.342-.55-3.034-1.004-.216-.167-.43-.095-.528.143l-.07.24c-.094.264-.287.383-.596.383ZM340.975 443.856c0 .382-.17.622-.622.622h-1.53c-.454 0-.621-.24-.621-.622v-10.994c0-.408.167-.647.62-.647h1.53c.454 0 .623.239.623.647Zm-1.388-16.612c1.075 0 1.745.67 1.745 1.746 0 1.075-.67 1.744-1.745 1.744-1.074 0-1.745-.67-1.745-1.744 0-1.076.67-1.746 1.745-1.746M348.358 431.977c2.748 0 4.327 1.624 4.518 4.109.024.408-.166.648-.596.648h-1.46c-.454 0-.62-.145-.67-.432-.214-1.243-.861-1.911-1.791-1.911-1.6 0-2.318 1.29-2.318 3.968 0 2.652.718 3.943 2.318 3.943.93 0 1.577-.647 1.792-1.912.048-.285.215-.431.67-.431h1.458c.431 0 .621.263.597.646-.192 2.486-1.77 4.111-4.518 4.111-3.656 0-5.09-2.365-5.09-6.357 0-4.017 1.435-6.382 5.09-6.382M357.942 437.282h2.94c.36 0 .502-.167.502-.502 0-1.506-.765-2.39-1.912-2.39-1.243 0-2.007 1.03-2.007 2.39 0 .335.144.502.477.502m-.023 2.27c-.286 0-.454.168-.407.552.215 1.337 1.268 2.127 2.392 2.127 1.003 0 1.887-.479 2.7-.886.358-.168.645-.024.813.333l.455 1.03c.144.358.022.646-.36.836-.98.526-2.198 1.172-3.8 1.172-2.891 0-5.14-1.819-5.14-6.263 0-4.637 2.08-6.477 5.118-6.477 3.128 0 4.562 2.2 4.562 6.095v.908c0 .357-.262.573-.597.573Z" fill="#fff"/>
        <path d="M258.848 433.536c.123 1.316.178 2.34.178 3.321 0 2.464-.381 4.643-1.166 6.661-.986 2.531-2.594 4.843-4.918 7.07-5.465 5.238-13.015 8.43-13.09 8.461l-.102.04-.101-.04c-.075-.032-7.624-3.223-13.091-8.46-2.323-2.228-3.931-4.54-4.916-7.07-.786-2.019-1.168-4.198-1.168-6.662 0-.98.055-2.005.178-3.32.575-6.08 2.527-12.583 2.913-13.825l.057-.184h32.257l.056.184c.386 1.241 2.339 7.737 2.913 13.824" fill="#fff" fill-rule="evenodd"/>
        <path d="M233.538 431.994c-.004.018-.005.008-.011.035-.051.186-.085.387-.29.618-.18.2-.294.243-.47.206-.174-.035-.262-.185-.262-.185s.026-.011.207-.154c.18-.144.21-.361.21-.361-.138.208-.356.299-.52.283-.234-.023-.454-.118-.665-.443-.21-.326-.098-.597-.073-.67.028-.071.037-.12-.01-.134-.045-.015-.071.02-.071.02s-.061-.077-.067-.29a.894.894 0 0 1 .139-.524c.06-.104.133-.162.216-.184a.526.526 0 0 1 .165 0c.155.03.3.097.536.262.237.166.387.366.387.366s-.112.292-.024.593a.96.96 0 0 0 .244.366.951.951 0 0 0 .359.196" fill="#fff" fill-rule="evenodd"/>
        <path d="M233.399 431.776c-.09-.052-.203-.148-.296-.365a.687.687 0 0 1-.005-.516c.03-.074.039-.083.02-.117a1.092 1.092 0 0 0-.088-.119c-.224-.273-.565-.498-.808-.557a.746.746 0 0 0-.358-.013s-.052.013-.098.03c.035-.073.14-.267.339-.349.064-.088.148-.229.185-.3a4.69 4.69 0 0 0 .345-.873 6.4 6.4 0 0 1 .38-.987c.115-.23.307-.53.383-.612a.589.589 0 0 0 .152-.454l-.002-.024a1.124 1.124 0 0 1 .017-.431c.04-.175.11-.32.36-.555.277-.26.468-.457.559-.625.07-.132.105-.19.17-.353 0 0-.558.093-.847-.231-.101-.114-.173-.282-.19-.515-.011-.15 0-.323.045-.478.04-.138.103-.263.174-.352 0 0-.207.656.235.852.324.142.665-.063.823-.233.068-.075.146-.175.234-.281l-.01-.01-.001.002c-.03-.03-.363-.264-.418-.593-.056-.325-.051-.62-.075-.743-.026-.125-.11-.301-.141-.371-.031-.069-.03-.125.043-.177.072-.051.158-.085.318.012.157.096.293.27.412.396.118.125.298.238.45.341.269.185.463.29.534.322a8.177 8.177 0 0 1-.047-.42 23.994 23.994 0 0 0-.065-.6.634.634 0 0 0-.061-.19c-.044-.09-.077-.185-.11-.267-.03-.083-.06-.203.046-.27.11-.069.256-.074.418.036.164.108.272.284.436.365.164.08.52.293.879.734.215.264.357.582.408.89l.148-.023h-.002s.326-.096.533-.228c.244-.154.442-.415.6-.638.16-.224.618-.857 1.42-.981.682-.101.789 0 1.05-.097.26-.1.29-.107.29-.107s-.15.312-.374.463c-.23.15-.61.233-.918.646-.114.15-.232.377-.232.377s.519-.522 1.2-.708c.679-.185 1.38-.068 1.807 0 .425.068.854.182 1.295.018.335-.128.38-.128.38-.128s-.185.231-.34.524c-.154.292-.306.55-.735.734-.407.174-.523.193-.523.193s.46.065.832.061c.372-.004.708-.076 1.127-.138.418-.063 1.163-.177 1.66.013.5.193.73.396.73.396s-.51-.04-.99.405c-.312.291-.553.601-.761.712-.21.11-.417.195-.417.195s.358.082 1.069.47c.519.284.926.448 1.14.482.437.067.8.038 1.174-.141.203-.096.259-.096.259-.096s-.382.319-.532.807c-.068.214-.393.707-.811.91-.33.159-.722.114-.722.114s.476.1 1.11.775c.632.677.859.718 1.24.807.38.09.645.017.779-.024 0 0-.426.525-.7.801-.274.274-.705.707-1.53.578-.47-.076-.545-.177-.807-.259-.26-.082-.405-.113-.641-.107 0 0 .35.162.848.722.499.56.773.641 1.137.742.363.1.858-.035 1.084-.062a1.82 1.82 0 0 1 .459.011s-.225.026-.527.422c-.301.394-.743 1.104-1.563 1.245-.748.133-1.69-.3-1.69-.3s.424.548.78.733c.358.187.89.23 1.192.18.232-.038.314-.038.314-.038s-.16.038-.411.312c-.25.275-.586.526-1.037.587-.373.052-.843.021-1.112-.156-.255-.168-.437-.37-.515-.666-.046-.172-.052-.333-.071-.492-.053-.39-.033-1.159-.041-1.4-.061-2.19-.574-3.228-.768-3.668-.63-1.423-1.774-2.54-2.613-3.143-.84-.603-1.316-.819-1.93-1.036-.678-.238-1.183-.334-1.183-.334s.488.186 1.166.51c1.235.588 1.89 1.236 2.607 1.912a7.189 7.189 0 0 1 1.586 2.25c.5 1.123.587 2.328.613 2.736.026.407.042 1.814.087 2.41.047.598.316.944.607 1.294.29.35.836.636.836.636-.646.341-1.504.791-2.71 1.043-1.94.407-3.723.166-5.475-.633-.745-.34-1.34-.823-1.34-.823.373-.533.767-.964 1.167-1.61.6-.97.578-1.611.464-2.177-.112-.567-.66-.877-.66-.877.834-.57 1.32-1.709.785-2.875-.181-.392-.361-.468-.361-.468.19.423.34.725.282 1.327-.083.846-.538 1.732-1.405 1.94a2.05 2.05 0 0 1-1.061 0c-.402-.103-.794-.29-.794-.29s.07.077.33.264c.349.25.659.313.659.313-.16.181-.304.29-.705.531-.402.241-.615.334-.82.387-.205.05-.136.33-.134.517.003.19.04.317-.031.513-.061.163-.074.146-.074.146-.112-.125-.402-.524-.402-.524.037-.062.09-.14.11-.255a.732.732 0 0 0-.056-.469.378.378 0 0 0-.206-.194c.183.276.166.43.146.575a.673.673 0 0 1-.201.373s.693.959 1.1 1.457c.408.496.885.996 1.64 1.606.757.61 2.806 1.927 5.817 1.778 1.209-.06 2.302-.415 3.134-.785 1-.446 3.07-1.792 3.07-1.792.766-.472 3.285-1.979 4.564-.907.307.26.482.603.504.996.03.51-.206.951-.624 1.394-.415.442-1.642 1.006-2.736 1.107 0 0-.955.127-1.828.033-.183-.197-.371-.447-.371-.447.14.02.409.028.409.028.4.023 1.122-.043 1.122-.043.563-.07 1.416-.177 2.206-.561.598-.293 1.049-.76 1.175-1.217a.9.9 0 0 0-.11-.753c-.24-.37-1.048-.551-2.247-.071a9.059 9.059 0 0 0-1.412.699c-.27.155-2.44 1.48-3.453 1.942-1.963.896-3.77 1.279-5.5.939-1.733-.341-2.871-.944-3.845-1.768-.974-.824-1.458-1.391-2.107-2.256-.436-.583-.707-1.058-.79-1.18-.032-.05-.152-.007-.291-.02a.808.808 0 0 1-.343-.125" fill="#fff" fill-rule="evenodd"/>
        <path d="M235.277 432.354c1.18 1.087 2.21 1.459 2.21 1.459-.052.087-.417.599-.417.599s-.564-.428-1.055-.925c-.467-.471-.858-.982-.858-.982a.896.896 0 0 0 .12-.151M254.828 442.636c-.154 1.816-.72 3.172-2.102 4.411-1.188 1.064-2.927 1.81-5.153 1.98-1.684.13-3.207-.26-3.701-.398-.496-.138-.87-.223-1.183-.244-.17-.01-.351.037-.48.081-.015 0-.03-.003-.044-.004h-.191a1.17 1.17 0 0 1-.104.176c-.247.331-.582.771-1.482.762-.96-.01-1.315-.082-1.315-.082s-.035.005-.138.046c-.104.043-.67.325-1.654.237a13.334 13.334 0 0 1-2.478-.473c-.646-.187-.84-.23-1.04-.124-.078.042-.12.125-.082.24.168.544.327.95.554 1.408.202.408.49.813.83 1.076.34.263.632.455.702.94.045.323-.192.55-.192.55s.18.148.37.148c.192 0 .588-.206.779-.256.19-.052.53-.128.779.422 0 0 .309.15.473.272.164.124.314.367.289.872a12.18 12.18 0 0 1-.294 2.101c-.015.071-.082.026-.118.005-.037-.02-1.346-.942-1.427-1-.082-.056-.146-.102-.146-.102s-.354.13-.67-.248c-.313-.375-.52-.71-.824-.896-.302-.185-.91-.365-1.168-.608-.261-.244-.408-.53-.61-1.04-.2-.512-.596-1.57-.761-1.922a8.88 8.88 0 0 0-.752-1.27c-.29-.399-.325-.58-.315-.945.01-.366.18-.767.434-1.066 0 0 .025-.44.334-.716.309-.279.727-.427 1.737-.53 1.009-.104 1.659-.299 2.252-.625.058-.032.188-.116.223-.16.035-.045-.031-.049-.297.11-.084.055-.691.22-1.343.112a3.743 3.743 0 0 1-2.031-1.025c-.5-.498-1.252-1.329-1.612-2.07-.36-.743-.608-1.665-.763-2.08-.154-.419-.32-.888-.613-1.156-.293-.268-.705.124-.83.222a7.011 7.011 0 0 0-1.025 1.004c-.097.123-.247.293-.252.402a4.988 4.988 0 0 1-.155.824c-.076.237-.278.442-.51.448a.97.97 0 0 1-.387-.062s.037.202.35.485c.316.284.547.597.49.877-.055.276-.232.36-.32.416 0 0-.03.227-.035.34a.713.713 0 0 1-.44.606c-.238.103-.797.277-1.965.49-.332.06-.458.034-.458.034s-.031-.019-.016-.082c.016-.06.366-1.356.396-1.49.03-.135.088-.208.088-.208s-.327-.254-.155-.658c.175-.412.36-.655.418-1.036.057-.38.03-.763.23-1.21.202-.448.522-.665.862-.965.34-.297.783-.679 1.102-1.015.32-.334.717-1.1 1.139-1.462.422-.36.896-.458 1.308-.392 0 0 .092.021.16-.019.068-.043.36-.3.799-.104.465.208.74.67 1.03.97.289.298.422.518 1.577 1.106.728.37 1.174.726 1.459 1.027a2.09 2.09 0 0 1 .546-.58c.228-.16.506-.225.54-.23.044-.006.044.058.044.058.04.447.15.962.19 1.048.019.041.113.12.113.12-.194-1.058-.152-1.627-.096-2.138.074-.672.142-.988.29-1.45a5.21 5.21 0 0 1 .667-1.378c.657.62 1.575 1.314 2.614 1.705 1.534.576 3.306.576 4.946.062 1.364-.429 2.407-.855 3.48-1.529l.072.083s.325.37.722.837c.516.608 1.089.73 2.02.846 1.419.174 2.514.271 3.288 1.112.704.766 1.153 2.535 1.03 3.977M233.921 432.067c.02.038.24.514.348.68 0 0 .017.052-.142.056-.157.002-.31-.08-.349-.144a.526.526 0 0 1-.058-.28c0-.15.056-.343.056-.343s.04.006.097.004c0 0 .027-.011.048.027" fill="#fff" fill-rule="evenodd"/>
        <path d="M237.528 425.293c-.02.014-.041.025-.056.014-.07-.051-.185-.134-.25-.188a11.743 11.743 0 0 0-.674-.507c-.817-.58-1.166-.451-1.638-.347l-.038-.005c.45-.291.936-.322 1.849.333.12.087.666.5.736.555.018.015.029-.001.048-.012a.667.667 0 0 1 .319-.082.727.727 0 0 1 .274.04c.015.005.286-.45.408-.727.139-.313.233-.706.085-1.047 0 0 .264.29.093.843a3.706 3.706 0 0 1-.54 1.084c-.004.006-.01.01-.021.007 0 0-.112-.062-.275-.056a.625.625 0 0 0-.32.095M243.71 422.118s-.221-.057-.744-.028c-.621.035-.97.201-1.317.413-.353.214-.522.461-.734.6a3.414 3.414 0 0 1-.434.238c.44-.054.71-.318.859-.433.563-.44.887-.578 1.237-.665.352-.085 1.133-.125 1.133-.125M244.858 423.791c.613-.019.943-.259.943-.259a3.682 3.682 0 0 1-1.12.155c-.28-.004-.665-.03-1.16.172a2.153 2.153 0 0 0-.689.464.709.709 0 0 0-.129.165s.123-.087.333-.229a2.8 2.8 0 0 1 .46-.258c.461-.207.747-.193 1.362-.21M246.994 425.991c.364.07.58.014.58.014s-.269 0-.533-.058-.748-.312-1.203-.306a1.988 1.988 0 0 0-1.07.334c-.257.168-.35.35-.35.35s.202-.172.395-.268a2.294 2.294 0 0 1 1.05-.279c.433-.025.766.145 1.131.213M247.074 428.286c.448.051.988.428 1.281.54.298.112.528.106.528.106s-.299-.05-.573-.199c-.276-.148-.601-.385-1.034-.51a1.97 1.97 0 0 0-1.158.01c-.362.12-.498.234-.498.234s.14-.026.354-.098c.343-.117.649-.134 1.1-.083M247.717 431.645c.162.065.33.108.455.11.233.003.398-.077.398-.077s-.095-.002-.206-.002a1.804 1.804 0 0 1-1.195-.495c-.123-.124-.33-.306-.619-.367-.287-.062-.562.013-.562.013s.272-.017.621.114c.152.057.284.146.41.252.082.068.272.281.698.452M232.05 431.614c-.02.222.222.376.387.376.166 0 .299-.154.186-.454-.114-.298-.417-.432-.454-.443-.036-.01-.087.047-.087.047s-.03.034.02.042c.036.004.047.004.129.056.082.052.118.139.118.139-.086-.032-.278.015-.298.237M234.379 426.885s-.01.04.02.152c.032.11.19.346.492.379a.598.598 0 0 0 .502-.201c.146-.17.117-.41.117-.41.038-.002.165 0 .249-.054a.522.522 0 0 0 .19-.242c.037-.09.02-.202.02-.202s-.024.06-.082.135a.436.436 0 0 1-.256.17.463.463 0 0 1-.293-.065c-.007-.013-.022-.003-.047.006-.024.008-.03.02-.03.02a.8.8 0 0 0 .02.194.347.347 0 0 1-.162.273c-.104.07-.181.07-.181.07a.93.93 0 0 0 .097-.44c-.004-.104-.063-.14-.063-.14s-.072-.05-.206-.04c-.19.015-.28.16-.312.19-.032.028-.08.056-.205.05a1.086 1.086 0 0 1-.248-.043s.026.038.11.108c.086.069.268.09.268.09" fill="#fff" fill-rule="evenodd"/>
        <path d="M234.753 426.091a.422.422 0 0 0-.35.235c-.041.1-.071.244-.071.244-.003.017.036.015.036.015s.034-.082.118-.183c.13-.16.324-.194.51-.16.14.027.262.073.262.073s.03.026.038 0c.003-.011-.018-.027-.018-.027s-.035-.03-.1-.068c-.106-.067-.241-.148-.425-.129M235.953 428.998c.44-.57.85-1.19 1.244-1.792.116-.177.24-.362.352-.541 0 0 .03-.052.061-.092.022-.027.13-.004.19.006.275.048.568-.115.698-.308.285-.422.073-.784-.015-.865 0 0-.003-.014.001-.022.002-.006.017-.026.017-.026.135-.176.231-.394.333-.618.127-.279.213-.577.217-.858a.918.918 0 0 0-.407-.76s.34.327.28.866c-.048.457-.326 1.031-.598 1.41l.035.046h.001c.098.113.24.469.011.765a.635.635 0 0 1-.802.187l-.153.236-.35.553c-.254.397-.523.781-.792 1.168a20.42 20.42 0 0 1-.729.974c-.217.272-.66.807-.984 1.178-.155.176-.217.261-.217.261s.086.006.227-.143c0 0 .793-.865 1.38-1.625M245.898 447.873c.886.135 2.573.17 4.38-.545 1.64-.652 2.574-1.701 2.574-1.701-.722.69-2.449 1.569-3.47 1.802-1.56.358-2.782.287-4.276.125-1.442-.158-1.742.082-1.742.082.69-.144 1.647.103 2.534.237M244.848 443.978c.736-.842.761-1.979.761-1.979s-.105.264-.303.821c-.2.556-.558 1.019-.88 1.344-.514.515-1.334.948-1.334.948s.854-.102 1.756-1.134M239.119 447.368c-.279.258-.598.442-1.52.572-.923.129-1.989.036-2.164.03-.129-.004-.205.052-.205.052s1.36.18 2.528.093c1.335-.1 1.659-.468 1.835-.733.174-.26.231-.59-.196-.86-.428-.267-1.181-.241-1.181-.241.063.093.157.077.157.077.292.036.586.13.818.325.231.195.206.428-.072.685M232.932 448.683c-.026.034-.063.133-.094.194a.785.785 0 0 1-.34.352c-.08.04-.16.033-.26.028.003 0-.014.038-.014.038.244.171.413.447.503.655.237.55.396.89.522 1.124.07.131.127.216.18.277.042.051.08.06.08.06-.587-1.255-.606-1.747-.637-2.042-.045-.406.093-.69.093-.69s-.03.005-.033.004M233.885 443.421c-.336.032-.572-.185-1.046-.758-.474-.57-.927-1.344-1.154-1.74-.227-.398-.447-.736-.447-.736s.17.406.417.937c.247.53.484.995.782 1.495.299.5.81 1.22 1.314 1.224.504.006.79-.412.764-.983-.027-.52-.464-1.123-.464-1.123.189.444.287.783.278 1.076-.011.315-.142.581-.444.608M228.173 438.476l-.054.007c-.042.253-.144.37-.278.543-.135.17-.35.384-.534.579l-.727.764s.67-.567.836-.723c.452-.426.742-.6.97-.693.213-.086.423-.064.423-.064l.023-.065a.708.708 0 0 1-.432-.06c-.164-.081-.227-.288-.227-.288M234.459 439.847a.786.786 0 0 0-.144.184s.374.343.745.998c.3.532.407.973.407.973a3.286 3.286 0 0 0-.271-.999c-.146-.335-.316-.716-.737-1.156M245.364 438.52c.395.399.698 1.065.713 1.175.012.11.061.11.061.11 0-.024-.018-.293-.158-.624-.135-.32-.38-.696-.686-.93-.623-.47-1.073-.51-1.073-.51.062.072.124.086.124.086.39.14.684.354 1.02.694M237.303 422.956c-.148-.029-.313-.148-.456-.393-.135-.224-.226-.58-.268-.779a.457.457 0 0 0-.112-.23s.033.107.042.155c.027.13.046.321.079.55.035.23.065.326.227.56.16.232.464.311.597.25.134-.062.13-.179.13-.179-.02.024-.091.092-.24.066" fill="#fff" fill-rule="evenodd"/>
        <path d="M234.352 430.309c.08-.09.264-.292.393-.44.344-.397.672-.81.994-1.222.569-.73 1.128-1.635 1.636-2.408 0 0-.042-.06-.094-.155-.056-.102-.06-.274-.034-.403.009-.047.043-.12.043-.12.028-.065-.068-.14-.111-.181-.043-.04-.164-.137-.23-.195-.601-.547-1.23-.891-1.868-.902 0 0 .83.154 1.684.888 0 0 .312.28.336.305.015.015.016.01.042.039.01.01.016.035.004.07-.005.015-.044.094-.05.277a.51.51 0 0 0 .117.353s.01.035-.008.063c-.018.027-1.126 1.772-1.738 2.557-.307.394-.624.785-.951 1.164-.117.137-.24.269-.36.404 0 0-.026.028-.045.015-.042-.03-.152-.077-.337-.094a.714.714 0 0 0-.338.049c-.011.005-.026-.011-.026-.011s-.226-.255-.426-.407c-.304-.227-.495-.263-.55-.271-.053-.007-.076.028-.076.028-.058.05-.034.062-.003.068.05.01.086.003.24.077.24.11.344.209.458.315.194.18.298.292.322.319.042.046.075.042.097.032.035-.016.064-.032.194-.052.127-.02.254.018.283.026a.85.85 0 0 1 .137.05c.006.003.026.014.04.005.06-.036.159-.17.225-.243M236.458 423.19c.18.137.302.15.41.15.184 0 .268-.067.268-.067-.198.04-.573-.088-.756-.41a1.087 1.087 0 0 1-.14-.372c-.025-.012-.16-.086-.16-.086-.002.013.058.275.062.289.05.187.209.406.316.496M238.486 434.509c-.025.029-.03.043-.014.052.017.01.034.004.034.004s.61-.634 1.075-1.303c1.01-1.452 1.75-2.854 1.337-4.553-.41-1.7-1.817-2.885-1.817-2.885-.013.027.082.124.082.124s.6.724 1.052 1.579c.7 1.317.663 2.337.35 3.503-.339 1.245-1.723 3.049-2.099 3.479M242.159 448.787c.215-.323.368-1.204.409-1.521.042-.32.127-.456.342-.884.238-.477.185-.894.185-.894-.149.533-.248.707-.442.995a2.49 2.49 0 0 0-.367.8c-.065.25-.106.652-.319 1.198ZM236.546 455.43a.21.21 0 0 0 .073-.032c.139-.115.395-.41.577-.723.21-.357.332-.635.359-.706.066-.17.106-.263.113-.358.007-.078-.171-.16-.164-.088.008.07-.054.256-.081.332-.027.071-.17.422-.35.793-.183.374-.422.691-.54.781ZM224.681 443.88c.057.003.081 0 .218.004.27.01.76.045 1.283.171.225.052.553.177.686.266l-.003-.11.005-.048c-.659-.365-1.596-.359-2.002-.337-.125.007-.138.01-.201.015-.061.007-.042.036.014.04M238.133 443.053c-.999.397-1.45.895-1.736 1.25-.37-1.01-.187-1.995-.097-2.402a5.226 5.226 0 0 1 1.572-2.718c.792-.708 1.714-1.079 1.714-1.079-1.106.284-1.859.903-2.548 1.665-.69.763-.964 1.478-1.165 2.21-.2.73-.186 1.236-.037 1.993.038.19.096.36.16.51.002.01 0 .015.003.028.185.712-.16 1.3-.16 1.3l.124-.023s.146-.056.235-.17c.064-.08.15-.349.192-.495l.003.004c.314-.885 1.093-1.37 1.314-1.519.7-.472 1.547-.699 2.565-.495.772.155 1.31.52 1.31.52-1.134-.95-2.45-.977-3.449-.579M238.443 422.69a.842.842 0 0 1-.3.076 1.01 1.01 0 0 1-.12.646.627.627 0 0 1-.482.325c-.17.02-.314-.04-.272.005.04.043.132.078.224.09a.694.694 0 0 0 .636-.226 1.32 1.32 0 0 0 .314-.915" fill="#fff" fill-rule="evenodd"/>
    </g>
</svg>