<svg id="Vrstva_1" data-name="Vrstva 1"
    xmlns="http://www.w3.org/2000/svg" viewBox="0 0 584.45 167.63">
    <defs>
        <style>*{fill: #242424} .cls-1{fill:#fff;}.cls-2{fill:#fff;}.cls-3{fill:#fff;}.cls-4{fill:none;stroke:#fff;stroke-miterlimit:22.93;stroke-width:2.83px;}.cls-5{fill:#fff;}</style>
    </defs>
    <path class="cls-1" d="M546.5,485q11.24-14.66,11.22-27.67,0-9.45-4.68-15.8t-11.26-6.3A12.9,12.9,0,0,0,531.44,440c-2.68,3.18-4,7.25-4,12.24q0,16.62,19.09,32.75m-16.28,16q-10.58-11.49-14.54-20.65A48.31,48.31,0,0,1,511.74,461c0-10.14,2.75-18.58,8.21-25.4s12.71-10.17,21.7-10.17q13.07,0,21.49,9.26a30.47,30.47,0,0,1,8.41,21.15q0,16.7-19.43,34.79,20.57,16.74,24.3,37.1H555.05q-6-10.49-18.69-21.4a66.65,66.65,0,0,0-11,21.4H510.2Q515.09,514,530.22,500.94Z" transform="translate(-0.63 -361.56)"/>
    <path class="cls-2" d="M475.09,527.27l-17.31-48.72q20.43-.48,33.9-7.41l19.61,56.13Zm-30.54-62.74V431h11.13c6.61,0,11.4-.59,14.34-1.82,5.5-2.29,8.27-6.53,8.27-12.71,0-5.15-2-8.92-5.94-11.37-3.05-1.9-8-2.85-15.05-2.85H444.55V368.51h10.77q14.79,0,23.53,2.49a43.74,43.74,0,0,1,16.24,8.76,46.26,46.26,0,0,1,12.48,16.4,48.06,48.06,0,0,1-.24,41A48.58,48.58,0,0,1,494.38,454a43.16,43.16,0,0,1-15.33,8.16q-8.26,2.37-21.51,2.38Z" transform="translate(-0.63 -361.56)"/>
    <rect class="cls-3" x="443.91" y="165.62" width="136.72" height="0.55"/>
    <rect class="cls-4" x="443.91" y="6.95" width="139.12" height="158.67"/>
    <path class="cls-5" d="M.63,529.18V361.56H353.37V529.18ZM86.27,368.05a15.69,15.69,0,0,0-1,1.46c-1.06,2.07-2.07,4.16-3.12,6.22-2.1,4.11-4.23,8.2-6.32,12.31-2.7,5.29-5.31,10.63-8.08,15.89-3.27,6.2-6.69,12.32-10,18.49-2.54,4.74-5,9.51-7.49,14.27s-4.78,9.25-7.19,13.87q-4.61,8.79-9.26,17.55c-1.63,3.08-3.35,6.12-5,9.22-3.6,6.91-7.11,13.86-10.73,20.76-2.05,3.9-4.23,7.75-6.37,11.61-2.35,4.26-4.73,8.5-7.06,12.77-.1.19.16.77.39.89a2.88,2.88,0,0,0,1.22.09l19.81.27c4,.06,7.91.14,11.87.19q8.38.12,16.78.2c6.22.06,12.45.13,18.67.11A2.13,2.13,0,0,0,75,523.16c1.67-3.35,3.21-6.76,4.84-10.12s3.36-6.89,5.11-10.31c2.72-5.33,5.53-10.62,8.23-16,3.06-6.07,6-12.19,9-18.27,2.64-5.3,5.32-10.57,8-15.85.59-1.17,1.25-2.31,1.85-3.48,1.08-2.09,2.17-4.18,3.19-6.3.66-1.36,1.68-2.67,1.07-4.34-.29-.81-.6-1.6-.93-2.39-1.55-3.7-3.08-7.41-4.67-11.1-2.29-5.3-4.62-10.59-6.93-15.9q-3-6.9-6-13.82-2.6-6-5.15-12.1L89,374.56ZM207,525.42c0-2.49,0-5,0-7.6.06-4,.17-8,.23-12,0-3.06,0-6.12.07-9.19,0-.94.26-1.67,1.48-1.66,4.52,0,9,0,13.55,0,5.43.07,10.85.26,16.28.38q5.88.12,11.76.17c3.53,0,7.05,0,10.85,0,0-2.1-.05-4.05,0-6,.08-2.49.27-5,.34-7.48,0-.27-.5-.77-.79-.78q-4-.19-8.06-.22c-4.93,0-9.85,0-14.77,0-.8,0-1.62-.58-2.38-.47a14.18,14.18,0,0,1-3.19,0c-2.34-.19-4.69-.17-7-.18-5.42,0-10.84,0-16.26,0-1,0-1.38-.32-1.36-1.34.12-5.85.21-11.7.3-17.54,0-1.37.46-1.81,1.86-1.78s2.74.12,4.11.13c6.67,0,13.34,0,20,.08,1,0,2,.19,3,.18,2,0,3.94-.21,5.91-.2,2.71,0,5.42.18,8.13.21,4,0,7.91,0,11.86.05a1.9,1.9,0,0,1,1.47.83c1.26,2.64,2.44,5.33,3.57,8,2.17,5.2,4.26,10.44,6.44,15.64,1.31,3.11,2.74,6.17,4.07,9.27,2.71,6.27,5.38,12.56,8.08,18.84,1.88,4.38,3.77,8.77,5.72,13.13a1.69,1.69,0,0,0,1.17.88c1.2.11,2.42,0,3.64,0,4.84.07,9.69.15,14.53.2.39,0,1,0,1.12-.26a23.93,23.93,0,0,0,1.83-3.23c.5-1.1.75-2.32,1.26-3.41,1.59-3.41,3.29-6.77,4.88-10.18,2.12-4.54,4.15-9.12,6.28-13.66,2-4.3,4.15-8.55,6.17-12.86,2.24-4.76,4.4-9.56,6.61-14.33,1.65-3.55,3.34-7.08,5-10.62,1.42-3,2.85-6,4.27-8.95.47-1,.89-2,1.43-3.27h-14.2c-2.41,0-4.82-.1-7.23-.09a1.34,1.34,0,0,0-1,.62c-1.6,3.64-3.11,7.32-4.7,11-2.57,5.91-5.2,11.79-7.76,17.71-1.7,3.93-3.33,7.89-5,11.85-2,4.91-4.06,9.82-6.1,14.73-.43,1-.89,2-1.33,3l-.42,0a18.56,18.56,0,0,1-.9-1.85c-1.07-3-2-6.09-3.16-9.07-1.39-3.63-3-7.17-4.41-10.78C292.17,478,290.12,472.48,288,467c-2.64-6.93-5.27-13.86-7.94-20.78-.13-.35-.51-.84-.81-.86a38.85,38.85,0,0,0-4-.1c-3.15.06-6.29.23-9.43.24-4.82,0-9.64-.1-14.46-.13-3.54,0-7.08.08-10.62,0-6.2-.08-12.4-.24-18.6-.33-3.48-.05-7,0-10.44,0-4,0-8,0-12,0-2.94,0-5.89.18-8.83.1-1.16,0-1.75.25-1.9,1.36a17.52,17.52,0,0,0-.2,2.16c0,3,0,5.9-.08,8.85-.1,3.49-.35,7-.46,10.47-.14,4.52-.21,9.05-.3,13.58s-.17,8.95-.27,13.42c-.08,3.41-.22,6.82-.29,10.23,0,2.45,0,4.9,0,7.35,0,1.68-.18,3.36-.21,5,0,2.63,0,5.27,0,7.76ZM83.23,524.35h22.4c.34-.68.59-1.21.84-1.73,1.48-3,3-6.06,4.41-9.16,1.3-2.93,1.46-3.16,4.38-3.11,6.83.11,13.66.27,20.49.36,5.79.07,11.57.08,17.35.07a1.87,1.87,0,0,1,2,1.09c1.41,3.31,2.78,6.62,4.19,9.92.45,1,.77,2.28,1.56,3,.56.46,1.8.09,2.74.12.41,0,.81.18,1.21.18h18.6c-.12-.3-.25-.65-.42-1-2-4.2-4.14-8.37-6.12-12.6-1.88-4-3.63-8.07-5.47-12.08-2.11-4.58-4.31-9.12-6.39-13.71-1.29-2.83-2.36-5.75-3.67-8.57-1.91-4.12-4-8.13-5.91-12.26-2.92-6.43-5.72-12.92-8.53-19.4a1.58,1.58,0,0,0-1.7-1q-4.74,0-9.5,0c-1.62,0-3.24-.16-4.87-.18s-3.53,0-5.28.08c-.56,0-1.4.23-1.61.61-2,3.84-3.87,7.74-5.82,11.6s-4,7.82-6,11.74c-1.91,3.73-3.85,7.46-5.72,11.22s-3.74,7.82-5.73,11.67c-2.65,5.14-5.43,10.2-8.13,15.32-1.31,2.48-2.52,5-3.81,7.51C86.88,517.42,85.05,520.89,83.23,524.35Zm266.06-139.6a27.22,27.22,0,0,0-1.94-2.46,51.93,51.93,0,0,0-11.54-9,32.08,32.08,0,0,0-10-3.42,82.9,82.9,0,0,0-12-1.14,74.62,74.62,0,0,0-11.67.67A34,34,0,0,0,291,373.47a22.13,22.13,0,0,0-6,4.64c-4.48,4.93-5.75,10.88-4.11,17.32a15.63,15.63,0,0,0,7.88,10.14,34.07,34.07,0,0,0,7.08,3c4.13,1.14,8.35,1.93,12.54,2.82,1.73.36,3.5.55,5.24.87,2.62.5,5.25,1,7.84,1.6a70.49,70.49,0,0,1,7,1.92,5.39,5.39,0,0,1,2.64,7.67,10.56,10.56,0,0,1-2.93,3.06,23.74,23.74,0,0,1-4.79,2.22,14.38,14.38,0,0,1-3.45.77c-2.38.26-4.78.51-7.18.56a30.51,30.51,0,0,1-5.3-.45,34,34,0,0,1-5.66-1.35,20.84,20.84,0,0,1-4.63-2.36c-2.63-1.76-5.28-3.55-6.53-6.7a1.38,1.38,0,0,0-1.18-.58c-2.85.67-5.66,1.46-8.49,2.16-2.19.54-4.39,1-6.84,1.58,1.71,2.54,3.2,5,4.94,7.26,1.1,1.42,2.62,2.51,3.85,3.83a25,25,0,0,0,9,5.83,38.56,38.56,0,0,0,12.35,2.92,120.94,120.94,0,0,0,14.85.43,66.13,66.13,0,0,0,13-2.4,23.88,23.88,0,0,0,12.43-7.85,14.84,14.84,0,0,0,2.91-4.4A24,24,0,0,0,348.72,417a17.65,17.65,0,0,0-6-10.9,10.94,10.94,0,0,0-2.95-1.87c-2.14-.94-4.35-1.71-6.53-2.56a17.9,17.9,0,0,0-2.56-1c-3.13-.68-6.29-1.28-9.44-1.89-2.26-.43-4.52-.82-6.79-1.22-.93-.17-1.88-.28-2.8-.47-2.21-.46-4.42-.89-6.59-1.45-2.51-.65-5.22-1-7-3.25a5.13,5.13,0,0,1-1.31-3,7.89,7.89,0,0,1,6.69-6.95,57.09,57.09,0,0,1,10.3-.64c4.58.3,9.06.81,13.22,2.83,2.43,1.18,4.85,2.41,6.21,4.95.53,1,1.26.4,1.9.17s1.13-.53,1.72-.76,1.13-.34,1.68-.56c1.95-.78,3.87-1.64,5.86-2.34C345.89,385.59,347.52,385.24,349.29,384.75ZM95.05,368.65c1,2.5,2,4.93,3,7.31,1.48,3.34,3.13,6.61,4.58,10,2.33,5.38,4.53,10.82,6.84,16.22,1.37,3.19,2.84,6.35,4.25,9.52l7.1,16a92.68,92.68,0,0,1,4,9.24c.54,1.67,1.34,1.9,2.71,1.91,4.15,0,8.3-.09,12.43.18,2.48.16,3.85-.46,4.73-2.92A102.52,102.52,0,0,1,149,426.4c1.44-3,3.07-5.93,4.53-8.93,3.51-7.2,7-14.44,10.46-21.64,1.83-3.74,3.78-7.41,5.59-11.16,2.07-4.26,4-8.57,6.05-12.85.37-.78.8-1.54,1.36-2.6h-8.5c-2.78,0-5.57,0-8.35-.12s-2.83-.21-3.75,2.37c-.06.17-.17.32-.25.49L151,383.33c-.9,2-1.78,3.94-2.69,5.91-1.37,2.94-2.79,5.85-4.12,8.81-1.47,3.28-2.86,6.59-4.27,9.89q-1.91,4.43-3.78,8.84c-.42,1-.82,2-1.35,3.27l-20.56-51.4ZM197.58,370c1.67,3.84,3.24,7.53,4.88,11.19,1.73,3.87,3.58,7.68,5.29,11.56s3.16,7.56,4.81,11.31c2.06,4.68,4.21,9.31,6.31,14,1.74,3.85,3.47,7.69,5.18,11.55,1.27,2.84,2.48,5.7,3.78,8.52.31.68.8,1.62,1.38,1.76a18.31,18.31,0,0,0,4.44.39c4,0,7.94-.12,11.91-.23a1.34,1.34,0,0,0,1-.48c1.17-2.38,2.32-4.77,3.4-7.19.94-2.09,1.71-4.26,2.68-6.34q3.48-7.5,7.08-14.95C263.15,404,266.65,397,270,389.94c2.71-5.63,5.31-11.3,8-16.95.39-.84.86-1.64,1.38-2.63H259.87c-7,17.13-15.64,33.47-22.25,51.09a13.76,13.76,0,0,1-.65-1.24c-.6-1.75-1.12-3.52-1.79-5.24q-2.67-6.86-5.45-13.67c-1.79-4.36-3.69-8.68-5.48-13.05q-3.52-8.64-6.94-17.33a1.46,1.46,0,0,0-1.67-1.13c-3.07.07-6.13,0-9.2.07-1.19,0-2.39.1-3.59.12C201.16,370,199.47,370,197.58,370Zm11.61,56c-2.8,0-5.46,0-8.12,0a1.81,1.81,0,0,0-1.9,1.1c-1.48,2.67-3.4,5.06-6.64,5.5a37.63,37.63,0,0,1-8.28.3,11.84,11.84,0,0,1-5.12-1.94,11.71,11.71,0,0,1-5.38-9.2c-.58-6.38,2.38-11.74,8.83-13.69a21.73,21.73,0,0,1,7.54-.49c3.63.18,6.17,2.14,8.24,4.86a1.78,1.78,0,0,0,1.78.89c2.77-.25,5.54-.41,8.32-.63.19,0,.37-.19.68-.36a15.67,15.67,0,0,1-1.18-1.84,13.84,13.84,0,0,0-6.08-6,30,30,0,0,0-9.29-3.33,42.62,42.62,0,0,0-10,0c-1.64.12-3.2,1.06-4.84,1.42a16.43,16.43,0,0,0-9.37,5.92,19.12,19.12,0,0,0-.64,22.67A16,16,0,0,0,174.9,437a40.7,40.7,0,0,0,7.91,2.31,29.4,29.4,0,0,0,7.5.13,35.57,35.57,0,0,0,8.08-1.58,16.07,16.07,0,0,0,6.83-4.67A16.49,16.49,0,0,0,209.19,426Zm-11.82-32.87c-1.31,0-2.37.06-3.42,0a4.08,4.08,0,0,0-4,1.51,16.18,16.18,0,0,1-2.12,2.1c-.55.52-1,.7-1.64,0a41.5,41.5,0,0,0-3.29-3.06,1.29,1.29,0,0,0-.67-.39c-1.69,0-3.38,0-5.11,0,0,.32,0,.49.09.58,1.22,1.56,2.4,3.16,3.71,4.64a2.72,2.72,0,0,0,1.73.78c2.2.08,4.4,0,6.6,0,1.89,0,3.7.08,4.86-2A31.22,31.22,0,0,1,197.37,393.12Z" transform="translate(-0.63 -361.56)"/>
    <path d="M86.27,368.05,89,374.56l3.65,8.66q2.56,6,5.15,12.1,3,6.92,6,13.82c2.31,5.31,4.64,10.6,6.93,15.9,1.59,3.69,3.12,7.4,4.67,11.1.33.79.64,1.58.93,2.39.61,1.67-.41,3-1.07,4.34-1,2.12-2.11,4.21-3.19,6.3-.6,1.17-1.26,2.31-1.85,3.48-2.67,5.28-5.35,10.55-8,15.85-3,6.08-6,12.2-9,18.27-2.7,5.34-5.51,10.63-8.23,16-1.75,3.42-3.44,6.86-5.11,10.31s-3.17,6.77-4.84,10.12a2.13,2.13,0,0,1-1.52,1.06c-6.22,0-12.45-.05-18.67-.11q-8.4-.09-16.78-.2c-4,0-7.91-.13-11.87-.19l-19.81-.27a2.88,2.88,0,0,1-1.22-.09c-.23-.12-.49-.7-.39-.89,2.33-4.27,4.71-8.51,7.06-12.77,2.14-3.86,4.32-7.71,6.37-11.61,3.62-6.9,7.13-13.85,10.73-20.76,1.61-3.1,3.33-6.14,5-9.22q4.65-8.78,9.26-17.55c2.41-4.62,4.78-9.25,7.19-13.87s5-9.53,7.49-14.27c3.31-6.17,6.73-12.29,10-18.49,2.77-5.26,5.38-10.6,8.08-15.89,2.09-4.11,4.22-8.2,6.32-12.31,1-2.06,2.06-4.15,3.12-6.22A15.69,15.69,0,0,1,86.27,368.05Zm-6.19,45.89c-1.22-.49-2.44-.9-3.59-1.46-1.51-.72-3-1.55-4.44-2.36-.69-.39-1.09-.34-1.47.46-.72,1.46-1.6,2.84-2.36,4.28-.44.83-.79,1.7-1.22,2.63l8.86,4.36C77.31,419.12,78.63,416.66,80.08,413.94ZM56,460c.07-.07.26-.17.33-.32,1.1-2.16,2.19-4.33,3.25-6.51.34-.68,0-1-.67-1.34-2.29-1.17-4.55-2.4-6.8-3.63-.64-.35-1.14-.34-1.48.34-1,1.9-1.88,3.8-2.84,5.7-.43.85-.3,1.3.66,1.77C51,457.26,53.4,458.65,56,460Zm-14.72,6.87c-1.26,2.37-2.49,4.62-3.66,6.9-.3.57-.2,1.05.52,1.4,2.58,1.23,5.12,2.53,7.76,3.85,1.3-2.37,2.59-4.7,3.84-7.05a.87.87,0,0,0-.31-.75C46.79,469.82,44.12,468.41,41.29,466.91Zm35.6-68.42c3,1.67,5.85,3.21,8.68,4.78a.45.45,0,0,0,.17-.13c1.14-2.24,2.31-4.48,3.38-6.75a1.22,1.22,0,0,0-.5-1.06c-2.35-1.23-4.72-2.42-7.12-3.54a1.27,1.27,0,0,0-1.17.36C79.14,394.22,78,396.35,76.89,398.49Zm-10.77,42c1.16-2.15,2.32-4.23,3.39-6.35a1.32,1.32,0,0,0-.52-1.11c-2.06-1.18-4.13-2.36-6.29-3.36-.76-.35-1.85-1.07-2.48.56s-1.69,3.27-2.47,4.93a1.23,1.23,0,0,0,.28,1.17C60.64,437.77,63.3,439.1,66.12,440.53ZM39.75,490.81l-8.34-4.41-3.86,7.43,8.2,4.28Zm-18,13.95c-.58,1.16-1,2-1.42,2.82-.74,1.45-1.52,2.87-2.21,4.33a1.08,1.08,0,0,0,.27,1c2.06,1.08,4.18,2,6.23,3.13.75.41,1.06.2,1.4-.41,1.2-2.12,2.4-4.23,3.72-6.54Z" transform="translate(-0.63 -361.56)"/>
    <path d="M207,525.42H187.13c0-2.49,0-5.13,0-7.76,0-1.69.19-3.37.21-5,0-2.45,0-4.9,0-7.35.07-3.41.21-6.82.29-10.23.1-4.47.17-8.95.27-13.42s.16-9.06.3-13.58c.11-3.49.36-7,.46-10.47.09-2.95,0-5.9.08-8.85a17.52,17.52,0,0,1,.2-2.16c.15-1.11.74-1.39,1.9-1.36,2.94.08,5.89-.08,8.83-.1,4,0,8,0,12,0,3.48,0,7,0,10.44,0,6.2.09,12.4.25,18.6.33,3.54.05,7.08-.05,10.62,0,4.82,0,9.64.14,14.46.13,3.14,0,6.28-.18,9.43-.24a38.85,38.85,0,0,1,4,.1c.3,0,.68.51.81.86,2.67,6.92,5.3,13.85,7.94,20.78,2.08,5.45,4.13,10.92,6.26,16.36,1.41,3.61,3,7.15,4.41,10.78,1.15,3,2.09,6.05,3.16,9.07a18.56,18.56,0,0,0,.9,1.85l.42,0c.44-1,.9-2,1.33-3,2-4.91,4.06-9.82,6.1-14.73,1.65-4,3.28-7.92,5-11.85,2.56-5.92,5.19-11.8,7.76-17.71,1.59-3.64,3.1-7.32,4.7-11a1.34,1.34,0,0,1,1-.62c2.41,0,4.82.08,7.23.09h14.2c-.54,1.25-1,2.27-1.43,3.27-1.42,3-2.85,6-4.27,8.95-1.67,3.54-3.36,7.07-5,10.62-2.21,4.77-4.37,9.57-6.61,14.33-2,4.31-4.15,8.56-6.17,12.86-2.13,4.54-4.16,9.12-6.28,13.66-1.59,3.41-3.29,6.77-4.88,10.18-.51,1.09-2.49,5.56-3.09,6.64-.18.31-10.81.13-15.65.06-1.22,0-2.44.09-3.64,0a1.69,1.69,0,0,1-1.17-.88c-1.95-4.36-3.84-8.75-5.72-13.13-2.7-6.28-5.37-12.57-8.08-18.84-1.33-3.1-2.76-6.16-4.07-9.27-2.18-5.2-4.27-10.44-6.44-15.64-1.13-2.71-2.31-5.4-3.57-8a1.9,1.9,0,0,0-1.47-.83c-3.95-.07-7.9,0-11.86-.05-2.71,0-5.42-.2-8.13-.21-2,0-3.94.17-5.91.2-1,0-2-.17-3-.18-6.67,0-13.34-.05-20-.08-1.37,0-2.74-.09-4.11-.13s-1.84.41-1.86,1.78c-.09,5.84-.18,11.69-.3,17.54,0,1,.34,1.35,1.36,1.34,5.42,0,10.84,0,16.26,0,2.34,0,4.69,0,7,.18a14.18,14.18,0,0,0,3.19,0c.76-.11,1.58.46,2.38.47,4.92.05,9.84,0,14.77,0q4,0,8.06.22c.29,0,.8.51.79.78-.07,2.5-.26,5-.34,7.48-.06,2,0,3.91,0,6-3.8,0-7.32,0-10.85,0q-5.88,0-11.76-.17c-5.43-.12-10.85-.31-16.28-.38-4.51-.06-9,0-13.55,0-1.22,0-1.47.72-1.48,1.66,0,3.07,0,6.13-.07,9.19-.06,4-.17,8-.23,12C207,520.38,207,522.93,207,525.42Z" transform="translate(-0.63 -361.56)"/>
    <path d="M83.23,524.35c1.82-3.46,3.65-6.93,5.46-10.42,1.29-2.49,2.5-5,3.81-7.51,2.7-5.12,5.48-10.18,8.13-15.32,2-3.85,3.79-7.79,5.73-11.67s3.81-7.49,5.72-11.22c2-3.92,4-7.82,6-11.74s3.82-7.76,5.82-11.6c.21-.38,1-.58,1.61-.61,1.75-.1,3.52-.1,5.28-.08s3.25.15,4.87.18q4.75.06,9.5,0a1.58,1.58,0,0,1,1.7,1c2.81,6.48,5.61,13,8.53,19.4,1.87,4.13,4,8.14,5.91,12.26,1.31,2.82,2.38,5.74,3.67,8.57,2.08,4.59,4.28,9.13,6.39,13.71,1.84,4,3.59,8.08,5.47,12.08,2,4.23,4.08,8.4,6.12,12.6.17.35.3.7.42,1h-18.6c-.4,0-.8-.16-1.21-.18-.94,0-2.18.34-2.74-.12-.79-.67-1.11-1.92-1.56-3-1.41-3.3-2.78-6.61-4.19-9.92a1.87,1.87,0,0,0-2-1.09c-5.78,0-11.56,0-17.35-.07-6.83-.09-13.66-.25-20.49-.36-2.92-.05-3.08.18-4.38,3.11-1.37,3.1-2.93,6.11-4.41,9.16-.25.52-.5,1-.84,1.73Zm51.53-59.67c-1.19,2.19-2.21,3.92-3.08,5.73-1.72,3.56-3.31,7.18-5,10.75-2.12,4.43-4.34,8.83-6.45,13.27a2.71,2.71,0,0,0-.09,1.8c.07.2.92.18,1.42.23a7.66,7.66,0,0,0,.83,0c3.32.07,6.64.18,10,.21,4.81.05,9.63,0,14.45.06,1.3,0,1.64-.41,1.13-1.64-.77-1.87-1.62-3.72-2.4-5.6-1.26-3-2.47-6-3.74-9q-2.51-5.91-5.07-11.8C136.15,467.45,135.51,466.23,134.76,464.68Z" transform="translate(-0.63 -361.56)"/>
    <path d="M349.29,384.75c-1.77.49-3.4.84-5,1.39-2,.7-3.91,1.56-5.86,2.34-.55.22-1.13.35-1.68.56s-1.14.55-1.72.76-1.37.81-1.9-.17c-1.36-2.54-3.78-3.77-6.21-4.95-4.16-2-8.64-2.53-13.22-2.83a57.09,57.09,0,0,0-10.3.64,7.89,7.89,0,0,0-6.69,6.95,5.13,5.13,0,0,0,1.31,3c1.74,2.21,4.45,2.6,7,3.25,2.17.56,4.38,1,6.59,1.45.92.19,1.87.3,2.8.47,2.27.4,4.53.79,6.79,1.22,3.15.61,6.31,1.21,9.44,1.89a17.9,17.9,0,0,1,2.56,1c2.18.85,4.39,1.62,6.53,2.56a10.94,10.94,0,0,1,2.95,1.87,17.65,17.65,0,0,1,6,10.9A24,24,0,0,1,347.35,428a14.84,14.84,0,0,1-2.91,4.4A23.88,23.88,0,0,1,332,440.21a66.13,66.13,0,0,1-13,2.4,120.94,120.94,0,0,1-14.85-.43,38.56,38.56,0,0,1-12.35-2.92,25,25,0,0,1-9-5.83c-1.23-1.32-2.75-2.41-3.85-3.83-1.74-2.26-3.23-4.72-4.94-7.26,2.45-.56,4.65-1,6.84-1.58,2.83-.7,5.64-1.49,8.49-2.16a1.38,1.38,0,0,1,1.18.58c1.25,3.15,3.9,4.94,6.53,6.7a20.84,20.84,0,0,0,4.63,2.36,34,34,0,0,0,5.66,1.35,30.51,30.51,0,0,0,5.3.45c2.4-.05,4.8-.3,7.18-.56a14.38,14.38,0,0,0,3.45-.77,23.74,23.74,0,0,0,4.79-2.22,10.56,10.56,0,0,0,2.93-3.06,5.39,5.39,0,0,0-2.64-7.67,70.49,70.49,0,0,0-7-1.92c-2.59-.61-5.22-1.1-7.84-1.6-1.74-.32-3.51-.51-5.24-.87-4.19-.89-8.41-1.68-12.54-2.82a34.07,34.07,0,0,1-7.08-3,15.63,15.63,0,0,1-7.88-10.14c-1.64-6.44-.37-12.39,4.11-17.32a22.13,22.13,0,0,1,6-4.64,34,34,0,0,1,11.26-4.06,74.62,74.62,0,0,1,11.67-.67,82.9,82.9,0,0,1,12,1.14,32.08,32.08,0,0,1,10,3.42,51.93,51.93,0,0,1,11.54,9A27.22,27.22,0,0,1,349.29,384.75Z" transform="translate(-0.63 -361.56)"/>
    <path d="M95.05,368.65h19.13l20.56,51.4c.53-1.29.93-2.28,1.35-3.27q1.88-4.42,3.78-8.84c1.41-3.3,2.8-6.61,4.27-9.89,1.33-3,2.75-5.87,4.12-8.81.91-2,1.79-3.94,2.69-5.91L156.12,372c.08-.17.19-.32.25-.49.92-2.58.92-2.5,3.75-2.37s5.57.1,8.35.12H177c-.56,1.06-1,1.82-1.36,2.6-2,4.28-4,8.59-6.05,12.85-1.81,3.75-3.76,7.42-5.59,11.16-3.51,7.2-6.95,14.44-10.46,21.64-1.46,3-3.09,5.92-4.53,8.93a102.52,102.52,0,0,0-4.29,9.66c-.88,2.46-2.25,3.08-4.73,2.92-4.13-.27-8.28-.16-12.43-.18-1.37,0-2.17-.24-2.71-1.91a92.68,92.68,0,0,0-4-9.24l-7.1-16c-1.41-3.17-2.88-6.33-4.25-9.52-2.31-5.4-4.51-10.84-6.84-16.22-1.45-3.35-3.1-6.62-4.58-10C97,373.58,96.07,371.15,95.05,368.65Z" transform="translate(-0.63 -361.56)"/>
    <path d="M197.58,370c1.89,0,3.58,0,5.27,0,1.2,0,2.4-.11,3.59-.12,3.07,0,6.13,0,9.2-.07a1.46,1.46,0,0,1,1.67,1.13q3.41,8.68,6.94,17.33c1.79,4.37,3.69,8.69,5.48,13.05q2.79,6.81,5.45,13.67c.67,1.72,1.19,3.49,1.79,5.24a13.76,13.76,0,0,0,.65,1.24c6.61-17.62,15.21-34,22.25-51.09H279.4c-.52,1-1,1.79-1.38,2.63-2.67,5.65-5.27,11.32-8,16.95-3.39,7.05-6.89,14.06-10.31,21.11q-3.6,7.44-7.08,14.95c-1,2.08-1.74,4.25-2.68,6.34-1.08,2.42-2.23,4.81-3.4,7.19a1.34,1.34,0,0,1-1,.48c-4,.11-7.94.21-11.91.23a18.31,18.31,0,0,1-4.44-.39c-.58-.14-1.07-1.08-1.38-1.76-1.3-2.82-2.51-5.68-3.78-8.52-1.71-3.86-3.44-7.7-5.18-11.55-2.1-4.66-4.25-9.29-6.31-14-1.65-3.75-3.16-7.56-4.81-11.31s-3.56-7.69-5.29-11.56C200.82,377.52,199.25,373.83,197.58,370Z" transform="translate(-0.63 -361.56)"/>
    <path d="M209.19,426a16.49,16.49,0,0,1-4,7.17,16.07,16.07,0,0,1-6.83,4.67,35.57,35.57,0,0,1-8.08,1.58,29.4,29.4,0,0,1-7.5-.13A40.7,40.7,0,0,1,174.9,437a16,16,0,0,1-7.13-5.85,19.12,19.12,0,0,1,.64-22.67c2.42-3,9.07-7.08,14.21-7.34a56.25,56.25,0,0,1,10,0,25.58,25.58,0,0,1,9.41,3,12.62,12.62,0,0,1,6.75,8.92,1.42,1.42,0,0,1-.83,0c-2.87.09-5.45.19-7.78.2-.54-.89-2.38-5.05-10-5.75a21.73,21.73,0,0,0-7.54.49c-6.45,1.95-9.41,7.31-8.83,13.69a11.71,11.71,0,0,0,5.38,9.2,11.84,11.84,0,0,0,5.12,1.94,37.63,37.63,0,0,0,8.28-.3c3.24-.44,5.16-2.83,6.64-5.5a1.81,1.81,0,0,1,1.9-1.1C203.73,426,206.39,426,209.19,426Z" transform="translate(-0.63 -361.56)"/>
    <path d="M197.37,393.12a31.22,31.22,0,0,0-3.25,4.08c-1.16,2.09-3,2-4.86,2-2.2,0-4.4.08-6.6,0a2.72,2.72,0,0,1-1.73-.78c-1.31-1.48-2.49-3.08-3.71-4.64-.07-.09-.05-.26-.09-.58,1.73,0,3.42,0,5.11,0a1.29,1.29,0,0,1,.67.39,41.5,41.5,0,0,1,3.29,3.06c.66.74,1.09.56,1.64,0a16.18,16.18,0,0,0,2.12-2.1,4.08,4.08,0,0,1,4-1.51C195,393.18,196.06,393.12,197.37,393.12Z" transform="translate(-0.63 -361.56)"/>
    <path class="cls-5" d="M80.08,413.94c-1.45,2.72-2.77,5.18-4.22,7.91L67,417.49c.43-.93.78-1.8,1.22-2.63.76-1.44,1.64-2.82,2.36-4.28.38-.8.78-.85,1.47-.46,1.47.81,2.93,1.64,4.44,2.36C77.64,413,78.86,413.45,80.08,413.94Z" transform="translate(-0.63 -361.56)"/>
    <path class="cls-5" d="M56,460c-2.61-1.39-5-2.78-7.55-4-1-.47-1.09-.92-.66-1.77,1-1.9,1.89-3.8,2.84-5.7.34-.68.84-.69,1.48-.34,2.25,1.23,4.51,2.46,6.8,3.63.64.32,1,.66.67,1.34-1.06,2.18-2.15,4.35-3.25,6.51C56.27,459.87,56.08,460,56,460Z" transform="translate(-0.63 -361.56)"/>
    <path class="cls-5" d="M41.29,466.91c2.83,1.5,5.5,2.91,8.15,4.35a.87.87,0,0,1,.31.75c-1.25,2.35-2.54,4.68-3.84,7.05-2.64-1.32-5.18-2.62-7.76-3.85-.72-.35-.82-.83-.52-1.4C38.8,471.53,40,469.28,41.29,466.91Z" transform="translate(-0.63 -361.56)"/>
    <path class="cls-5" d="M76.89,398.49c1.15-2.14,2.25-4.27,3.44-6.34a1.27,1.27,0,0,1,1.17-.36c2.4,1.12,4.77,2.31,7.12,3.54a1.22,1.22,0,0,1,.5,1.06c-1.07,2.27-2.24,4.51-3.38,6.75a.45.45,0,0,1-.17.13C82.74,401.7,79.93,400.16,76.89,398.49Z" transform="translate(-0.63 -361.56)"/>
    <path class="cls-5" d="M66.12,440.53c-2.82-1.43-5.48-2.76-8.09-4.16a1.23,1.23,0,0,1-.28-1.17c.78-1.66,1.81-3.22,2.47-4.93s1.72-.91,2.48-.56c2.16,1,4.23,2.18,6.29,3.36a1.32,1.32,0,0,1,.52,1.11C68.44,436.3,67.28,438.38,66.12,440.53Z" transform="translate(-0.63 -361.56)"/>
    <path class="cls-5" d="M39.75,490.81l-4,7.3-8.2-4.28,3.86-7.43Z" transform="translate(-0.63 -361.56)"/>
    <path class="cls-5" d="M21.76,504.76l8,4.35c-1.32,2.31-2.52,4.42-3.72,6.54-.34.61-.65.82-1.4.41-2.05-1.1-4.17-2-6.23-3.13a1.08,1.08,0,0,1-.27-1c.69-1.46,1.47-2.88,2.21-4.33C20.77,506.76,21.18,505.92,21.76,504.76Z" transform="translate(-0.63 -361.56)"/>
    <path class="cls-5" d="M134.76,464.68c.75,1.55,1.39,2.77,1.94,4q2.56,5.9,5.07,11.8c1.27,3,2.48,6,3.74,9,.78,1.88,1.63,3.73,2.4,5.6.51,1.23.17,1.65-1.13,1.64-4.82,0-9.64,0-14.45-.06-3.32,0-6.64-.14-10-.21a7.66,7.66,0,0,1-.83,0c-.5,0-1.35,0-1.42-.23a2.71,2.71,0,0,1,.09-1.8c2.11-4.44,4.33-8.84,6.45-13.27,1.71-3.57,3.3-7.19,5-10.75C132.55,468.6,133.57,466.87,134.76,464.68Z" transform="translate(-0.63 -361.56)"/>
</svg>