<svg xmlns="http://www.w3.org/2000/svg" viewBox="0 0 324.44 146.6"><defs><style>.cls-1{fill:#fff;}.cls-2{fill:#de0a1d;}</style></defs><g id="Layer_2" data-name="Layer 2"><g id="Vrstva_1" data-name="Vrstva 1"><rect class="cls-1" x="166.04" y="60.65" width="30.72" height="6.54"/><polygon class="cls-1" points="154.06 0.01 154.06 6.54 154.06 60.66 154.06 67.19 160.6 67.19 160.6 60.66 160.6 6.54 160.6 0.01 154.06 0.01"/><polygon class="cls-1" points="266.44 0.01 265.57 1.85 263.36 6.54 237.93 60.66 234.86 67.19 242.09 67.19 245.16 60.66 269.15 9.62 292.76 60.66 295.78 67.19 302.99 67.19 299.96 60.66 274.94 6.54 272.78 1.89 271.92 0.01 266.44 0.01"/><polygon class="cls-1" points="191.13 0.01 191.14 6.54 213.11 6.54 213.11 60.66 213.11 67.19 219.65 67.19 219.65 60.66 219.65 6.54 241.62 6.54 241.62 0.01 191.13 0.01"/><path class="cls-1" d="M39.4,67.19h7.82A33.6,33.6,0,0,0,48.38,0H33.22V6.55h14a27,27,0,0,1,0,54.1H28V0H21.4V67.19Z"/><rect class="cls-2" x="105.45" y="29.52" width="27.98" height="6.54"/><polygon class="cls-2" points="93.14 0.01 93.14 6.54 93.14 60.66 93.14 67.19 99.68 67.19 138.95 67.19 138.95 60.66 99.68 60.66 99.68 6.54 138.95 6.54 138.95 0.01 93.14 0.01"/><path class="cls-2" d="M0,107.19l1.82-.4c.56,2.33,1.47,3.63,3.33,3.63a2.37,2.37,0,0,0,2.59-2.13,2.9,2.9,0,0,0,0-.51C7.73,104,.66,102.1.66,97.1a4,4,0,0,1,3.75-4.23,4.34,4.34,0,0,1,.51,0c2.61,0,3.85,1.8,4.56,4.51l-1.8.48c-.56-2.1-1.32-3.19-2.81-3.19a2.07,2.07,0,0,0-2.26,1.86,1.62,1.62,0,0,0,0,.44c0,4.16,7.07,5.71,7.07,10.73a4.3,4.3,0,0,1-4.1,4.5,3.53,3.53,0,0,1-.46,0c-3,0-4.36-1.88-5.12-5"/><path class="cls-2" d="M12.76,109.07v-9h-1.6V98.49h1.6V93.72h1.9v4.77h2.41v1.62H14.66v8.48c0,1.31.33,1.82,1.44,1.82a2.17,2.17,0,0,0,1-.18v1.6a5.13,5.13,0,0,1-1.35.15c-2,0-3-.68-3-2.91"/><path class="cls-2" d="M19.4,98.49h1.88v2.13h0a3.82,3.82,0,0,1,3.37-2.33H25l-.13,1.86h-.38a3.88,3.88,0,0,0-3.19,2.42v9.31H19.4Zm-.61-5.32H20l1.72,2.15,1.73-2.15h1.19l-2.31,4H21.07Z"/><path class="cls-2" d="M32.31,104.19c-.07-2.48-.68-4.23-2.15-4.23s-2.23,1.22-2.39,4.23Zm-6.41,1c0-4.75,1.72-6.9,4.28-6.9,2.89,0,4,3.09,4,6.87v.53H27.79c0,3,.83,4.75,2.48,4.75,1.32,0,1.91-.89,2.34-2.44l1.54.47c-.63,2.43-2,3.63-4,3.63-2.62,0-4.26-2.24-4.26-6.91"/><path class="cls-2" d="M42.61,108.79v-7.13A3.36,3.36,0,0,0,40.23,100c-1.42,0-2.23,1.37-2.23,5.1s.83,5.22,2.25,5.22a3.35,3.35,0,0,0,2.36-1.57m-6.54-3.6c0-5,1.55-6.87,3.73-6.87a3.31,3.31,0,0,1,2.81,1.75V93.15h1.9V108.6a12.45,12.45,0,0,0,.28,3.28h-2a12.12,12.12,0,0,1-.2-1.59A3.67,3.67,0,0,1,39.7,112c-2.18,0-3.65-1.87-3.65-6.87"/><path class="cls-2" d="M47.43,98.49h1.88v1.7a5.07,5.07,0,0,1,3.5-1.87c1.72,0,2.59.94,2.59,3.4v10.19H53.49v-9.76c0-1.37-.33-2.06-1.34-2.06a5.06,5.06,0,0,0-2.84,1.63v10.19H47.43Z"/><path class="cls-2" d="M60.35,93.19h2.1L60,97.1H58.68Zm-2,5.3h1.9v13.39h-1.9Z"/><path class="cls-2" d="M70.39,93.19h1.22l1.72,2.16,1.73-2.16h1.19l-2.31,4H72.67ZM69.1,109l1.59-.69c.54,1.43,1.35,2.28,2.59,2.28a1.78,1.78,0,0,0,2-1.78c0-2.84-5.6-3-5.6-7.23a3.36,3.36,0,0,1,3.44-3.29h.11c2,0,3.12,1.14,3.8,3l-1.6.64c-.38-1.22-1.11-2-2.18-2a1.58,1.58,0,0,0-1.71,1.44.76.76,0,0,0,0,.15c0,2.89,5.6,3.1,5.6,7.23,0,2-1.47,3.43-3.85,3.43-2.11,0-3.43-1.25-4.21-3.2"/><path class="cls-2" d="M79.5,93.12h1.85v12.45c.35-.86,1-2,1.44-2.89l2.26-4.19H86.9l-2.81,5,3.24,8.39h-1.9l-2.53-6.53-1.55,2.71v3.83H79.5Z"/><path class="cls-2" d="M95.12,105.19c0-3-.58-5.23-2.38-5.23s-2.46,2-2.46,5.23c0,3.07.61,5.28,2.46,5.28s2.38-2,2.38-5.28m-6.74,0c0-4.62,1.64-6.9,4.36-6.9s4.31,2.28,4.31,6.9-1.65,6.91-4.31,6.91-4.36-2.31-4.36-6.91"/><rect class="cls-2" x="99.59" y="93.11" width="1.9" height="18.77"/><path class="cls-2" d="M109.94,108.81v-4.26c-3.07.81-4.14,2.44-4.14,4,0,1.35.61,1.85,1.5,1.85a3.72,3.72,0,0,0,2.64-1.55m-6-.12c0-2.49,2-4.65,6-5.71v-1c0-1.3-.46-2.06-1.53-2.06a4.61,4.61,0,0,0-3,1.75l-1.16-1.19a6,6,0,0,1,4.38-2.23c2.31,0,3.15,1.29,3.15,3.73v6.57a12.08,12.08,0,0,0,.28,3.29h-1.91a5.51,5.51,0,0,1-.22-1.62,4,4,0,0,1-3.35,1.75c-1.67,0-2.61-1.22-2.61-3.32"/><path class="cls-2" d="M121.56,98.49h1.9v13.39h-1.9Zm0-4.74h2V96h-2Z"/><path class="cls-2" d="M126.53,98.49h1.88v1.7a5.07,5.07,0,0,1,3.5-1.87c1.72,0,2.58.94,2.58,3.4v10.19h-1.9v-9.76c0-1.37-.33-2.06-1.34-2.06a5,5,0,0,0-2.84,1.63v10.19h-1.88Z"/><path class="cls-2" d="M138,100.12h-1.6V98.49H138V96.26c0-2.18,1.12-3.17,3.22-3.17a7,7,0,0,1,.79,0v1.65c-.2,0-.41,0-.61,0-.91,0-1.5.41-1.5,1.55v2.18h2v1.62h-2v11.77H138Z"/><path class="cls-2" d="M149.84,105.19c0-3-.58-5.23-2.38-5.23s-2.46,2-2.46,5.23c0,3.07.61,5.28,2.46,5.28s2.38-2,2.38-5.28m-6.75,0c0-4.62,1.65-6.9,4.37-6.9s4.31,2.28,4.31,6.9-1.65,6.91-4.31,6.91-4.37-2.31-4.37-6.91"/><path class="cls-2" d="M154.18,98.49h1.88v2.13h.05a3.82,3.82,0,0,1,3.37-2.33h.28l-.13,1.86h-.38a3.88,3.88,0,0,0-3.19,2.42v9.31h-1.88Z"/><path class="cls-2" d="M161.74,98.49h1.88v1.7a4.7,4.7,0,0,1,3.38-1.9,2.24,2.24,0,0,1,2.4,1.9,4.88,4.88,0,0,1,3.45-1.93c1.75,0,2.56,1,2.56,3.43v10.17h-1.9V102.1c0-1.37-.28-2.06-1.35-2.06a4.06,4.06,0,0,0-2.66,1.63v10.19h-1.88V102.1c0-1.37-.28-2.11-1.32-2.11s-1.8.76-2.68,1.68v10.19h-1.88Z"/><path class="cls-2" d="M183.63,108.81v-4.26c-3.07.81-4.13,2.44-4.13,4,0,1.35.6,1.85,1.49,1.85a3.72,3.72,0,0,0,2.64-1.55m-6-.12c0-2.49,2-4.65,6-5.71v-1c0-1.3-.46-2.06-1.52-2.06a4.61,4.61,0,0,0-3,1.75L178,100.52a6,6,0,0,1,4.39-2.23c2.3,0,3.14,1.29,3.14,3.73v6.57a12.49,12.49,0,0,0,.28,3.29h-1.9a5.2,5.2,0,0,1-.23-1.62,4,4,0,0,1-3.35,1.75c-1.67,0-2.61-1.22-2.61-3.32"/><path class="cls-2" d="M189,109.07v-9h-1.6V98.49H189V93.72h1.9v4.77h2.41v1.62H190.9v8.48c0,1.31.33,1.82,1.45,1.82a2.17,2.17,0,0,0,1-.18v1.6A5.06,5.06,0,0,1,192,112c-2,0-3-.68-3-2.91"/><path class="cls-2" d="M195.78,98.49h1.9v13.39h-1.9Zm0-4.74h1.95V96h-1.95Z"/><path class="cls-2" d="M200.75,93.12h1.86v12.45c.35-.86,1-2,1.44-2.89l2.26-4.19h1.85l-2.82,5,3.25,8.39h-1.9l-2.54-6.53-1.54,2.71v3.83h-1.86Z"/><path class="cls-2" d="M209.13,116.68l.4-1.55a3.49,3.49,0,0,0,1.24.18c1,0,1.4-.71,1.8-2.26l.38-1.37-3.44-13.19h1.9l1.8,7.43c.25,1.14.43,1.93.68,3.43h.05c.26-1.48.44-2.29.71-3.4l1.8-7.46h1.81l-3.94,14.84c-.65,2.56-1.42,3.65-3.44,3.65a4.55,4.55,0,0,1-1.75-.3"/><path class="cls-2" d="M232.13,108.81v-4.26c-3.06.81-4.13,2.44-4.13,4,0,1.35.61,1.85,1.5,1.85a3.68,3.68,0,0,0,2.63-1.55m-6-.12c0-2.49,2-4.65,6-5.71v-1c0-1.3-.45-2.06-1.52-2.06a4.61,4.61,0,0,0-3,1.75l-1.17-1.19a6,6,0,0,1,4.39-2.23c2.31,0,3.14,1.29,3.14,3.73v6.57a12.49,12.49,0,0,0,.28,3.29h-1.9a5.2,5.2,0,0,1-.23-1.62,4,4,0,0,1-3.34,1.75c-1.68,0-2.62-1.22-2.62-3.32"/><path class="cls-2" d="M249.51,104.19c-.08-2.48-.69-4.23-2.16-4.23s-2.23,1.23-2.35,4.23Zm-6.42,1c0-4.75,1.73-6.9,4.29-6.9,2.89,0,4,3.09,4,6.87v.53H245c0,3,.84,4.75,2.49,4.75,1.32,0,1.9-.89,2.33-2.44l1.55.47c-.63,2.43-2,3.63-4,3.63-2.61,0-4.26-2.24-4.26-6.91"/><path class="cls-2" d="M253.77,93.12h1.85v12.45c.36-.86,1-2,1.45-2.89l2.26-4.19h1.85l-2.82,5,3.25,8.39h-1.9l-2.54-6.53-1.55,2.71v3.83h-1.85Z"/><path class="cls-2" d="M269.4,105.19c0-3-.59-5.23-2.39-5.23s-2.46,2-2.46,5.23c0,3.07.61,5.28,2.46,5.28s2.39-2,2.39-5.28m-6.75,0c0-4.62,1.65-6.9,4.36-6.9s4.31,2.28,4.31,6.9-1.65,6.91-4.31,6.91-4.36-2.31-4.36-6.91"/><path class="cls-2" d="M273.74,98.49h1.87v1.7a5.11,5.11,0,0,1,3.5-1.87c1.73,0,2.59.94,2.59,3.4v10.19h-1.9v-9.76c0-1.37-.33-2.06-1.35-2.06a5.06,5.06,0,0,0-2.84,1.63v10.19h-1.87Z"/><path class="cls-2" d="M290.78,105.19c0-3-.58-5.23-2.38-5.23s-2.46,2-2.46,5.23c0,3.07.61,5.28,2.46,5.28s2.38-2,2.38-5.28m-6.78,0c0-4.62,1.64-6.9,4.36-6.9s4.31,2.28,4.31,6.9-1.65,6.91-4.31,6.91-4.36-2.31-4.36-6.91"/><path class="cls-2" d="M295.12,98.49H297v1.7a4.71,4.71,0,0,1,3.35-1.87,2.24,2.24,0,0,1,2.43,1.93,4.88,4.88,0,0,1,3.45-1.93c1.75,0,2.56,1,2.56,3.43v10.17h-1.9v-9.76c0-1.37-.28-2.06-1.35-2.06a4.06,4.06,0,0,0-2.66,1.63v10.19H301v-9.76c0-1.37-.27-2.11-1.31-2.11s-1.8.76-2.69,1.68v10.19h-1.88Z"/><path class="cls-2" d="M311.76,98.49h1.9v13.39h-1.9Zm0-4.74h1.95V96h-1.95Z"/><path class="cls-2" d="M322.62,104.19c-.08-2.48-.69-4.23-2.16-4.23s-2.23,1.22-2.38,4.23Zm-6.42,1c0-4.75,1.73-6.9,4.29-6.9,2.89,0,3.95,3.09,3.95,6.87v.53h-6.39c0,3,.84,4.75,2.49,4.75,1.32,0,1.9-.89,2.33-2.44l1.55.47c-.63,2.43-2,3.63-4,3.63-2.61,0-4.26-2.24-4.26-6.91"/><path class="cls-1" d="M62.67,138.79c1.87,0,2.66-.89,2.66-3.06s-.78-3-2.68-3H61.23v6Zm-3-7.43h3c2.58,0,4.28,1.1,4.28,4.3,0,3.56-1.87,4.49-4.38,4.49h-1.3v6.23H59.7Z"/><path class="cls-1" d="M88.06,137.63c-.31-1.47-.57-2.59-.82-4.29h-.06c-.24,1.75-.51,2.79-.81,4.28l-.67,3.09h3Zm-3.62,8.75H83l3.49-15.08H88l3.49,15.08H90L89,142H85.41Z"/><path class="cls-1" d="M112.41,138.73c2,0,2.72-.85,2.72-3s-.71-2.92-2.82-2.92H111v6Zm4.44,7.65h-1.6L112.89,140a4.17,4.17,0,0,1-.5,0H111v6.33h-1.56v-15h2.84c2.92,0,4.38,1.3,4.38,4.28a4.07,4.07,0,0,1-2.29,4Z"/><path class="cls-1" d="M138,145c2.44,0,3.33-1.9,3.33-6.15s-.89-6.07-3.35-6.07h-1.26V145Zm-2.86-13.64h2.64c3.49,0,5.15,2,5.15,7.49s-1.72,7.53-5.15,7.53h-2.64Z"/><path class="cls-1" d="M161,141.63V131.36h1.56v10c0,2.31.45,3.77,2.26,3.77s2.21-1.4,2.21-3.72v-10h1.5V141.6c0,3-.87,5-3.73,5s-3.8-2-3.8-4.91"/><path class="cls-1" d="M190.54,145c1.93,0,2.6-.93,2.6-2.84a2.57,2.57,0,0,0-2.88-2.88h-1.51V145Zm-.34-7c1.78,0,2.6-.79,2.6-2.66s-.62-2.59-2.58-2.59h-1.47v5.26Zm-3-6.66h3.07c2.76,0,4.1,1.12,4.1,3.79,0,2.29-1,3.09-2.15,3.46h0c1.36.3,2.51,1.24,2.51,3.66,0,2.78-1.4,4.08-4.18,4.08H187.2Z"/><rect class="cls-1" x="213.03" y="131.36" width="1.58" height="15.02"/><path class="cls-1" d="M233,138.87c0-5.38,1.63-7.69,4.29-7.69,2.47,0,3.47,2,3.77,4.87l-1.52.18c-.28-2.31-.91-3.59-2.25-3.59-1.87,0-2.7,2.21-2.7,6.21s.85,6.27,2.72,6.27c1.4,0,2.09-1.15,2.41-3.72l1.53.15c-.41,2.94-1.46,5-3.94,5-2.78,0-4.31-2.23-4.31-7.67"/><polygon class="cls-1" points="259.24 131.37 265.37 131.37 265.37 132.78 260.82 132.78 260.82 137.74 264.09 137.74 264.09 139.12 260.82 139.12 260.82 144.99 265.63 144.99 265.63 146.38 259.24 146.38 259.24 131.37"/></g></g></svg>