<svg id="Vrstva_1" data-name="Vrstva 1" xmlns="http://www.w3.org/2000/svg" viewBox="0 0 324.5 146.54"><defs><style>.cls-1{fill:#fff;}.cls-2{fill:#3779a6;}</style></defs><rect class="cls-1" x="166.09" y="60.65" width="30.72" height="6.54"/><polygon class="cls-1" points="154.11 0 154.11 6.54 154.11 60.65 154.11 67.19 160.65 67.19 160.65 60.65 160.65 6.54 160.65 0 154.11 0"/><polygon class="cls-1" points="266.49 0 265.62 1.85 263.41 6.54 237.98 60.65 234.91 67.19 242.14 67.19 245.21 60.65 269.2 9.61 292.81 60.65 295.83 67.19 303.04 67.19 300.01 60.65 274.99 6.54 272.83 1.88 271.97 0 266.49 0"/><polygon class="cls-1" points="191.18 0 191.19 6.54 213.16 6.54 213.16 60.65 213.16 67.19 219.7 67.19 219.7 60.65 219.7 6.54 241.67 6.54 241.67 0 191.18 0"/><path class="cls-1" d="M175.4,474h7.82a33.6,33.6,0,1,0,0-67.19h-14v6.55h14a27,27,0,1,1,0,54.1H164V406.81H157.4V474h18Z" transform="translate(-135.95 -406.81)"/><rect class="cls-2" x="105.5" y="29.52" width="27.98" height="6.54"/><polygon class="cls-2" points="93.19 0 93.19 6.54 93.19 60.65 93.19 67.19 99.73 67.19 139 67.19 139 60.65 99.73 60.65 99.73 6.54 139 6.54 139 0 93.19 0"/><path class="cls-2" d="M136,514l1.82-.4c.56,2.33,1.47,3.63,3.33,3.63a2.37,2.37,0,0,0,2.58-2.64c0-3.83-7.07-5.68-7.07-10.68a4,4,0,0,1,4.26-4.23c2.61,0,3.85,1.8,4.56,4.51l-1.8.48c-.56-2.1-1.32-3.19-2.81-3.19a2.07,2.07,0,0,0-2.26,2.3c0,4.16,7.07,5.71,7.07,10.73a4.3,4.3,0,0,1-4.56,4.49c-3,0-4.36-1.88-5.12-5" transform="translate(-135.95 -406.81)"/><path class="cls-2" d="M148.76,515.88v-9h-1.6V505.3h1.6v-4.77h1.9v4.77h2.41v1.62h-2.41v8.48c0,1.31.33,1.82,1.44,1.82a2.36,2.36,0,0,0,1-.18v1.6a5.6,5.6,0,0,1-1.35.15c-2,0-3-.68-3-2.91" transform="translate(-135.95 -406.81)"/><path class="cls-2" d="M155.4,505.3h1.88v2.13h.05a3.8,3.8,0,0,1,3.37-2.33H161l-.13,1.85h-.38a3.88,3.88,0,0,0-3.19,2.43v9.31H155.4Zm-.61-5.32H156l1.72,2.15,1.73-2.15h1.19l-2.31,4h-1.26Z" transform="translate(-135.95 -406.81)"/><path class="cls-2" d="M168.31,511c-.07-2.49-.68-4.24-2.15-4.24s-2.23,1.22-2.39,4.24Zm-6.41,1c0-4.75,1.72-6.9,4.28-6.9,2.89,0,4,3.09,4,6.87v.53h-6.39c0,3,.83,4.75,2.48,4.75,1.32,0,1.91-.89,2.34-2.44l1.54.46c-.63,2.43-2,3.63-4,3.63-2.62,0-4.26-2.24-4.26-6.9" transform="translate(-135.95 -406.81)"/><path class="cls-2" d="M178.61,515.6v-7.13a3.33,3.33,0,0,0-2.38-1.62c-1.42,0-2.23,1.37-2.23,5.1s.83,5.22,2.25,5.22a3.4,3.4,0,0,0,2.36-1.57M172.07,512c0-5,1.55-6.87,3.73-6.87a3.29,3.29,0,0,1,2.81,1.75v-6.93h1.9V515.4a12.51,12.51,0,0,0,.28,3.29h-2a12.32,12.32,0,0,1-.2-1.6,3.62,3.62,0,0,1-2.89,1.75c-2.18,0-3.65-1.87-3.65-6.87" transform="translate(-135.95 -406.81)"/><path class="cls-2" d="M183.43,505.3h1.88V507a5,5,0,0,1,3.5-1.87c1.72,0,2.59.94,2.59,3.4v10.19h-1.91v-9.76c0-1.37-.33-2.06-1.34-2.06a5,5,0,0,0-2.84,1.63v10.19h-1.88Z" transform="translate(-135.95 -406.81)"/><path class="cls-2" d="M196.35,500h2.1L196,503.91h-1.32Zm-2,5.3h1.9v13.39h-1.9Z" transform="translate(-135.95 -406.81)"/><path class="cls-2" d="M206.39,500h1.22l1.72,2.16,1.73-2.16h1.19l-2.31,4h-1.27Zm-1.29,15.78,1.59-.69c.54,1.43,1.35,2.29,2.59,2.29s2-.74,2-1.78c0-2.84-5.6-3-5.6-7.23a3.37,3.37,0,0,1,3.55-3.29c2,0,3.12,1.14,3.8,3l-1.6.64c-.38-1.22-1.11-2-2.18-2a1.58,1.58,0,0,0-1.72,1.59c0,2.89,5.6,3.1,5.6,7.23,0,2-1.47,3.43-3.85,3.43-2.11,0-3.43-1.25-4.21-3.2" transform="translate(-135.95 -406.81)"/><path class="cls-2" d="M215.5,499.92h1.85v12.46c.35-.87,1-2,1.44-2.89l2.26-4.19h1.85l-2.81,5,3.24,8.39h-1.9l-2.53-6.54-1.55,2.71v3.83H215.5Z" transform="translate(-135.95 -406.81)"/><path class="cls-2" d="M231.12,512c0-3.05-.58-5.23-2.38-5.23s-2.46,2-2.46,5.23c0,3.07.61,5.27,2.46,5.27,1.7,0,2.38-1.95,2.38-5.27m-6.74,0c0-4.62,1.64-6.9,4.36-6.9s4.31,2.28,4.31,6.9-1.65,6.9-4.31,6.9-4.36-2.31-4.36-6.9" transform="translate(-135.95 -406.81)"/><rect class="cls-2" x="99.64" y="93.11" width="1.9" height="18.77"/><path class="cls-2" d="M245.94,515.62v-4.26c-3.07.81-4.14,2.44-4.14,4,0,1.34.61,1.85,1.5,1.85a3.74,3.74,0,0,0,2.64-1.55m-6-.12c0-2.49,2-4.65,6-5.71v-1c0-1.3-.46-2.06-1.53-2.06a4.57,4.57,0,0,0-3,1.75l-1.16-1.19a5.91,5.91,0,0,1,4.38-2.23c2.31,0,3.15,1.29,3.15,3.73v6.57a12.09,12.09,0,0,0,.28,3.29h-1.91a5.58,5.58,0,0,1-.22-1.62,4,4,0,0,1-3.35,1.75c-1.67,0-2.61-1.22-2.61-3.32" transform="translate(-135.95 -406.81)"/><path class="cls-2" d="M257.56,505.3h1.9v13.39h-1.9Zm0-4.74h2v2.28h-2Z" transform="translate(-135.95 -406.81)"/><path class="cls-2" d="M262.53,505.3h1.88V507a5,5,0,0,1,3.5-1.87c1.72,0,2.58.94,2.58,3.4v10.19h-1.9v-9.76c0-1.37-.33-2.06-1.34-2.06a4.93,4.93,0,0,0-2.84,1.63v10.19h-1.88Z" transform="translate(-135.95 -406.81)"/><path class="cls-2" d="M274,506.92H272.4V505.3H274v-2.23c0-2.18,1.12-3.17,3.22-3.17a5,5,0,0,1,.79.05v1.65a3.34,3.34,0,0,0-.61,0c-.91,0-1.5.41-1.5,1.55v2.18h2v1.62h-2v11.77H274Z" transform="translate(-135.95 -406.81)"/><path class="cls-2" d="M285.84,512c0-3.05-.58-5.23-2.38-5.23s-2.46,2-2.46,5.23c0,3.07.61,5.27,2.46,5.27s2.38-1.95,2.38-5.27m-6.75,0c0-4.62,1.65-6.9,4.37-6.9s4.31,2.28,4.31,6.9-1.65,6.9-4.31,6.9-4.37-2.31-4.37-6.9" transform="translate(-135.95 -406.81)"/><path class="cls-2" d="M290.18,505.3h1.88v2.13h.05a3.8,3.8,0,0,1,3.37-2.33h.28l-.13,1.85h-.38a3.88,3.88,0,0,0-3.19,2.43v9.31h-1.88Z" transform="translate(-135.95 -406.81)"/><path class="cls-2" d="M297.74,505.3h1.88V507A4.69,4.69,0,0,1,303,505.1,2.23,2.23,0,0,1,305.4,507a4.83,4.83,0,0,1,3.45-1.93c1.75,0,2.56,1,2.56,3.42v10.17h-1.9v-9.76c0-1.37-.28-2.06-1.35-2.06a4.1,4.1,0,0,0-2.66,1.63v10.19h-1.88v-9.76c0-1.37-.28-2.11-1.32-2.11s-1.8.76-2.68,1.68v10.19h-1.88Z" transform="translate(-135.95 -406.81)"/><path class="cls-2" d="M319.63,515.62v-4.26c-3.07.81-4.13,2.44-4.13,4,0,1.34.6,1.85,1.49,1.85a3.74,3.74,0,0,0,2.64-1.55m-6-.12c0-2.49,1.95-4.65,6-5.71v-1c0-1.3-.46-2.06-1.52-2.06a4.55,4.55,0,0,0-3,1.75L314,507.33a5.92,5.92,0,0,1,4.39-2.23c2.3,0,3.14,1.29,3.14,3.73v6.57a12.51,12.51,0,0,0,.28,3.29h-1.9a5.22,5.22,0,0,1-.23-1.62,4,4,0,0,1-3.35,1.75c-1.67,0-2.61-1.22-2.61-3.32" transform="translate(-135.95 -406.81)"/><path class="cls-2" d="M325,515.88v-9h-1.6V505.3H325v-4.77h1.9v4.77h2.41v1.62h-2.41v8.48c0,1.31.33,1.82,1.45,1.82a2.35,2.35,0,0,0,1-.18v1.6a5.57,5.57,0,0,1-1.34.15c-2,0-3-.68-3-2.91" transform="translate(-135.95 -406.81)"/><path class="cls-2" d="M331.78,505.3h1.9v13.39h-1.9Zm0-4.74h1.95v2.28h-1.95Z" transform="translate(-135.95 -406.81)"/><path class="cls-2" d="M336.75,499.92h1.86v12.46c.35-.87,1-2,1.44-2.89l2.26-4.19h1.85l-2.82,5,3.25,8.39h-1.9l-2.54-6.54-1.54,2.71v3.83h-1.86Z" transform="translate(-135.95 -406.81)"/><path class="cls-2" d="M345.13,523.49l.4-1.55a3.74,3.74,0,0,0,1.24.18c1,0,1.4-.71,1.8-2.26l.38-1.37-3.44-13.19h1.9l1.8,7.43c.25,1.14.43,1.93.68,3.43h.05c.26-1.48.44-2.29.71-3.4l1.8-7.46h1.81l-3.94,14.84c-.65,2.56-1.42,3.65-3.44,3.65a4.76,4.76,0,0,1-1.75-.3" transform="translate(-135.95 -406.81)"/><path class="cls-2" d="M368.13,515.62v-4.26c-3.06.81-4.13,2.44-4.13,4,0,1.34.61,1.85,1.5,1.85a3.72,3.72,0,0,0,2.63-1.55m-6-.12c0-2.49,2-4.65,6-5.71v-1c0-1.3-.45-2.06-1.52-2.06a4.55,4.55,0,0,0-3,1.75l-1.17-1.19a5.92,5.92,0,0,1,4.39-2.23c2.31,0,3.14,1.29,3.14,3.73v6.57a12.51,12.51,0,0,0,.28,3.29h-1.9a5.22,5.22,0,0,1-.23-1.62,4,4,0,0,1-3.34,1.75c-1.68,0-2.62-1.22-2.62-3.32" transform="translate(-135.95 -406.81)"/><path class="cls-2" d="M385.51,511c-.08-2.49-.69-4.24-2.16-4.24S381.12,508,381,511Zm-6.42,1c0-4.75,1.73-6.9,4.29-6.9,2.89,0,4,3.09,4,6.87v.53h-6.4c0,3,.84,4.75,2.49,4.75,1.32,0,1.9-.89,2.33-2.44l1.55.46c-.63,2.43-2,3.63-4,3.63-2.61,0-4.26-2.24-4.26-6.9" transform="translate(-135.95 -406.81)"/><path class="cls-2" d="M389.77,499.92h1.85v12.46c.36-.87,1-2,1.45-2.89l2.26-4.19h1.85l-2.82,5,3.25,8.39h-1.9l-2.54-6.54-1.55,2.71v3.83h-1.85Z" transform="translate(-135.95 -406.81)"/><path class="cls-2" d="M405.4,512c0-3.05-.59-5.23-2.39-5.23s-2.46,2-2.46,5.23c0,3.07.61,5.27,2.46,5.27s2.39-1.95,2.39-5.27m-6.75,0c0-4.62,1.65-6.9,4.36-6.9s4.31,2.28,4.31,6.9-1.65,6.9-4.31,6.9-4.36-2.31-4.36-6.9" transform="translate(-135.95 -406.81)"/><path class="cls-2" d="M409.74,505.3h1.87V507a5.07,5.07,0,0,1,3.5-1.87c1.73,0,2.59.94,2.59,3.4v10.19h-1.9v-9.76c0-1.37-.33-2.06-1.35-2.06a5,5,0,0,0-2.84,1.63v10.19h-1.87Z" transform="translate(-135.95 -406.81)"/><path class="cls-2" d="M426.78,512c0-3.05-.58-5.23-2.38-5.23s-2.46,2-2.46,5.23c0,3.07.61,5.27,2.46,5.27s2.38-1.95,2.38-5.27M420,512c0-4.62,1.64-6.9,4.36-6.9s4.31,2.28,4.31,6.9-1.65,6.9-4.31,6.9S420,516.59,420,512" transform="translate(-135.95 -406.81)"/><path class="cls-2" d="M431.12,505.3H433V507a4.69,4.69,0,0,1,3.35-1.87,2.23,2.23,0,0,1,2.43,1.93,4.83,4.83,0,0,1,3.45-1.93c1.75,0,2.56,1,2.56,3.42v10.17h-1.9v-9.76c0-1.37-.28-2.06-1.35-2.06a4.1,4.1,0,0,0-2.66,1.63v10.19H437v-9.76c0-1.37-.27-2.11-1.31-2.11s-1.8.76-2.69,1.68v10.19h-1.88Z" transform="translate(-135.95 -406.81)"/><path class="cls-2" d="M447.76,505.3h1.9v13.39h-1.9Zm0-4.74h1.95v2.28h-1.95Z" transform="translate(-135.95 -406.81)"/><path class="cls-2" d="M458.62,511c-.08-2.49-.69-4.24-2.16-4.24s-2.23,1.22-2.38,4.24Zm-6.42,1c0-4.75,1.73-6.9,4.29-6.9,2.89,0,3.95,3.09,3.95,6.87v.53h-6.39c0,3,.84,4.75,2.49,4.75,1.32,0,1.9-.89,2.33-2.44l1.55.46c-.63,2.43-2,3.63-4,3.63-2.61,0-4.26-2.24-4.26-6.9" transform="translate(-135.95 -406.81)"/><path class="cls-1" d="M198.67,545.6c1.87,0,2.66-.89,2.66-3.06s-.78-3-2.68-3h-1.42v6Zm-3-7.43h3c2.58,0,4.28,1.1,4.28,4.3,0,3.56-1.87,4.49-4.38,4.49h-1.3v6.23h-1.57Z" transform="translate(-135.95 -406.81)"/><path class="cls-1" d="M224.06,544.44c-.31-1.48-.57-2.59-.82-4.3h-.06c-.24,1.75-.51,2.8-.81,4.28l-.67,3.09h3Zm-3.62,8.75H219l3.49-15.08H224l3.49,15.08H226l-1-4.4h-3.59Z" transform="translate(-135.95 -406.81)"/><path class="cls-1" d="M248.41,545.54c2,0,2.72-.85,2.72-3s-.71-2.92-2.82-2.92H247v6Zm4.44,7.65h-1.6l-2.36-6.35a4,4,0,0,1-.5,0H247v6.33h-1.56v-15h2.84c2.92,0,4.38,1.3,4.38,4.28a4.06,4.06,0,0,1-2.29,4Z" transform="translate(-135.95 -406.81)"/><path class="cls-1" d="M274,551.81c2.44,0,3.33-1.91,3.33-6.15s-.89-6.07-3.35-6.07h-1.26v12.22Zm-2.86-13.64h2.64c3.49,0,5.15,2,5.15,7.49s-1.72,7.53-5.15,7.53h-2.64Z" transform="translate(-135.95 -406.81)"/><path class="cls-1" d="M297,548.44V538.17h1.56v10c0,2.31.45,3.77,2.26,3.77s2.21-1.4,2.21-3.73V538.17h1.5V548.4c0,3-.87,5-3.73,5s-3.8-2-3.8-4.91" transform="translate(-135.95 -406.81)"/><path class="cls-1" d="M326.54,551.85c1.93,0,2.6-.93,2.6-2.84s-1-2.88-2.88-2.88h-1.51v5.72Zm-.34-7c1.78,0,2.6-.79,2.6-2.66s-.62-2.6-2.58-2.6h-1.47v5.26Zm-3-6.66h3.07c2.76,0,4.1,1.12,4.1,3.78,0,2.29-1,3.1-2.15,3.47v0c1.36.3,2.51,1.24,2.51,3.65,0,2.78-1.4,4.08-4.18,4.08h-3.35Z" transform="translate(-135.95 -406.81)"/><rect class="cls-1" x="213.08" y="131.36" width="1.58" height="15.02"/><path class="cls-1" d="M369,545.68c0-5.38,1.63-7.69,4.29-7.69,2.47,0,3.47,2,3.77,4.87l-1.52.18c-.28-2.31-.91-3.59-2.25-3.59-1.87,0-2.7,2.21-2.7,6.21s.85,6.27,2.72,6.27c1.4,0,2.09-1.15,2.41-3.73l1.53.16c-.41,2.94-1.46,5-3.94,5-2.78,0-4.31-2.23-4.31-7.67" transform="translate(-135.95 -406.81)"/><polygon class="cls-1" points="259.29 131.36 265.42 131.36 265.42 132.78 260.87 132.78 260.87 137.73 264.14 137.73 264.14 139.11 260.87 139.11 260.87 144.98 265.68 144.98 265.68 146.38 259.29 146.38 259.29 131.36"/></svg>