<svg xmlns="http://www.w3.org/2000/svg" viewBox="0 0 624 314.55">
    <defs>
        <style>.cls-1{fill:#fafafa;}</style>
    </defs>
    <g id="Vrstva_2" data-name="Vrstva 2">
        <path class="cls-1" d="M173.07,262.3a190.79,190.79,0,0,1-4.28-43.91,181.7,181.7,0,0,1,4.75-36.79,40.82,40.82,0,0,1-6.09-9.91,43.94,43.94,0,0,1-3.39-15.26c-1.19-16.08-1.78-24.12-.66-33.54,1.1-9.23,3.35-17.84,7.83-35.06a59.92,59.92,0,0,0,2-22.82,57.39,57.39,0,0,0-1.05-6.16c-2.19.47-4.59,1-7.15,1.67s-5.19,1.37-7.56,2.06l-6-17.86a160.66,160.66,0,0,1,16.69-3.24l.27,0c1.55-.23,3.1-.42,4.67-.59,0,0,0,0,0,.06l.59-.06c1.26-.11,2.49-.2,3.7-.29.12-.27.25-.49.38-.75v-.07a30.91,30.91,0,0,1,3.36-5.41c-1.05,0-2.1,0-3.16.06q-3.63.2-7.49.51c-2.52.23-4.95.48-7.32.77C148.37,37.87,106,46.13,69.25,82.24,27.62,123.14,20.93,172.4,19.52,186.3c2.4-.11,4.91-.16,7.5-.12.38-3.22.87-6.59,1.51-10.07a176.05,176.05,0,0,1,4.15-17.66l22.49,7c-1,3.56-1.89,7.38-2.65,11.45-.33,1.79-.62,3.53-.88,5.24,8.72,2.91,21.69,8.72,31.12,21.05,12.64,16.54,8.5,31.17,20.14,47.89,5.48,7.87,15.91,18.27,37.59,25,.15-1.95.3-3.89.46-5.85s.3-3.72.45-5.49l.43.17s11.19,7.53,23.35,10.46c1.18,6.44,2.55,12.49,4,18.09a79.34,79.34,0,0,0,13.3-.05A191,191,0,0,1,173.07,262.3ZM140.75,47.75,146.9,66c-2.7,1-4.94,1.83-6.61,2.53a148.38,148.38,0,0,0-15.59,7.7L112.92,59.53A166.19,166.19,0,0,1,140.75,47.75ZM103.28,65.12l12,16.91A145.51,145.51,0,0,0,97.3,96.17L82,80.88A161.81,161.81,0,0,1,103.28,65.12ZM58.5,154.87l-22.35-7c.21-.58.4-1.11.58-1.57A165.48,165.48,0,0,1,49.48,120l19.81,11.43A147.68,147.68,0,0,0,58.5,154.87Zm65.07,37.56c-13.24-18.55-8.72-34.33-21.61-54.73a77.52,77.52,0,0,0-22-22.43q-2.5,3.32-4.83,6.75L55.48,110.68a161.51,161.51,0,0,1,14-17.58C71,91.53,72.42,90,73.92,88.48L89.44,104a38.94,38.94,0,0,0-2.69,3q-1.11,1.36-2,2.64c13,9.18,20.35,18.8,24.68,26,14,23.49,10.43,45.45,29.87,62.72a54.47,54.47,0,0,0,9.51,6.78c.35-1.13.7-2.35,1-3.65s.59-2.66.8-3.89a52.36,52.36,0,0,0,5,5.33,50.65,50.65,0,0,0,6.49,5c-.63,6.27-.95,12.4-1.06,18.33-1.32-.55-2.68-1.16-4.06-1.86a62.81,62.81,0,0,1-10.5-6.59c.1-1,.23-2.08.38-3.17.1-.7.21-1.39.32-2.06C135.21,206.2,128,198.67,123.57,192.43ZM159.24,261a62.87,62.87,0,0,1-16.68-9.45c.83-8.79,1.58-15.68,2.22-21a74.79,74.79,0,0,0,16.47,8.64c.19,5.08.53,10,1,14.53q.4,4.39.95,8.61C161.88,262,160.58,261.54,159.24,261Zm5.4-70.32c-.44,2.3-.81,4.53-1.14,6.71-.5-.36-1-.75-1.52-1.16a45.61,45.61,0,0,1-8.19-8.57c.44-1.51.89-3,1.35-4.55,1.08-3.62,2.19-7.18,3.3-10.69A27.75,27.75,0,0,0,166,184.28C165.53,186.34,165.07,188.48,164.64,190.71Zm123.3,14.71a5.77,5.77,0,0,1,4.78-.9c2.63.62,2.82,2.58,5.09,4.2,0-.37,0-.68,0-.93-.11-7.09-2.86-12.46-8.35-22.93-4.19-8-5.76-9.37-14.18-23-6.61-10.71-5.72-10-12.58-21.18-10.32-16.83-11.11-16.46-15.67-25.11-6.61-12.53-5-13.39-10.7-22.5C235,91,232.75,87.52,220.8,73.33c-6-7.07-11-12.9-14.63-17a51.74,51.74,0,0,1-.45-22.56A50.64,50.64,0,0,1,209.23,23a59.63,59.63,0,0,0-17,13.07c-1.14,1.28-2.21,2.58-3.19,3.87,0,0,0,0,0,0s-.06.09-.09.14l-.05.07s0,0,0,.08h0a0,0,0,0,0,0,0,54.2,54.2,0,0,0-5.41,11.1A54.89,54.89,0,0,0,180.83,62c-.15,1-.27,2.42-.28,2.52-.3,3-.42,5.47-.47,7.19,0,1.47,0,3-.13,4.55-.79,13.82-4.92,20.38-7.72,35.58a129.24,129.24,0,0,0-1.91,30.25,61.93,61.93,0,0,0,.3,9.45,58.91,58.91,0,0,0,1.48,8.21c.66,2.16,1.33,4.31,2,6.47a67.43,67.43,0,0,0,2.77,6.41s0,0,0,0a45.22,45.22,0,0,0,10.77,13c11.58,9.47,19.58,5.82,43.37,20a117.42,117.42,0,0,1,21.44,16,113.35,113.35,0,0,1,14,16c1.8.11,15.83.75,24.85-9.88a26,26,0,0,0,4.11-6.66,28.9,28.9,0,0,1-3.89-2.78c-1.73-1.44-5.66-4.71-5.4-8.94A5.78,5.78,0,0,1,287.94,205.42ZM225.09,124a6.39,6.39,0,0,1-2.34.93,6.8,6.8,0,0,1-4-.58,16.9,16.9,0,0,1-7.61-7c-3.75-7-2.28-17.39,1.41-18.55,2.29-.71,5.15,2.47,10.9,8.83,5.35,5.93,5.55,8.21,5.53,9.54C228.93,120.09,226.91,122.43,225.09,124Z"/>
        <path class="cls-1" d="M322,102.35a9.55,9.55,0,0,1,3.87,3.82,11.47,11.47,0,0,1,1.38,5.69,11.13,11.13,0,0,1-1.4,5.62,9.59,9.59,0,0,1-4,3.77,12.89,12.89,0,0,1-6,1.32h-8.32a.23.23,0,0,0-.26.26v14a.59.59,0,0,1-.18.44.58.58,0,0,1-.44.19h-4.78a.6.6,0,0,1-.45-.19.59.59,0,0,1-.18-.44v-35.2a.6.6,0,0,1,.18-.44.64.64,0,0,1,.45-.19h14.3A12,12,0,0,1,322,102.35Zm-2.39,13.78a5.48,5.48,0,0,0,1.61-4.11,5.71,5.71,0,0,0-1.61-4.21,5.77,5.77,0,0,0-4.27-1.62h-7.75a.23.23,0,0,0-.26.26v11a.23.23,0,0,0,.26.26h7.75A5.89,5.89,0,0,0,319.6,116.13Z"/>
        <path class="cls-1" d="M352.15,136.93l-1.72-5.57c-.07-.14-.15-.21-.26-.21H336.44c-.1,0-.19.07-.26.21l-1.71,5.57a.67.67,0,0,1-.68.52h-5.2a.5.5,0,0,1-.52-.73l11.29-35.15a.64.64,0,0,1,.67-.52h6.5a.66.66,0,0,1,.68.52l11.33,35.15a.5.5,0,0,1,.06.26c0,.31-.19.47-.58.47h-5.2A.65.65,0,0,1,352.15,136.93ZM338,126.42h10.56c.21,0,.28-.1.21-.31l-5.36-17.42q0-.21-.15-.21c-.07,0-.13.07-.16.21l-5.3,17.42C337.76,126.32,337.83,126.42,338,126.42Z"/>
        <path class="cls-1" d="M383.66,137l-6.86-15a.34.34,0,0,0-.32-.21h-6.24a.23.23,0,0,0-.26.26v14.77a.59.59,0,0,1-.18.44.58.58,0,0,1-.44.19h-4.78a.63.63,0,0,1-.63-.63V101.67a.6.6,0,0,1,.18-.44.61.61,0,0,1,.45-.18h14.3a11.62,11.62,0,0,1,5.61,1.32,9.4,9.4,0,0,1,3.8,3.75,11.13,11.13,0,0,1,1.35,5.53,10,10,0,0,1-1.85,6.11,9.43,9.43,0,0,1-5.12,3.51.16.16,0,0,0-.15.11.2.2,0,0,0,0,.21l7.33,15.13a.76.76,0,0,1,.1.31q0,.42-.57.42h-5A.74.74,0,0,1,383.66,137ZM370,106.51v10.34a.23.23,0,0,0,.26.26H378a5.53,5.53,0,0,0,4-1.48,5.17,5.17,0,0,0,1.54-3.92,5.3,5.3,0,0,0-1.54-4,5.5,5.5,0,0,0-4-1.5h-7.8A.23.23,0,0,0,370,106.51Z"/>
        <path class="cls-1" d="M396,137.26a.59.59,0,0,1-.18-.44V101.67a.61.61,0,0,1,.62-.62h12.69a15.27,15.27,0,0,1,6.5,1.3,9.89,9.89,0,0,1,4.34,3.71,10.38,10.38,0,0,1,1.54,5.65v15.08a10.32,10.32,0,0,1-1.54,5.64,10,10,0,0,1-4.34,3.72,15.42,15.42,0,0,1-6.5,1.3H396.45A.58.58,0,0,1,396,137.26Zm6.11-5h7.28a5.7,5.7,0,0,0,4.39-1.75,6.68,6.68,0,0,0,1.69-4.65V112.69a6.52,6.52,0,0,0-1.66-4.7,5.9,5.9,0,0,0-4.47-1.74h-7.23a.23.23,0,0,0-.26.26V132A.23.23,0,0,0,402.12,132.25Z"/>
        <path class="cls-1" d="M433.89,136.35a10.9,10.9,0,0,1-4.6-4.29,12.41,12.41,0,0,1-1.64-6.42v-24a.6.6,0,0,1,.18-.44.61.61,0,0,1,.45-.18h4.78a.61.61,0,0,1,.62.62v24.08a6.73,6.73,0,0,0,1.93,5,7.72,7.72,0,0,0,10.19,0,6.76,6.76,0,0,0,1.92-5V101.67a.58.58,0,0,1,.19-.44.59.59,0,0,1,.44-.18h4.78a.61.61,0,0,1,.62.62v24a12.49,12.49,0,0,1-1.61,6.42,10.77,10.77,0,0,1-4.57,4.29,16.25,16.25,0,0,1-13.68,0Z"/>
        <path class="cls-1" d="M481.37,118.78a8.75,8.75,0,0,1,5.3,8.58c0,3.29-1.1,5.8-3.3,7.51a13.58,13.58,0,0,1-8.61,2.58h-13.1a.65.65,0,0,1-.63-.63V101.67a.58.58,0,0,1,.19-.44.59.59,0,0,1,.44-.18h12.69c3.77,0,6.69.81,8.73,2.44s3.07,4.09,3.07,7.38a7.65,7.65,0,0,1-4.78,7.6C481.16,118.57,481.16,118.67,481.37,118.78Zm-14.3-12.27v9.62a.23.23,0,0,0,.26.26h7a6.6,6.6,0,0,0,4.34-1.33,4.54,4.54,0,0,0,1.58-3.67,4.76,4.76,0,0,0-1.58-3.77,6.45,6.45,0,0,0-4.34-1.37h-7C467.15,106.25,467.07,106.33,467.07,106.51Zm12,24.23a5.71,5.71,0,0,0,0-7.93,6.39,6.39,0,0,0-4.37-1.43h-7.33a.23.23,0,0,0-.26.26v10.29c0,.18.08.26.26.26h7.43A6.11,6.11,0,0,0,479.05,130.74Z"/>
        <path class="cls-1" d="M493.56,137.26a.59.59,0,0,1-.18-.44V101.67a.61.61,0,0,1,.62-.62h4.79a.61.61,0,0,1,.62.62v35.15a.59.59,0,0,1-.18.44.58.58,0,0,1-.44.19H494A.58.58,0,0,1,493.56,137.26Z"/>
        <path class="cls-1" d="M512.31,136.33a11,11,0,0,1-4.58-4.29,12.49,12.49,0,0,1-1.61-6.4V112.8a12.49,12.49,0,0,1,1.61-6.4,10.85,10.85,0,0,1,4.58-4.26,14.85,14.85,0,0,1,6.86-1.51,15.23,15.23,0,0,1,6.81,1.46,10.81,10.81,0,0,1,4.58,4.1,11.64,11.64,0,0,1,1.61,6.14.61.61,0,0,1-.62.62l-4.79.26c-.41,0-.62-.19-.62-.57a6.66,6.66,0,0,0-1.9-4.94,6.91,6.91,0,0,0-5.07-1.87,7,7,0,0,0-5.1,1.87,6.6,6.6,0,0,0-1.92,4.94V125.9a6.53,6.53,0,0,0,1.92,4.89,7.9,7.9,0,0,0,10.17,0,6.57,6.57,0,0,0,1.9-4.92c0-.38.21-.57.62-.57l4.79.21a.67.67,0,0,1,.44.15.49.49,0,0,1,.18.37,11.82,11.82,0,0,1-1.61,6.21,10.71,10.71,0,0,1-4.58,4.14,15.23,15.23,0,0,1-6.81,1.45A14.73,14.73,0,0,1,512.31,136.33Z"/>
        <path class="cls-1" d="M538.8,137.26a.59.59,0,0,1-.18-.44V101.67a.61.61,0,0,1,.62-.62H544a.61.61,0,0,1,.62.62v15.55a.22.22,0,0,0,.1.21.18.18,0,0,0,.21-.06l13.52-16a1,1,0,0,1,.78-.36h5.41c.35,0,.52.12.52.36a.89.89,0,0,1-.16.42l-11.91,14.61c-.1.14-.12.26,0,.36l12.8,19.92c.06.21.1.33.1.36,0,.25-.17.37-.52.37H560a.81.81,0,0,1-.73-.42L549,121c-.13-.2-.26-.22-.36-.05l-3.85,4.47a.82.82,0,0,0-.1.37v11a.59.59,0,0,1-.18.44.58.58,0,0,1-.44.19h-4.79A.58.58,0,0,1,538.8,137.26Z"/>
        <path class="cls-1" d="M579.78,137.21a.58.58,0,0,1-.19-.44V122.83a.67.67,0,0,0-.05-.31l-10.71-20.75a.72.72,0,0,1-.1-.31c0-.27.19-.41.57-.41h5.15a.73.73,0,0,1,.72.46L582.45,116c.11.14.21.14.32,0l7.33-14.51a.79.79,0,0,1,.73-.46H596a.55.55,0,0,1,.49.2.49.49,0,0,1,0,.52l-10.76,20.75a.81.81,0,0,0-.1.31v13.94a.61.61,0,0,1-.19.44.6.6,0,0,1-.44.18h-4.78A.59.59,0,0,1,579.78,137.21Zm-.08-39.65a.58.58,0,0,1,0-.52l2.86-5.35a.79.79,0,0,1,.78-.42h4.11a.52.52,0,0,1,.49.23.5.5,0,0,1-.08.55l-3.58,5.3a.83.83,0,0,1-.73.42h-3.44C579.92,97.77,579.77,97.7,579.7,97.56Z"/>
        <path class="cls-1" d="M338,217.18a.67.67,0,0,1-.15-.63l6.22-50.7a.83.83,0,0,1,.3-.64,1,1,0,0,1,.68-.26h10.27c.55,0,.83.3.83.9l-2.4,19.5c-.05.15,0,.23.07.26a.3.3,0,0,0,.3-.11l17.18-20a1.34,1.34,0,0,1,1.05-.52h11.85c.4,0,.6.17.6.52a1.3,1.3,0,0,1-.23.6l-18.37,21.68c-.21.2-.25.37-.15.52l13,28.13a1,1,0,0,1,.08.45c0,.4-.28.6-.83.6H366.76a.92.92,0,0,1-1-.6l-9-20c-.05-.3-.23-.3-.53,0l-4.42,5.33-.23.45-1.65,14a1.15,1.15,0,0,1-.34.63.83.83,0,0,1-.63.27H338.64A.73.73,0,0,1,338,217.18Z"/>
        <path class="cls-1" d="M410,216.77l-6.08-20a.48.48,0,0,0-.44-.3h-4.81a.33.33,0,0,0-.37.38l-2.4,19.65a1.15,1.15,0,0,1-.34.63.85.85,0,0,1-.64.27H384.53a.71.71,0,0,1-.59-.27.67.67,0,0,1-.16-.63l6.23-50.7a.83.83,0,0,1,.3-.64A1,1,0,0,1,391,165h21.59q6.6,0,10.43,3.75t3.82,10.12c0,.5-.05,1.3-.14,2.4a17.78,17.78,0,0,1-3.53,8.7,16.13,16.13,0,0,1-7.35,5.33.35.35,0,0,0-.23.52l7.05,20.63a.81.81,0,0,1,.08.37c0,.45-.3.68-.9.68H410.94A.93.93,0,0,1,410,216.77ZM400.81,176l-1.28,10.65c-.1.25,0,.38.3.38h8.11a6.77,6.77,0,0,0,4.83-1.8,6.19,6.19,0,0,0,1.92-4.73,4.54,4.54,0,0,0-1.47-3.56,5.68,5.68,0,0,0-3.94-1.31h-8C401,175.6,400.81,175.72,400.81,176Z"/>
        <path class="cls-1" d="M461.48,217.22a1.1,1.1,0,0,1-.3-.52L460.13,210c-.1-.2-.22-.3-.37-.3H443.18c-.15,0-.27.1-.37.3l-2.7,6.68a1.21,1.21,0,0,1-1.13.75h-11.1a.7.7,0,0,1-.63-.27q-.19-.26,0-.78L449,165.7a1.15,1.15,0,0,1,1.05-.75h13.73a.9.9,0,0,1,.9.75l9.37,50.7v.3c0,.5-.27.75-.82.75H462.08A.81.81,0,0,1,461.48,217.22Zm-14.25-17.1H458c.25,0,.38-.15.38-.45l-3.15-19.27c-.05-.2-.13-.29-.23-.27a.37.37,0,0,0-.22.27L447,199.67C446.86,200,446.93,200.12,447.23,200.12Z"/>
        <path class="cls-1" d="M516.23,165.21a.72.72,0,0,1,.15.64l-1.12,8.92a.81.81,0,0,1-.3.64,1,1,0,0,1-.68.26H501.61c-.3,0-.45.13-.45.38l-5,40.5a1.15,1.15,0,0,1-.34.63.85.85,0,0,1-.64.27H484.88a.74.74,0,0,1-.6-.27.7.7,0,0,1-.15-.63l4.95-40.5c0-.25-.1-.38-.3-.38h-12.3a.76.76,0,0,1-.6-.26.72.72,0,0,1-.15-.64l1-8.92a1.29,1.29,0,0,1,.34-.64.9.9,0,0,1,.64-.26h37.87A.76.76,0,0,1,516.23,165.21Zm-29.85-13.16c0-.5.28-.75.83-.75h7.87a.94.94,0,0,1,1,.6l1.87,4c.1.15.2.22.3.22s.18-.07.23-.22l2.92-4a1.07,1.07,0,0,1,1.05-.6h7.88c.45,0,.67.17.67.52a1.26,1.26,0,0,1-.22.6l-6.38,7.88a1.18,1.18,0,0,1-1.05.6H491.71a.94.94,0,0,1-1-.6l-4.27-7.88A.81.81,0,0,1,486.38,152.05Z"/>
        <path class="cls-1" d="M542.86,217.22a1.1,1.1,0,0,1-.3-.52l-1-6.68c-.1-.2-.23-.3-.38-.3H524.56c-.15,0-.28.1-.38.3l-2.7,6.68a1.19,1.19,0,0,1-1.12.75h-11.1a.73.73,0,0,1-.64-.27.81.81,0,0,1,0-.78l21.75-50.7a1.15,1.15,0,0,1,1.05-.75h13.72a.9.9,0,0,1,.9.75l9.38,50.7v.3c0,.5-.28.75-.83.75H543.46A.81.81,0,0,1,542.86,217.22Zm-14.25-17.1h10.8c.25,0,.37-.15.37-.45l-3.15-19.27c0-.2-.12-.29-.22-.27a.38.38,0,0,0-.23.27l-7.8,19.27C528.23,200,528.31,200.12,528.61,200.12Z"/>
        <path class="cls-1" d="M562.4,214.26A12.37,12.37,0,0,1,557.56,204c0-.45.05-1.18.15-2.18l.22-1.42a1.29,1.29,0,0,1,.34-.64.9.9,0,0,1,.64-.26H569a.76.76,0,0,1,.6.26.72.72,0,0,1,.15.64l-.15.9a4.66,4.66,0,0,0,1.92,4.31,9.5,9.5,0,0,0,6.26,1.84,7.23,7.23,0,0,0,5.14-1.61,4.88,4.88,0,0,0,1.68-3.57,3.16,3.16,0,0,0-1.57-2.81,31.69,31.69,0,0,0-5.7-2.51l-1.73-.6a53.53,53.53,0,0,1-7.27-3.15,16.61,16.61,0,0,1-5.29-4.5,11.07,11.07,0,0,1-2.21-7q0-.6.15-1.95a16,16,0,0,1,3.41-8.14,18.35,18.35,0,0,1,7.24-5.36,24.74,24.74,0,0,1,9.75-1.87,22.26,22.26,0,0,1,9.19,1.8,14.55,14.55,0,0,1,6.26,5.13,13.45,13.45,0,0,1,2.25,7.69c0,.45-.05,1.18-.15,2.18l-.15,1a.8.8,0,0,1-.3.63,1,1,0,0,1-.68.27H587.78a.83.83,0,0,1-.63-.27.64.64,0,0,1-.19-.63l.07-.53a5.5,5.5,0,0,0-1.68-4.65,7.69,7.69,0,0,0-5.74-2,7.84,7.84,0,0,0-4.88,1.38,4.62,4.62,0,0,0-1.8,3.87,3.17,3.17,0,0,0,1,2.32,9.74,9.74,0,0,0,2.92,1.84c1.3.58,3.3,1.36,6,2.36,3,1.1,5.42,2,7.09,2.85a14.27,14.27,0,0,1,4.73,3.86,10.44,10.44,0,0,1,2.21,6.87q0,.6-.15,2a16.15,16.15,0,0,1-6.64,11.51q-5.73,4.23-14.44,4.24Q567.23,218.05,562.4,214.26Z"/>
    </g>
</svg>